<?xml version="1.0" encoding="UTF-8" standalone="no"?>
<!DOCTYPE svg PUBLIC "-//W3C//DTD SVG 1.1//EN"
 "http://www.w3.org/Graphics/SVG/1.1/DTD/svg11.dtd">
<!-- Generated by graphviz version 2.42.3 (20191010.1750)
 -->
<!-- Title: classes_tpl_jinja Pages: 1 -->
<svg width="1278pt" height="2486pt"
 viewBox="0.00 0.00 1277.50 2486.00" xmlns="http://www.w3.org/2000/svg" xmlns:xlink="http://www.w3.org/1999/xlink">
<g id="graph0" class="graph" transform="scale(1 1) rotate(0) translate(4 2482)">
<title>classes_tpl_jinja</title>
<polygon fill="white" stroke="transparent" points="-4,4 -4,-2482 1273.5,-2482 1273.5,4 -4,4"/>
<!-- 0 -->
<g id="node1" class="node">
<title>0</title>
<polygon fill="none" stroke="black" points="0,-174 0,-288 749,-288 749,-174 0,-174"/>
<text text-anchor="middle" x="374.5" y="-272.8" font-family="sans-serif" font-size="14.00">/home/runner/work/wxyz/wxyz/envs/_base/lib/python3.8/site&#45;packages/wxyz/tpl_jinja/base.py.JinjaBase</text>
<polyline fill="none" stroke="black" points="0,-265 749,-265 "/>
<text text-anchor="start" x="8" y="-249.8" font-family="sans-serif" font-size="14.00">_model_module : Unicode</text>
<text text-anchor="start" x="8" y="-234.8" font-family="sans-serif" font-size="14.00">_model_module_version : Unicode</text>
<text text-anchor="start" x="8" y="-219.8" font-family="sans-serif" font-size="14.00">_view_module : Unicode</text>
<text text-anchor="start" x="8" y="-204.8" font-family="sans-serif" font-size="14.00">_view_module_version : Unicode</text>
<polyline fill="none" stroke="black" points="0,-197 749,-197 "/>
<text text-anchor="middle" x="374.5" y="-181.8" font-family="sans-serif" font-size="14.00"> </text>
</g>
<!-- 6 -->
<g id="node7" class="node">
<title>6</title>
<polygon fill="none" stroke="black" points="481.5,-347.5 481.5,-521.5 743.5,-521.5 743.5,-347.5 481.5,-347.5"/>
<text text-anchor="middle" x="612.5" y="-506.3" font-family="sans-serif" font-size="14.00">wxyz.core.base.Base</text>
<polyline fill="none" stroke="black" points="481.5,-498.5 743.5,-498.5 "/>
<text text-anchor="start" x="489.5" y="-483.3" font-family="sans-serif" font-size="14.00">_model_module : Unicode</text>
<text text-anchor="start" x="489.5" y="-468.3" font-family="sans-serif" font-size="14.00">_model_module_version : Unicode</text>
<text text-anchor="start" x="489.5" y="-453.3" font-family="sans-serif" font-size="14.00">_view_module : Unicode</text>
<text text-anchor="start" x="489.5" y="-438.3" font-family="sans-serif" font-size="14.00">_view_module_version : Unicode</text>
<text text-anchor="start" x="489.5" y="-423.3" font-family="sans-serif" font-size="14.00">closable : Bool</text>
<text text-anchor="start" x="489.5" y="-408.3" font-family="sans-serif" font-size="14.00">description : Unicode</text>
<text text-anchor="start" x="489.5" y="-393.3" font-family="sans-serif" font-size="14.00">error : CUnicode</text>
<text text-anchor="start" x="489.5" y="-378.3" font-family="sans-serif" font-size="14.00">icon_class : Unicode</text>
<polyline fill="none" stroke="black" points="481.5,-370.5 743.5,-370.5 "/>
<text text-anchor="middle" x="612.5" y="-355.3" font-family="sans-serif" font-size="14.00"> </text>
</g>
<!-- 0&#45;&gt;6 -->
<g id="edge1" class="edge">
<title>0&#45;&gt;6</title>
<path fill="none" stroke="black" d="M440.8,-288.13C460.03,-304.41 481.56,-322.64 502.71,-340.54"/>
<polygon fill="none" stroke="black" points="500.58,-343.33 510.47,-347.12 505.1,-337.99 500.58,-343.33"/>
</g>
<!-- 1 -->
<g id="node2" class="node">
<title>1</title>
<polygon fill="none" stroke="black" points="433.5,-0.5 433.5,-114.5 1269.5,-114.5 1269.5,-0.5 433.5,-0.5"/>
<text text-anchor="middle" x="851.5" y="-99.3" font-family="sans-serif" font-size="14.00">/home/runner/work/wxyz/wxyz/envs/_base/lib/python3.8/site&#45;packages/wxyz/tpl_jinja/widget_template.py.Template</text>
<polyline fill="none" stroke="black" points="433.5,-91.5 1269.5,-91.5 "/>
<text text-anchor="start" x="441.5" y="-76.3" font-family="sans-serif" font-size="14.00">_model_name : Unicode</text>
<text text-anchor="start" x="441.5" y="-61.3" font-family="sans-serif" font-size="14.00">_observed_traits : list</text>
<text text-anchor="start" x="441.5" y="-46.3" font-family="sans-serif" font-size="14.00">context : TraitType</text>
<polyline fill="none" stroke="black" points="433.5,-38.5 1269.5,-38.5 "/>
<text text-anchor="start" x="441.5" y="-23.3" font-family="sans-serif" font-size="14.00">_context_changed()</text>
<text text-anchor="start" x="441.5" y="-8.3" font-family="sans-serif" font-size="14.00">the_function(source, context)</text>
</g>
<!-- 7 -->
<g id="node8" class="node">
<title>7</title>
<polygon fill="none" stroke="black" points="767,-151.5 767,-310.5 936,-310.5 936,-151.5 767,-151.5"/>
<text text-anchor="middle" x="851.5" y="-295.3" font-family="sans-serif" font-size="14.00">wxyz.core.base.Fn</text>
<polyline fill="none" stroke="black" points="767,-287.5 936,-287.5 "/>
<text text-anchor="start" x="775" y="-272.3" font-family="sans-serif" font-size="14.00">_observed_traits : list</text>
<text text-anchor="start" x="775" y="-257.3" font-family="sans-serif" font-size="14.00">error : str</text>
<text text-anchor="start" x="775" y="-242.3" font-family="sans-serif" font-size="14.00">mode : Enum</text>
<text text-anchor="start" x="775" y="-227.3" font-family="sans-serif" font-size="14.00">source : Any</text>
<text text-anchor="start" x="775" y="-212.3" font-family="sans-serif" font-size="14.00">value : Any</text>
<text text-anchor="start" x="775" y="-197.3" font-family="sans-serif" font-size="14.00">value : NoneType</text>
<polyline fill="none" stroke="black" points="767,-189.5 936,-189.5 "/>
<text text-anchor="start" x="775" y="-174.3" font-family="sans-serif" font-size="14.00">__init__()</text>
<text text-anchor="start" x="775" y="-159.3" font-family="sans-serif" font-size="14.00">the_observer()</text>
</g>
<!-- 1&#45;&gt;7 -->
<g id="edge2" class="edge">
<title>1&#45;&gt;7</title>
<path fill="none" stroke="black" d="M851.5,-114.66C851.5,-123.17 851.5,-132.13 851.5,-141.14"/>
<polygon fill="none" stroke="black" points="848,-141.31 851.5,-151.31 855,-141.31 848,-141.31"/>
</g>
<!-- 2 -->
<g id="node3" class="node">
<title>2</title>
<polygon fill="none" stroke="black" points="446.5,-1670.5 446.5,-1739.5 778.5,-1739.5 778.5,-1670.5 446.5,-1670.5"/>
<text text-anchor="middle" x="612.5" y="-1724.3" font-family="sans-serif" font-size="14.00">ipywidgets.widgets.widget.LoggingHasTraits</text>
<polyline fill="none" stroke="black" points="446.5,-1716.5 778.5,-1716.5 "/>
<text text-anchor="start" x="454.5" y="-1701.3" font-family="sans-serif" font-size="14.00">log : Instance</text>
<polyline fill="none" stroke="black" points="446.5,-1693.5 778.5,-1693.5 "/>
<text text-anchor="start" x="454.5" y="-1678.3" font-family="sans-serif" font-size="14.00">_log_default()</text>
</g>
<!-- 5 -->
<g id="node6" class="node">
<title>5</title>
<polygon fill="none" stroke="black" points="454.5,-1776.5 454.5,-2355.5 770.5,-2355.5 770.5,-1776.5 454.5,-1776.5"/>
<text text-anchor="middle" x="612.5" y="-2340.3" font-family="sans-serif" font-size="14.00">traitlets.traitlets.HasTraits</text>
<polyline fill="none" stroke="black" points="454.5,-2332.5 770.5,-2332.5 "/>
<text text-anchor="start" x="462.5" y="-2317.3" font-family="sans-serif" font-size="14.00">__class__</text>
<text text-anchor="start" x="462.5" y="-2302.3" font-family="sans-serif" font-size="14.00">__dict__</text>
<text text-anchor="start" x="462.5" y="-2287.3" font-family="sans-serif" font-size="14.00">_cross_validation_lock : bool</text>
<text text-anchor="start" x="462.5" y="-2272.3" font-family="sans-serif" font-size="14.00">_trait_notifiers : dict</text>
<text text-anchor="start" x="462.5" y="-2257.3" font-family="sans-serif" font-size="14.00">cross_validation_lock</text>
<text text-anchor="start" x="462.5" y="-2242.3" font-family="sans-serif" font-size="14.00">notify_change</text>
<polyline fill="none" stroke="black" points="454.5,-2234.5 770.5,-2234.5 "/>
<text text-anchor="start" x="462.5" y="-2219.3" font-family="sans-serif" font-size="14.00">__getstate__()</text>
<text text-anchor="start" x="462.5" y="-2204.3" font-family="sans-serif" font-size="14.00">__init__()</text>
<text text-anchor="start" x="462.5" y="-2189.3" font-family="sans-serif" font-size="14.00">__setstate__(state)</text>
<text text-anchor="start" x="462.5" y="-2174.3" font-family="sans-serif" font-size="14.00">_add_notifiers(handler, name, type)</text>
<text text-anchor="start" x="462.5" y="-2159.3" font-family="sans-serif" font-size="14.00">_get_trait_default_generator(name)</text>
<text text-anchor="start" x="462.5" y="-2144.3" font-family="sans-serif" font-size="14.00">_notify_observers(event)</text>
<text text-anchor="start" x="462.5" y="-2129.3" font-family="sans-serif" font-size="14.00">_notify_trait(name, old_value, new_value)</text>
<text text-anchor="start" x="462.5" y="-2114.3" font-family="sans-serif" font-size="14.00">_register_validator(handler, names)</text>
<text text-anchor="start" x="462.5" y="-2099.3" font-family="sans-serif" font-size="14.00">_remove_notifiers(handler, name, type)</text>
<text text-anchor="start" x="462.5" y="-2084.3" font-family="sans-serif" font-size="14.00">add_traits()</text>
<text text-anchor="start" x="462.5" y="-2069.3" font-family="sans-serif" font-size="14.00">class_own_trait_events(cls, name)</text>
<text text-anchor="start" x="462.5" y="-2054.3" font-family="sans-serif" font-size="14.00">class_own_traits(cls)</text>
<text text-anchor="start" x="462.5" y="-2039.3" font-family="sans-serif" font-size="14.00">class_trait_names(cls)</text>
<text text-anchor="start" x="462.5" y="-2024.3" font-family="sans-serif" font-size="14.00">class_traits(cls)</text>
<text text-anchor="start" x="462.5" y="-2009.3" font-family="sans-serif" font-size="14.00">has_trait(name)</text>
<text text-anchor="start" x="462.5" y="-1994.3" font-family="sans-serif" font-size="14.00">hold_trait_notifications()</text>
<text text-anchor="start" x="462.5" y="-1979.3" font-family="sans-serif" font-size="14.00">notify_change(change)</text>
<text text-anchor="start" x="462.5" y="-1964.3" font-family="sans-serif" font-size="14.00">observe(handler, names, type)</text>
<text text-anchor="start" x="462.5" y="-1949.3" font-family="sans-serif" font-size="14.00">on_trait_change(handler, name, remove)</text>
<text text-anchor="start" x="462.5" y="-1934.3" font-family="sans-serif" font-size="14.00">set_trait(name, value)</text>
<text text-anchor="start" x="462.5" y="-1919.3" font-family="sans-serif" font-size="14.00">setup_instance()</text>
<text text-anchor="start" x="462.5" y="-1904.3" font-family="sans-serif" font-size="14.00">trait_defaults()</text>
<text text-anchor="start" x="462.5" y="-1889.3" font-family="sans-serif" font-size="14.00">trait_events(cls, name)</text>
<text text-anchor="start" x="462.5" y="-1874.3" font-family="sans-serif" font-size="14.00">trait_has_value(name)</text>
<text text-anchor="start" x="462.5" y="-1859.3" font-family="sans-serif" font-size="14.00">trait_metadata(traitname, key, default)</text>
<text text-anchor="start" x="462.5" y="-1844.3" font-family="sans-serif" font-size="14.00">trait_names()</text>
<text text-anchor="start" x="462.5" y="-1829.3" font-family="sans-serif" font-size="14.00">trait_values()</text>
<text text-anchor="start" x="462.5" y="-1814.3" font-family="sans-serif" font-size="14.00">traits()</text>
<text text-anchor="start" x="462.5" y="-1799.3" font-family="sans-serif" font-size="14.00">unobserve(handler, names, type)</text>
<text text-anchor="start" x="462.5" y="-1784.3" font-family="sans-serif" font-size="14.00">unobserve_all(name)</text>
</g>
<!-- 2&#45;&gt;5 -->
<g id="edge3" class="edge">
<title>2&#45;&gt;5</title>
<path fill="none" stroke="black" d="M612.5,-1739.77C612.5,-1747.56 612.5,-1756.46 612.5,-1766.23"/>
<polygon fill="none" stroke="black" points="609,-1766.27 612.5,-1776.27 616,-1766.27 609,-1766.27"/>
</g>
<!-- 3 -->
<g id="node4" class="node">
<title>3</title>
<polygon fill="none" stroke="black" points="448,-709.5 448,-1633.5 777,-1633.5 777,-709.5 448,-709.5"/>
<text text-anchor="middle" x="612.5" y="-1618.3" font-family="sans-serif" font-size="14.00">ipywidgets.widgets.widget.Widget</text>
<polyline fill="none" stroke="black" points="448,-1610.5 777,-1610.5 "/>
<text text-anchor="start" x="456" y="-1595.3" font-family="sans-serif" font-size="14.00">_display_callbacks : Instance</text>
<text text-anchor="start" x="456" y="-1580.3" font-family="sans-serif" font-size="14.00">_holding_sync : bool</text>
<text text-anchor="start" x="456" y="-1565.3" font-family="sans-serif" font-size="14.00">_holding_sync : bool</text>
<text text-anchor="start" x="456" y="-1550.3" font-family="sans-serif" font-size="14.00">_ipython_display_ : NoneType</text>
<text text-anchor="start" x="456" y="-1535.3" font-family="sans-serif" font-size="14.00">_model_id</text>
<text text-anchor="start" x="456" y="-1520.3" font-family="sans-serif" font-size="14.00">_model_module : Unicode</text>
<text text-anchor="start" x="456" y="-1505.3" font-family="sans-serif" font-size="14.00">_model_module_version : Unicode</text>
<text text-anchor="start" x="456" y="-1490.3" font-family="sans-serif" font-size="14.00">_model_name : Unicode</text>
<text text-anchor="start" x="456" y="-1475.3" font-family="sans-serif" font-size="14.00">_msg_callbacks : Instance</text>
<text text-anchor="start" x="456" y="-1460.3" font-family="sans-serif" font-size="14.00">_property_lock : Dict</text>
<text text-anchor="start" x="456" y="-1445.3" font-family="sans-serif" font-size="14.00">_property_lock : dict</text>
<text text-anchor="start" x="456" y="-1430.3" font-family="sans-serif" font-size="14.00">_states_to_send : Set</text>
<text text-anchor="start" x="456" y="-1415.3" font-family="sans-serif" font-size="14.00">_view_count : Int</text>
<text text-anchor="start" x="456" y="-1400.3" font-family="sans-serif" font-size="14.00">_view_module : Unicode</text>
<text text-anchor="start" x="456" y="-1385.3" font-family="sans-serif" font-size="14.00">_view_module_version : Unicode</text>
<text text-anchor="start" x="456" y="-1370.3" font-family="sans-serif" font-size="14.00">_view_name : Unicode</text>
<text text-anchor="start" x="456" y="-1355.3" font-family="sans-serif" font-size="14.00">_widget_construction_callback : NoneType</text>
<text text-anchor="start" x="456" y="-1340.3" font-family="sans-serif" font-size="14.00">comm : Comm, NoneType</text>
<text text-anchor="start" x="456" y="-1325.3" font-family="sans-serif" font-size="14.00">comm : Instance</text>
<text text-anchor="start" x="456" y="-1310.3" font-family="sans-serif" font-size="14.00">keys : List</text>
<text text-anchor="start" x="456" y="-1295.3" font-family="sans-serif" font-size="14.00">model_id</text>
<text text-anchor="start" x="456" y="-1280.3" font-family="sans-serif" font-size="14.00">widget_types : WidgetRegistry</text>
<text text-anchor="start" x="456" y="-1265.3" font-family="sans-serif" font-size="14.00">widgets : dict</text>
<polyline fill="none" stroke="black" points="448,-1257.5 777,-1257.5 "/>
<text text-anchor="start" x="456" y="-1242.3" font-family="sans-serif" font-size="14.00">__del__()</text>
<text text-anchor="start" x="456" y="-1227.3" font-family="sans-serif" font-size="14.00">__init__()</text>
<text text-anchor="start" x="456" y="-1212.3" font-family="sans-serif" font-size="14.00">__repr__()</text>
<text text-anchor="start" x="456" y="-1197.3" font-family="sans-serif" font-size="14.00">_call_widget_constructed(widget)</text>
<text text-anchor="start" x="456" y="-1182.3" font-family="sans-serif" font-size="14.00">_comm_changed(change)</text>
<text text-anchor="start" x="456" y="-1167.3" font-family="sans-serif" font-size="14.00">_compare(a, b)</text>
<text text-anchor="start" x="456" y="-1152.3" font-family="sans-serif" font-size="14.00">_default_keys()</text>
<text text-anchor="start" x="456" y="-1137.3" font-family="sans-serif" font-size="14.00">_gen_repr_from_keys(keys)</text>
<text text-anchor="start" x="456" y="-1122.3" font-family="sans-serif" font-size="14.00">_get_embed_state(drop_defaults)</text>
<text text-anchor="start" x="456" y="-1107.3" font-family="sans-serif" font-size="14.00">_handle_custom_msg(content, buffers)</text>
<text text-anchor="start" x="456" y="-1092.3" font-family="sans-serif" font-size="14.00">_handle_displayed()</text>
<text text-anchor="start" x="456" y="-1077.3" font-family="sans-serif" font-size="14.00">_handle_msg(msg)</text>
<text text-anchor="start" x="456" y="-1062.3" font-family="sans-serif" font-size="14.00">_ipython_display_()</text>
<text text-anchor="start" x="456" y="-1047.3" font-family="sans-serif" font-size="14.00">_is_numpy(x)</text>
<text text-anchor="start" x="456" y="-1032.3" font-family="sans-serif" font-size="14.00">_lock_property()</text>
<text text-anchor="start" x="456" y="-1017.3" font-family="sans-serif" font-size="14.00">_repr_keys()</text>
<text text-anchor="start" x="456" y="-1002.3" font-family="sans-serif" font-size="14.00">_send(msg, buffers)</text>
<text text-anchor="start" x="456" y="-987.3" font-family="sans-serif" font-size="14.00">_should_send_property(key, value)</text>
<text text-anchor="start" x="456" y="-972.3" font-family="sans-serif" font-size="14.00">_trait_from_json(x)</text>
<text text-anchor="start" x="456" y="-957.3" font-family="sans-serif" font-size="14.00">_trait_to_json(x)</text>
<text text-anchor="start" x="456" y="-942.3" font-family="sans-serif" font-size="14.00">add_traits()</text>
<text text-anchor="start" x="456" y="-927.3" font-family="sans-serif" font-size="14.00">close()</text>
<text text-anchor="start" x="456" y="-912.3" font-family="sans-serif" font-size="14.00">close_all(cls)</text>
<text text-anchor="start" x="456" y="-897.3" font-family="sans-serif" font-size="14.00">get_manager_state(drop_defaults, widgets)</text>
<text text-anchor="start" x="456" y="-882.3" font-family="sans-serif" font-size="14.00">get_state(key, drop_defaults)</text>
<text text-anchor="start" x="456" y="-867.3" font-family="sans-serif" font-size="14.00">get_view_spec()</text>
<text text-anchor="start" x="456" y="-852.3" font-family="sans-serif" font-size="14.00">handle_comm_opened(comm, msg)</text>
<text text-anchor="start" x="456" y="-837.3" font-family="sans-serif" font-size="14.00">hold_sync()</text>
<text text-anchor="start" x="456" y="-822.3" font-family="sans-serif" font-size="14.00">notify_change(change)</text>
<text text-anchor="start" x="456" y="-807.3" font-family="sans-serif" font-size="14.00">on_displayed(callback, remove)</text>
<text text-anchor="start" x="456" y="-792.3" font-family="sans-serif" font-size="14.00">on_msg(callback, remove)</text>
<text text-anchor="start" x="456" y="-777.3" font-family="sans-serif" font-size="14.00">on_widget_constructed(callback)</text>
<text text-anchor="start" x="456" y="-762.3" font-family="sans-serif" font-size="14.00">open()</text>
<text text-anchor="start" x="456" y="-747.3" font-family="sans-serif" font-size="14.00">send(content, buffers)</text>
<text text-anchor="start" x="456" y="-732.3" font-family="sans-serif" font-size="14.00">send_state(key)</text>
<text text-anchor="start" x="456" y="-717.3" font-family="sans-serif" font-size="14.00">set_state(sync_data)</text>
</g>
<!-- 3&#45;&gt;2 -->
<g id="edge4" class="edge">
<title>3&#45;&gt;2</title>
<path fill="none" stroke="black" d="M612.5,-1633.7C612.5,-1643.32 612.5,-1652.18 612.5,-1660.13"/>
<polygon fill="none" stroke="black" points="609,-1660.4 612.5,-1670.4 616,-1660.4 609,-1660.4"/>
</g>
<!-- 4 -->
<g id="node5" class="node">
<title>4</title>
<polygon fill="none" stroke="black" points="490.5,-2392.5 490.5,-2477.5 734.5,-2477.5 734.5,-2392.5 490.5,-2392.5"/>
<text text-anchor="middle" x="612.5" y="-2462.3" font-family="sans-serif" font-size="14.00">traitlets.traitlets.HasDescriptors</text>
<polyline fill="none" stroke="black" points="490.5,-2454.5 734.5,-2454.5 "/>
<polyline fill="none" stroke="black" points="490.5,-2430.5 734.5,-2430.5 "/>
<text text-anchor="start" x="498.5" y="-2415.3" font-family="sans-serif" font-size="14.00">__new__()</text>
<text text-anchor="start" x="498.5" y="-2400.3" font-family="sans-serif" font-size="14.00">setup_instance()</text>
</g>
<!-- 5&#45;&gt;4 -->
<g id="edge5" class="edge">
<title>5&#45;&gt;4</title>
<path fill="none" stroke="black" d="M612.5,-2355.72C612.5,-2365.16 612.5,-2374.03 612.5,-2382.18"/>
<polygon fill="none" stroke="black" points="609,-2382.45 612.5,-2392.45 616,-2382.45 609,-2382.45"/>
</g>
<!-- 8 -->
<g id="node9" class="node">
<title>8</title>
<polygon fill="none" stroke="black" points="481.5,-558.5 481.5,-672.5 743.5,-672.5 743.5,-558.5 481.5,-558.5"/>
<text text-anchor="middle" x="612.5" y="-657.3" font-family="sans-serif" font-size="14.00">wxyz.core.base.WXYZBase</text>
<polyline fill="none" stroke="black" points="481.5,-649.5 743.5,-649.5 "/>
<text text-anchor="start" x="489.5" y="-634.3" font-family="sans-serif" font-size="14.00">_model_module : Unicode</text>
<text text-anchor="start" x="489.5" y="-619.3" font-family="sans-serif" font-size="14.00">_model_module_version : Unicode</text>
<text text-anchor="start" x="489.5" y="-604.3" font-family="sans-serif" font-size="14.00">_view_module : Unicode</text>
<text text-anchor="start" x="489.5" y="-589.3" font-family="sans-serif" font-size="14.00">_view_module_version : Unicode</text>
<polyline fill="none" stroke="black" points="481.5,-581.5 743.5,-581.5 "/>
<text text-anchor="middle" x="612.5" y="-566.3" font-family="sans-serif" font-size="14.00"> </text>
</g>
<!-- 6&#45;&gt;8 -->
<g id="edge6" class="edge">
<title>6&#45;&gt;8</title>
<path fill="none" stroke="black" d="M612.5,-521.59C612.5,-530.6 612.5,-539.66 612.5,-548.4"/>
<polygon fill="none" stroke="black" points="609,-548.49 612.5,-558.49 616,-548.49 609,-548.49"/>
</g>
<!-- 7&#45;&gt;6 -->
<g id="edge7" class="edge">
<title>7&#45;&gt;6</title>
<path fill="none" stroke="black" d="M766.9,-303.32C752.49,-315.47 737.34,-328.25 722.39,-340.85"/>
<polygon fill="none" stroke="black" points="719.99,-338.3 714.6,-347.42 724.5,-343.65 719.99,-338.3"/>
</g>
<!-- 8&#45;&gt;3 -->
<g id="edge8" class="edge">
<title>8&#45;&gt;3</title>
<path fill="none" stroke="black" d="M612.5,-672.67C612.5,-680.84 612.5,-689.73 612.5,-699.24"/>
<polygon fill="none" stroke="black" points="609,-699.36 612.5,-709.36 616,-699.36 609,-699.36"/>
</g>
</g>
</svg>
