<?xml version="1.0" encoding="UTF-8" standalone="no"?>
<!DOCTYPE svg PUBLIC "-//W3C//DTD SVG 1.1//EN"
 "http://www.w3.org/Graphics/SVG/1.1/DTD/svg11.dtd">
<!-- Generated by graphviz version 2.42.3 (20191010.1750)
 -->
<!-- Title: classes_yaml Pages: 1 -->
<svg width="1566pt" height="2607pt"
 viewBox="0.00 0.00 1565.50 2607.00" xmlns="http://www.w3.org/2000/svg" xmlns:xlink="http://www.w3.org/1999/xlink">
<g id="graph0" class="graph" transform="scale(1 1) rotate(0) translate(4 2603)">
<title>classes_yaml</title>
<polygon fill="white" stroke="transparent" points="-4,4 -4,-2603 1561.5,-2603 1561.5,4 -4,4"/>
<!-- 0 -->
<g id="node1" class="node">
<title>0</title>
<polygon fill="none" stroke="black" points="0,-295 0,-409 738,-409 738,-295 0,-295"/>
<text text-anchor="middle" x="369" y="-393.8" font-family="sans-serif" font-size="14.00">/home/runner/work/wxyz/wxyz/envs/_base/lib/python3.8/site&#45;packages/wxyz/yaml/base.py.YAMLBase</text>
<polyline fill="none" stroke="black" points="0,-386 738,-386 "/>
<text text-anchor="start" x="8" y="-370.8" font-family="sans-serif" font-size="14.00">_model_module : Unicode</text>
<text text-anchor="start" x="8" y="-355.8" font-family="sans-serif" font-size="14.00">_model_module_version : Unicode</text>
<text text-anchor="start" x="8" y="-340.8" font-family="sans-serif" font-size="14.00">_view_module : Unicode</text>
<text text-anchor="start" x="8" y="-325.8" font-family="sans-serif" font-size="14.00">_view_module_version : Unicode</text>
<polyline fill="none" stroke="black" points="0,-318 738,-318 "/>
<text text-anchor="middle" x="369" y="-302.8" font-family="sans-serif" font-size="14.00"> </text>
</g>
<!-- 7 -->
<g id="node8" class="node">
<title>7</title>
<polygon fill="none" stroke="black" points="474,-468.5 474,-642.5 736,-642.5 736,-468.5 474,-468.5"/>
<text text-anchor="middle" x="605" y="-627.3" font-family="sans-serif" font-size="14.00">wxyz.core.base.Base</text>
<polyline fill="none" stroke="black" points="474,-619.5 736,-619.5 "/>
<text text-anchor="start" x="482" y="-604.3" font-family="sans-serif" font-size="14.00">_model_module : Unicode</text>
<text text-anchor="start" x="482" y="-589.3" font-family="sans-serif" font-size="14.00">_model_module_version : Unicode</text>
<text text-anchor="start" x="482" y="-574.3" font-family="sans-serif" font-size="14.00">_view_module : Unicode</text>
<text text-anchor="start" x="482" y="-559.3" font-family="sans-serif" font-size="14.00">_view_module_version : Unicode</text>
<text text-anchor="start" x="482" y="-544.3" font-family="sans-serif" font-size="14.00">closable : Bool</text>
<text text-anchor="start" x="482" y="-529.3" font-family="sans-serif" font-size="14.00">description : Unicode</text>
<text text-anchor="start" x="482" y="-514.3" font-family="sans-serif" font-size="14.00">error : CUnicode</text>
<text text-anchor="start" x="482" y="-499.3" font-family="sans-serif" font-size="14.00">icon_class : Unicode</text>
<polyline fill="none" stroke="black" points="474,-491.5 736,-491.5 "/>
<text text-anchor="middle" x="605" y="-476.3" font-family="sans-serif" font-size="14.00"> </text>
</g>
<!-- 0&#45;&gt;7 -->
<g id="edge1" class="edge">
<title>0&#45;&gt;7</title>
<path fill="none" stroke="black" d="M434.74,-409.13C453.81,-425.41 475.16,-443.64 496.13,-461.54"/>
<polygon fill="none" stroke="black" points="493.95,-464.29 503.83,-468.12 498.5,-458.97 493.95,-464.29"/>
</g>
<!-- 1 -->
<g id="node2" class="node">
<title>1</title>
<polygon fill="none" stroke="black" points="778.5,-0.5 778.5,-69.5 1557.5,-69.5 1557.5,-0.5 778.5,-0.5"/>
<text text-anchor="middle" x="1168" y="-54.3" font-family="sans-serif" font-size="14.00">/home/runner/work/wxyz/wxyz/envs/_base/lib/python3.8/site&#45;packages/wxyz/yaml/widget_yaml.py.UnYAML</text>
<polyline fill="none" stroke="black" points="778.5,-46.5 1557.5,-46.5 "/>
<text text-anchor="start" x="786.5" y="-31.3" font-family="sans-serif" font-size="14.00">_model_name</text>
<polyline fill="none" stroke="black" points="778.5,-23.5 1557.5,-23.5 "/>
<text text-anchor="start" x="786.5" y="-8.3" font-family="sans-serif" font-size="14.00">the_function(source, indent)</text>
</g>
<!-- 11 -->
<g id="node12" class="node">
<title>11</title>
<polygon fill="none" stroke="black" points="913.5,-106.5 913.5,-235.5 1150.5,-235.5 1150.5,-106.5 913.5,-106.5"/>
<text text-anchor="middle" x="1032" y="-220.3" font-family="sans-serif" font-size="14.00">wxyz.core.widget_json.UnJSON</text>
<polyline fill="none" stroke="black" points="913.5,-212.5 1150.5,-212.5 "/>
<text text-anchor="start" x="921.5" y="-197.3" font-family="sans-serif" font-size="14.00">_model_name : Unicode</text>
<text text-anchor="start" x="921.5" y="-182.3" font-family="sans-serif" font-size="14.00">_observed_traits : list</text>
<text text-anchor="start" x="921.5" y="-167.3" font-family="sans-serif" font-size="14.00">indent : Int</text>
<text text-anchor="start" x="921.5" y="-152.3" font-family="sans-serif" font-size="14.00">source : Union</text>
<text text-anchor="start" x="921.5" y="-137.3" font-family="sans-serif" font-size="14.00">value : Unicode</text>
<polyline fill="none" stroke="black" points="913.5,-129.5 1150.5,-129.5 "/>
<text text-anchor="start" x="921.5" y="-114.3" font-family="sans-serif" font-size="14.00">the_function(source, indent)</text>
</g>
<!-- 1&#45;&gt;11 -->
<g id="edge2" class="edge">
<title>1&#45;&gt;11</title>
<path fill="none" stroke="black" d="M1133.68,-69.81C1124.47,-78.89 1114.17,-89.04 1103.74,-99.32"/>
<polygon fill="none" stroke="black" points="1101.18,-96.92 1096.52,-106.43 1106.09,-101.91 1101.18,-96.92"/>
</g>
<!-- 2 -->
<g id="node3" class="node">
<title>2</title>
<polygon fill="none" stroke="black" points="1.5,-0.5 1.5,-69.5 760.5,-69.5 760.5,-0.5 1.5,-0.5"/>
<text text-anchor="middle" x="381" y="-54.3" font-family="sans-serif" font-size="14.00">/home/runner/work/wxyz/wxyz/envs/_base/lib/python3.8/site&#45;packages/wxyz/yaml/widget_yaml.py.YAML</text>
<polyline fill="none" stroke="black" points="1.5,-46.5 760.5,-46.5 "/>
<text text-anchor="start" x="9.5" y="-31.3" font-family="sans-serif" font-size="14.00">_model_name</text>
<polyline fill="none" stroke="black" points="1.5,-23.5 760.5,-23.5 "/>
<text text-anchor="start" x="9.5" y="-8.3" font-family="sans-serif" font-size="14.00">the_function(source)</text>
</g>
<!-- 10 -->
<g id="node11" class="node">
<title>10</title>
<polygon fill="none" stroke="black" points="542,-129 542,-213 760,-213 760,-129 542,-129"/>
<text text-anchor="middle" x="651" y="-197.8" font-family="sans-serif" font-size="14.00">wxyz.core.widget_json.JSON</text>
<polyline fill="none" stroke="black" points="542,-190 760,-190 "/>
<text text-anchor="start" x="550" y="-174.8" font-family="sans-serif" font-size="14.00">_model_name : Unicode</text>
<text text-anchor="start" x="550" y="-159.8" font-family="sans-serif" font-size="14.00">value : Union</text>
<polyline fill="none" stroke="black" points="542,-152 760,-152 "/>
<text text-anchor="start" x="550" y="-136.8" font-family="sans-serif" font-size="14.00">the_function(source)</text>
</g>
<!-- 2&#45;&gt;10 -->
<g id="edge3" class="edge">
<title>2&#45;&gt;10</title>
<path fill="none" stroke="black" d="M448.78,-69.64C482.19,-86.22 522.98,-106.46 559.14,-124.41"/>
<polygon fill="none" stroke="black" points="557.72,-127.61 568.23,-128.92 560.83,-121.34 557.72,-127.61"/>
</g>
<!-- 3 -->
<g id="node4" class="node">
<title>3</title>
<polygon fill="none" stroke="black" points="439,-1791.5 439,-1860.5 771,-1860.5 771,-1791.5 439,-1791.5"/>
<text text-anchor="middle" x="605" y="-1845.3" font-family="sans-serif" font-size="14.00">ipywidgets.widgets.widget.LoggingHasTraits</text>
<polyline fill="none" stroke="black" points="439,-1837.5 771,-1837.5 "/>
<text text-anchor="start" x="447" y="-1822.3" font-family="sans-serif" font-size="14.00">log : Instance</text>
<polyline fill="none" stroke="black" points="439,-1814.5 771,-1814.5 "/>
<text text-anchor="start" x="447" y="-1799.3" font-family="sans-serif" font-size="14.00">_log_default()</text>
</g>
<!-- 6 -->
<g id="node7" class="node">
<title>6</title>
<polygon fill="none" stroke="black" points="447,-1897.5 447,-2476.5 763,-2476.5 763,-1897.5 447,-1897.5"/>
<text text-anchor="middle" x="605" y="-2461.3" font-family="sans-serif" font-size="14.00">traitlets.traitlets.HasTraits</text>
<polyline fill="none" stroke="black" points="447,-2453.5 763,-2453.5 "/>
<text text-anchor="start" x="455" y="-2438.3" font-family="sans-serif" font-size="14.00">__class__</text>
<text text-anchor="start" x="455" y="-2423.3" font-family="sans-serif" font-size="14.00">__dict__</text>
<text text-anchor="start" x="455" y="-2408.3" font-family="sans-serif" font-size="14.00">_cross_validation_lock : bool</text>
<text text-anchor="start" x="455" y="-2393.3" font-family="sans-serif" font-size="14.00">_trait_notifiers : dict</text>
<text text-anchor="start" x="455" y="-2378.3" font-family="sans-serif" font-size="14.00">cross_validation_lock</text>
<text text-anchor="start" x="455" y="-2363.3" font-family="sans-serif" font-size="14.00">notify_change</text>
<polyline fill="none" stroke="black" points="447,-2355.5 763,-2355.5 "/>
<text text-anchor="start" x="455" y="-2340.3" font-family="sans-serif" font-size="14.00">__getstate__()</text>
<text text-anchor="start" x="455" y="-2325.3" font-family="sans-serif" font-size="14.00">__init__()</text>
<text text-anchor="start" x="455" y="-2310.3" font-family="sans-serif" font-size="14.00">__setstate__(state)</text>
<text text-anchor="start" x="455" y="-2295.3" font-family="sans-serif" font-size="14.00">_add_notifiers(handler, name, type)</text>
<text text-anchor="start" x="455" y="-2280.3" font-family="sans-serif" font-size="14.00">_get_trait_default_generator(name)</text>
<text text-anchor="start" x="455" y="-2265.3" font-family="sans-serif" font-size="14.00">_notify_observers(event)</text>
<text text-anchor="start" x="455" y="-2250.3" font-family="sans-serif" font-size="14.00">_notify_trait(name, old_value, new_value)</text>
<text text-anchor="start" x="455" y="-2235.3" font-family="sans-serif" font-size="14.00">_register_validator(handler, names)</text>
<text text-anchor="start" x="455" y="-2220.3" font-family="sans-serif" font-size="14.00">_remove_notifiers(handler, name, type)</text>
<text text-anchor="start" x="455" y="-2205.3" font-family="sans-serif" font-size="14.00">add_traits()</text>
<text text-anchor="start" x="455" y="-2190.3" font-family="sans-serif" font-size="14.00">class_own_trait_events(cls, name)</text>
<text text-anchor="start" x="455" y="-2175.3" font-family="sans-serif" font-size="14.00">class_own_traits(cls)</text>
<text text-anchor="start" x="455" y="-2160.3" font-family="sans-serif" font-size="14.00">class_trait_names(cls)</text>
<text text-anchor="start" x="455" y="-2145.3" font-family="sans-serif" font-size="14.00">class_traits(cls)</text>
<text text-anchor="start" x="455" y="-2130.3" font-family="sans-serif" font-size="14.00">has_trait(name)</text>
<text text-anchor="start" x="455" y="-2115.3" font-family="sans-serif" font-size="14.00">hold_trait_notifications()</text>
<text text-anchor="start" x="455" y="-2100.3" font-family="sans-serif" font-size="14.00">notify_change(change)</text>
<text text-anchor="start" x="455" y="-2085.3" font-family="sans-serif" font-size="14.00">observe(handler, names, type)</text>
<text text-anchor="start" x="455" y="-2070.3" font-family="sans-serif" font-size="14.00">on_trait_change(handler, name, remove)</text>
<text text-anchor="start" x="455" y="-2055.3" font-family="sans-serif" font-size="14.00">set_trait(name, value)</text>
<text text-anchor="start" x="455" y="-2040.3" font-family="sans-serif" font-size="14.00">setup_instance()</text>
<text text-anchor="start" x="455" y="-2025.3" font-family="sans-serif" font-size="14.00">trait_defaults()</text>
<text text-anchor="start" x="455" y="-2010.3" font-family="sans-serif" font-size="14.00">trait_events(cls, name)</text>
<text text-anchor="start" x="455" y="-1995.3" font-family="sans-serif" font-size="14.00">trait_has_value(name)</text>
<text text-anchor="start" x="455" y="-1980.3" font-family="sans-serif" font-size="14.00">trait_metadata(traitname, key, default)</text>
<text text-anchor="start" x="455" y="-1965.3" font-family="sans-serif" font-size="14.00">trait_names()</text>
<text text-anchor="start" x="455" y="-1950.3" font-family="sans-serif" font-size="14.00">trait_values()</text>
<text text-anchor="start" x="455" y="-1935.3" font-family="sans-serif" font-size="14.00">traits()</text>
<text text-anchor="start" x="455" y="-1920.3" font-family="sans-serif" font-size="14.00">unobserve(handler, names, type)</text>
<text text-anchor="start" x="455" y="-1905.3" font-family="sans-serif" font-size="14.00">unobserve_all(name)</text>
</g>
<!-- 3&#45;&gt;6 -->
<g id="edge4" class="edge">
<title>3&#45;&gt;6</title>
<path fill="none" stroke="black" d="M605,-1860.77C605,-1868.56 605,-1877.46 605,-1887.23"/>
<polygon fill="none" stroke="black" points="601.5,-1887.27 605,-1897.27 608.5,-1887.27 601.5,-1887.27"/>
</g>
<!-- 4 -->
<g id="node5" class="node">
<title>4</title>
<polygon fill="none" stroke="black" points="440.5,-830.5 440.5,-1754.5 769.5,-1754.5 769.5,-830.5 440.5,-830.5"/>
<text text-anchor="middle" x="605" y="-1739.3" font-family="sans-serif" font-size="14.00">ipywidgets.widgets.widget.Widget</text>
<polyline fill="none" stroke="black" points="440.5,-1731.5 769.5,-1731.5 "/>
<text text-anchor="start" x="448.5" y="-1716.3" font-family="sans-serif" font-size="14.00">_display_callbacks : Instance</text>
<text text-anchor="start" x="448.5" y="-1701.3" font-family="sans-serif" font-size="14.00">_holding_sync : bool</text>
<text text-anchor="start" x="448.5" y="-1686.3" font-family="sans-serif" font-size="14.00">_holding_sync : bool</text>
<text text-anchor="start" x="448.5" y="-1671.3" font-family="sans-serif" font-size="14.00">_ipython_display_ : NoneType</text>
<text text-anchor="start" x="448.5" y="-1656.3" font-family="sans-serif" font-size="14.00">_model_id</text>
<text text-anchor="start" x="448.5" y="-1641.3" font-family="sans-serif" font-size="14.00">_model_module : Unicode</text>
<text text-anchor="start" x="448.5" y="-1626.3" font-family="sans-serif" font-size="14.00">_model_module_version : Unicode</text>
<text text-anchor="start" x="448.5" y="-1611.3" font-family="sans-serif" font-size="14.00">_model_name : Unicode</text>
<text text-anchor="start" x="448.5" y="-1596.3" font-family="sans-serif" font-size="14.00">_msg_callbacks : Instance</text>
<text text-anchor="start" x="448.5" y="-1581.3" font-family="sans-serif" font-size="14.00">_property_lock : Dict</text>
<text text-anchor="start" x="448.5" y="-1566.3" font-family="sans-serif" font-size="14.00">_property_lock : dict</text>
<text text-anchor="start" x="448.5" y="-1551.3" font-family="sans-serif" font-size="14.00">_states_to_send : Set</text>
<text text-anchor="start" x="448.5" y="-1536.3" font-family="sans-serif" font-size="14.00">_view_count : Int</text>
<text text-anchor="start" x="448.5" y="-1521.3" font-family="sans-serif" font-size="14.00">_view_module : Unicode</text>
<text text-anchor="start" x="448.5" y="-1506.3" font-family="sans-serif" font-size="14.00">_view_module_version : Unicode</text>
<text text-anchor="start" x="448.5" y="-1491.3" font-family="sans-serif" font-size="14.00">_view_name : Unicode</text>
<text text-anchor="start" x="448.5" y="-1476.3" font-family="sans-serif" font-size="14.00">_widget_construction_callback : NoneType</text>
<text text-anchor="start" x="448.5" y="-1461.3" font-family="sans-serif" font-size="14.00">comm : Comm, NoneType</text>
<text text-anchor="start" x="448.5" y="-1446.3" font-family="sans-serif" font-size="14.00">comm : Instance</text>
<text text-anchor="start" x="448.5" y="-1431.3" font-family="sans-serif" font-size="14.00">keys : List</text>
<text text-anchor="start" x="448.5" y="-1416.3" font-family="sans-serif" font-size="14.00">model_id</text>
<text text-anchor="start" x="448.5" y="-1401.3" font-family="sans-serif" font-size="14.00">widget_types : WidgetRegistry</text>
<text text-anchor="start" x="448.5" y="-1386.3" font-family="sans-serif" font-size="14.00">widgets : dict</text>
<polyline fill="none" stroke="black" points="440.5,-1378.5 769.5,-1378.5 "/>
<text text-anchor="start" x="448.5" y="-1363.3" font-family="sans-serif" font-size="14.00">__del__()</text>
<text text-anchor="start" x="448.5" y="-1348.3" font-family="sans-serif" font-size="14.00">__init__()</text>
<text text-anchor="start" x="448.5" y="-1333.3" font-family="sans-serif" font-size="14.00">__repr__()</text>
<text text-anchor="start" x="448.5" y="-1318.3" font-family="sans-serif" font-size="14.00">_call_widget_constructed(widget)</text>
<text text-anchor="start" x="448.5" y="-1303.3" font-family="sans-serif" font-size="14.00">_comm_changed(change)</text>
<text text-anchor="start" x="448.5" y="-1288.3" font-family="sans-serif" font-size="14.00">_compare(a, b)</text>
<text text-anchor="start" x="448.5" y="-1273.3" font-family="sans-serif" font-size="14.00">_default_keys()</text>
<text text-anchor="start" x="448.5" y="-1258.3" font-family="sans-serif" font-size="14.00">_gen_repr_from_keys(keys)</text>
<text text-anchor="start" x="448.5" y="-1243.3" font-family="sans-serif" font-size="14.00">_get_embed_state(drop_defaults)</text>
<text text-anchor="start" x="448.5" y="-1228.3" font-family="sans-serif" font-size="14.00">_handle_custom_msg(content, buffers)</text>
<text text-anchor="start" x="448.5" y="-1213.3" font-family="sans-serif" font-size="14.00">_handle_displayed()</text>
<text text-anchor="start" x="448.5" y="-1198.3" font-family="sans-serif" font-size="14.00">_handle_msg(msg)</text>
<text text-anchor="start" x="448.5" y="-1183.3" font-family="sans-serif" font-size="14.00">_ipython_display_()</text>
<text text-anchor="start" x="448.5" y="-1168.3" font-family="sans-serif" font-size="14.00">_is_numpy(x)</text>
<text text-anchor="start" x="448.5" y="-1153.3" font-family="sans-serif" font-size="14.00">_lock_property()</text>
<text text-anchor="start" x="448.5" y="-1138.3" font-family="sans-serif" font-size="14.00">_repr_keys()</text>
<text text-anchor="start" x="448.5" y="-1123.3" font-family="sans-serif" font-size="14.00">_send(msg, buffers)</text>
<text text-anchor="start" x="448.5" y="-1108.3" font-family="sans-serif" font-size="14.00">_should_send_property(key, value)</text>
<text text-anchor="start" x="448.5" y="-1093.3" font-family="sans-serif" font-size="14.00">_trait_from_json(x)</text>
<text text-anchor="start" x="448.5" y="-1078.3" font-family="sans-serif" font-size="14.00">_trait_to_json(x)</text>
<text text-anchor="start" x="448.5" y="-1063.3" font-family="sans-serif" font-size="14.00">add_traits()</text>
<text text-anchor="start" x="448.5" y="-1048.3" font-family="sans-serif" font-size="14.00">close()</text>
<text text-anchor="start" x="448.5" y="-1033.3" font-family="sans-serif" font-size="14.00">close_all(cls)</text>
<text text-anchor="start" x="448.5" y="-1018.3" font-family="sans-serif" font-size="14.00">get_manager_state(drop_defaults, widgets)</text>
<text text-anchor="start" x="448.5" y="-1003.3" font-family="sans-serif" font-size="14.00">get_state(key, drop_defaults)</text>
<text text-anchor="start" x="448.5" y="-988.3" font-family="sans-serif" font-size="14.00">get_view_spec()</text>
<text text-anchor="start" x="448.5" y="-973.3" font-family="sans-serif" font-size="14.00">handle_comm_opened(comm, msg)</text>
<text text-anchor="start" x="448.5" y="-958.3" font-family="sans-serif" font-size="14.00">hold_sync()</text>
<text text-anchor="start" x="448.5" y="-943.3" font-family="sans-serif" font-size="14.00">notify_change(change)</text>
<text text-anchor="start" x="448.5" y="-928.3" font-family="sans-serif" font-size="14.00">on_displayed(callback, remove)</text>
<text text-anchor="start" x="448.5" y="-913.3" font-family="sans-serif" font-size="14.00">on_msg(callback, remove)</text>
<text text-anchor="start" x="448.5" y="-898.3" font-family="sans-serif" font-size="14.00">on_widget_constructed(callback)</text>
<text text-anchor="start" x="448.5" y="-883.3" font-family="sans-serif" font-size="14.00">open()</text>
<text text-anchor="start" x="448.5" y="-868.3" font-family="sans-serif" font-size="14.00">send(content, buffers)</text>
<text text-anchor="start" x="448.5" y="-853.3" font-family="sans-serif" font-size="14.00">send_state(key)</text>
<text text-anchor="start" x="448.5" y="-838.3" font-family="sans-serif" font-size="14.00">set_state(sync_data)</text>
</g>
<!-- 4&#45;&gt;3 -->
<g id="edge5" class="edge">
<title>4&#45;&gt;3</title>
<path fill="none" stroke="black" d="M605,-1754.7C605,-1764.32 605,-1773.18 605,-1781.13"/>
<polygon fill="none" stroke="black" points="601.5,-1781.4 605,-1791.4 608.5,-1781.4 601.5,-1781.4"/>
</g>
<!-- 5 -->
<g id="node6" class="node">
<title>5</title>
<polygon fill="none" stroke="black" points="483,-2513.5 483,-2598.5 727,-2598.5 727,-2513.5 483,-2513.5"/>
<text text-anchor="middle" x="605" y="-2583.3" font-family="sans-serif" font-size="14.00">traitlets.traitlets.HasDescriptors</text>
<polyline fill="none" stroke="black" points="483,-2575.5 727,-2575.5 "/>
<polyline fill="none" stroke="black" points="483,-2551.5 727,-2551.5 "/>
<text text-anchor="start" x="491" y="-2536.3" font-family="sans-serif" font-size="14.00">__new__()</text>
<text text-anchor="start" x="491" y="-2521.3" font-family="sans-serif" font-size="14.00">setup_instance()</text>
</g>
<!-- 6&#45;&gt;5 -->
<g id="edge6" class="edge">
<title>6&#45;&gt;5</title>
<path fill="none" stroke="black" d="M605,-2476.72C605,-2486.16 605,-2495.03 605,-2503.18"/>
<polygon fill="none" stroke="black" points="601.5,-2503.45 605,-2513.45 608.5,-2503.45 601.5,-2503.45"/>
</g>
<!-- 9 -->
<g id="node10" class="node">
<title>9</title>
<polygon fill="none" stroke="black" points="474,-679.5 474,-793.5 736,-793.5 736,-679.5 474,-679.5"/>
<text text-anchor="middle" x="605" y="-778.3" font-family="sans-serif" font-size="14.00">wxyz.core.base.WXYZBase</text>
<polyline fill="none" stroke="black" points="474,-770.5 736,-770.5 "/>
<text text-anchor="start" x="482" y="-755.3" font-family="sans-serif" font-size="14.00">_model_module : Unicode</text>
<text text-anchor="start" x="482" y="-740.3" font-family="sans-serif" font-size="14.00">_model_module_version : Unicode</text>
<text text-anchor="start" x="482" y="-725.3" font-family="sans-serif" font-size="14.00">_view_module : Unicode</text>
<text text-anchor="start" x="482" y="-710.3" font-family="sans-serif" font-size="14.00">_view_module_version : Unicode</text>
<polyline fill="none" stroke="black" points="474,-702.5 736,-702.5 "/>
<text text-anchor="middle" x="605" y="-687.3" font-family="sans-serif" font-size="14.00"> </text>
</g>
<!-- 7&#45;&gt;9 -->
<g id="edge7" class="edge">
<title>7&#45;&gt;9</title>
<path fill="none" stroke="black" d="M605,-642.59C605,-651.6 605,-660.66 605,-669.4"/>
<polygon fill="none" stroke="black" points="601.5,-669.49 605,-679.49 608.5,-669.49 601.5,-669.49"/>
</g>
<!-- 8 -->
<g id="node9" class="node">
<title>8</title>
<polygon fill="none" stroke="black" points="756.5,-272.5 756.5,-431.5 925.5,-431.5 925.5,-272.5 756.5,-272.5"/>
<text text-anchor="middle" x="841" y="-416.3" font-family="sans-serif" font-size="14.00">wxyz.core.base.Fn</text>
<polyline fill="none" stroke="black" points="756.5,-408.5 925.5,-408.5 "/>
<text text-anchor="start" x="764.5" y="-393.3" font-family="sans-serif" font-size="14.00">_observed_traits : list</text>
<text text-anchor="start" x="764.5" y="-378.3" font-family="sans-serif" font-size="14.00">error : str</text>
<text text-anchor="start" x="764.5" y="-363.3" font-family="sans-serif" font-size="14.00">mode : Enum</text>
<text text-anchor="start" x="764.5" y="-348.3" font-family="sans-serif" font-size="14.00">source : Any</text>
<text text-anchor="start" x="764.5" y="-333.3" font-family="sans-serif" font-size="14.00">value : Any</text>
<text text-anchor="start" x="764.5" y="-318.3" font-family="sans-serif" font-size="14.00">value : NoneType</text>
<polyline fill="none" stroke="black" points="756.5,-310.5 925.5,-310.5 "/>
<text text-anchor="start" x="764.5" y="-295.3" font-family="sans-serif" font-size="14.00">__init__()</text>
<text text-anchor="start" x="764.5" y="-280.3" font-family="sans-serif" font-size="14.00">the_observer()</text>
</g>
<!-- 8&#45;&gt;7 -->
<g id="edge8" class="edge">
<title>8&#45;&gt;7</title>
<path fill="none" stroke="black" d="M756.47,-425.18C742.63,-436.99 728.12,-449.38 713.8,-461.61"/>
<polygon fill="none" stroke="black" points="711.19,-459.23 705.86,-468.38 715.74,-464.55 711.19,-459.23"/>
</g>
<!-- 9&#45;&gt;4 -->
<g id="edge9" class="edge">
<title>9&#45;&gt;4</title>
<path fill="none" stroke="black" d="M605,-793.67C605,-801.84 605,-810.73 605,-820.24"/>
<polygon fill="none" stroke="black" points="601.5,-820.36 605,-830.36 608.5,-820.36 601.5,-820.36"/>
</g>
<!-- 10&#45;&gt;8 -->
<g id="edge10" class="edge">
<title>10&#45;&gt;8</title>
<path fill="none" stroke="black" d="M694.59,-213.07C711.2,-228.72 730.82,-247.2 750.2,-265.45"/>
<polygon fill="none" stroke="black" points="747.93,-268.12 757.61,-272.43 752.73,-263.03 747.93,-268.12"/>
</g>
<!-- 11&#45;&gt;8 -->
<g id="edge11" class="edge">
<title>11&#45;&gt;8</title>
<path fill="none" stroke="black" d="M964.12,-235.61C953.84,-245.25 943.1,-255.32 932.42,-265.33"/>
<polygon fill="none" stroke="black" points="929.94,-262.85 925.04,-272.24 934.73,-267.96 929.94,-262.85"/>
</g>
</g>
</svg>
