<?xml version="1.0" encoding="UTF-8" standalone="no"?>
<!DOCTYPE svg PUBLIC "-//W3C//DTD SVG 1.1//EN"
 "http://www.w3.org/Graphics/SVG/1.1/DTD/svg11.dtd">
<!-- Generated by graphviz version 2.42.3 (20191010.1750)
 -->
<!-- Title: classes_json_e Pages: 1 -->
<svg width="1255pt" height="2501pt"
 viewBox="0.00 0.00 1255.00 2501.00" xmlns="http://www.w3.org/2000/svg" xmlns:xlink="http://www.w3.org/1999/xlink">
<g id="graph0" class="graph" transform="scale(1 1) rotate(0) translate(4 2497)">
<title>classes_json_e</title>
<polygon fill="white" stroke="transparent" points="-4,4 -4,-2497 1251,-2497 1251,4 -4,4"/>
<!-- 0 -->
<g id="node1" class="node">
<title>0</title>
<polygon fill="none" stroke="black" points="0,-189 0,-303 755,-303 755,-189 0,-189"/>
<text text-anchor="middle" x="377.5" y="-287.8" font-family="sans-serif" font-size="14.00">/home/runner/work/wxyz/wxyz/envs/_base/lib/python3.8/site&#45;packages/wxyz/json_e/base.py.JSONEBase</text>
<polyline fill="none" stroke="black" points="0,-280 755,-280 "/>
<text text-anchor="start" x="8" y="-264.8" font-family="sans-serif" font-size="14.00">_model_module : Unicode</text>
<text text-anchor="start" x="8" y="-249.8" font-family="sans-serif" font-size="14.00">_model_module_version : Unicode</text>
<text text-anchor="start" x="8" y="-234.8" font-family="sans-serif" font-size="14.00">_view_module : Unicode</text>
<text text-anchor="start" x="8" y="-219.8" font-family="sans-serif" font-size="14.00">_view_module_version : Unicode</text>
<polyline fill="none" stroke="black" points="0,-212 755,-212 "/>
<text text-anchor="middle" x="377.5" y="-196.8" font-family="sans-serif" font-size="14.00"> </text>
</g>
<!-- 6 -->
<g id="node7" class="node">
<title>6</title>
<polygon fill="none" stroke="black" points="486.5,-362.5 486.5,-536.5 748.5,-536.5 748.5,-362.5 486.5,-362.5"/>
<text text-anchor="middle" x="617.5" y="-521.3" font-family="sans-serif" font-size="14.00">wxyz.core.base.Base</text>
<polyline fill="none" stroke="black" points="486.5,-513.5 748.5,-513.5 "/>
<text text-anchor="start" x="494.5" y="-498.3" font-family="sans-serif" font-size="14.00">_model_module : Unicode</text>
<text text-anchor="start" x="494.5" y="-483.3" font-family="sans-serif" font-size="14.00">_model_module_version : Unicode</text>
<text text-anchor="start" x="494.5" y="-468.3" font-family="sans-serif" font-size="14.00">_view_module : Unicode</text>
<text text-anchor="start" x="494.5" y="-453.3" font-family="sans-serif" font-size="14.00">_view_module_version : Unicode</text>
<text text-anchor="start" x="494.5" y="-438.3" font-family="sans-serif" font-size="14.00">closable : Bool</text>
<text text-anchor="start" x="494.5" y="-423.3" font-family="sans-serif" font-size="14.00">description : Unicode</text>
<text text-anchor="start" x="494.5" y="-408.3" font-family="sans-serif" font-size="14.00">error : CUnicode</text>
<text text-anchor="start" x="494.5" y="-393.3" font-family="sans-serif" font-size="14.00">icon_class : Unicode</text>
<polyline fill="none" stroke="black" points="486.5,-385.5 748.5,-385.5 "/>
<text text-anchor="middle" x="617.5" y="-370.3" font-family="sans-serif" font-size="14.00"> </text>
</g>
<!-- 0&#45;&gt;6 -->
<g id="edge1" class="edge">
<title>0&#45;&gt;6</title>
<path fill="none" stroke="black" d="M444.35,-303.13C463.75,-319.41 485.46,-337.64 506.78,-355.54"/>
<polygon fill="none" stroke="black" points="504.71,-358.37 514.62,-362.12 509.21,-353.01 504.71,-358.37"/>
</g>
<!-- 1 -->
<g id="node2" class="node">
<title>1</title>
<polygon fill="none" stroke="black" points="468,-0.5 468,-129.5 1247,-129.5 1247,-0.5 468,-0.5"/>
<text text-anchor="middle" x="857.5" y="-114.3" font-family="sans-serif" font-size="14.00">/home/runner/work/wxyz/wxyz/envs/_base/lib/python3.8/site&#45;packages/wxyz/json_e/widget_jsone.py.JSONE</text>
<polyline fill="none" stroke="black" points="468,-106.5 1247,-106.5 "/>
<text text-anchor="start" x="476" y="-91.3" font-family="sans-serif" font-size="14.00">_model_name : Unicode</text>
<text text-anchor="start" x="476" y="-76.3" font-family="sans-serif" font-size="14.00">_observed_traits : list</text>
<text text-anchor="start" x="476" y="-61.3" font-family="sans-serif" font-size="14.00">context : Any</text>
<text text-anchor="start" x="476" y="-46.3" font-family="sans-serif" font-size="14.00">source : Any</text>
<text text-anchor="start" x="476" y="-31.3" font-family="sans-serif" font-size="14.00">value : Any</text>
<polyline fill="none" stroke="black" points="468,-23.5 1247,-23.5 "/>
<text text-anchor="start" x="476" y="-8.3" font-family="sans-serif" font-size="14.00">the_function(source, context)</text>
</g>
<!-- 7 -->
<g id="node8" class="node">
<title>7</title>
<polygon fill="none" stroke="black" points="773,-166.5 773,-325.5 942,-325.5 942,-166.5 773,-166.5"/>
<text text-anchor="middle" x="857.5" y="-310.3" font-family="sans-serif" font-size="14.00">wxyz.core.base.Fn</text>
<polyline fill="none" stroke="black" points="773,-302.5 942,-302.5 "/>
<text text-anchor="start" x="781" y="-287.3" font-family="sans-serif" font-size="14.00">_observed_traits : list</text>
<text text-anchor="start" x="781" y="-272.3" font-family="sans-serif" font-size="14.00">error : str</text>
<text text-anchor="start" x="781" y="-257.3" font-family="sans-serif" font-size="14.00">mode : Enum</text>
<text text-anchor="start" x="781" y="-242.3" font-family="sans-serif" font-size="14.00">source : Any</text>
<text text-anchor="start" x="781" y="-227.3" font-family="sans-serif" font-size="14.00">value : Any</text>
<text text-anchor="start" x="781" y="-212.3" font-family="sans-serif" font-size="14.00">value : NoneType</text>
<polyline fill="none" stroke="black" points="773,-204.5 942,-204.5 "/>
<text text-anchor="start" x="781" y="-189.3" font-family="sans-serif" font-size="14.00">__init__()</text>
<text text-anchor="start" x="781" y="-174.3" font-family="sans-serif" font-size="14.00">the_observer()</text>
</g>
<!-- 1&#45;&gt;7 -->
<g id="edge2" class="edge">
<title>1&#45;&gt;7</title>
<path fill="none" stroke="black" d="M857.5,-129.61C857.5,-138.23 857.5,-147.19 857.5,-156.15"/>
<polygon fill="none" stroke="black" points="854,-156.24 857.5,-166.24 861,-156.24 854,-156.24"/>
</g>
<!-- 2 -->
<g id="node3" class="node">
<title>2</title>
<polygon fill="none" stroke="black" points="451.5,-1685.5 451.5,-1754.5 783.5,-1754.5 783.5,-1685.5 451.5,-1685.5"/>
<text text-anchor="middle" x="617.5" y="-1739.3" font-family="sans-serif" font-size="14.00">ipywidgets.widgets.widget.LoggingHasTraits</text>
<polyline fill="none" stroke="black" points="451.5,-1731.5 783.5,-1731.5 "/>
<text text-anchor="start" x="459.5" y="-1716.3" font-family="sans-serif" font-size="14.00">log : Instance</text>
<polyline fill="none" stroke="black" points="451.5,-1708.5 783.5,-1708.5 "/>
<text text-anchor="start" x="459.5" y="-1693.3" font-family="sans-serif" font-size="14.00">_log_default()</text>
</g>
<!-- 5 -->
<g id="node6" class="node">
<title>5</title>
<polygon fill="none" stroke="black" points="459.5,-1791.5 459.5,-2370.5 775.5,-2370.5 775.5,-1791.5 459.5,-1791.5"/>
<text text-anchor="middle" x="617.5" y="-2355.3" font-family="sans-serif" font-size="14.00">traitlets.traitlets.HasTraits</text>
<polyline fill="none" stroke="black" points="459.5,-2347.5 775.5,-2347.5 "/>
<text text-anchor="start" x="467.5" y="-2332.3" font-family="sans-serif" font-size="14.00">__class__</text>
<text text-anchor="start" x="467.5" y="-2317.3" font-family="sans-serif" font-size="14.00">__dict__</text>
<text text-anchor="start" x="467.5" y="-2302.3" font-family="sans-serif" font-size="14.00">_cross_validation_lock : bool</text>
<text text-anchor="start" x="467.5" y="-2287.3" font-family="sans-serif" font-size="14.00">_trait_notifiers : dict</text>
<text text-anchor="start" x="467.5" y="-2272.3" font-family="sans-serif" font-size="14.00">cross_validation_lock</text>
<text text-anchor="start" x="467.5" y="-2257.3" font-family="sans-serif" font-size="14.00">notify_change</text>
<polyline fill="none" stroke="black" points="459.5,-2249.5 775.5,-2249.5 "/>
<text text-anchor="start" x="467.5" y="-2234.3" font-family="sans-serif" font-size="14.00">__getstate__()</text>
<text text-anchor="start" x="467.5" y="-2219.3" font-family="sans-serif" font-size="14.00">__init__()</text>
<text text-anchor="start" x="467.5" y="-2204.3" font-family="sans-serif" font-size="14.00">__setstate__(state)</text>
<text text-anchor="start" x="467.5" y="-2189.3" font-family="sans-serif" font-size="14.00">_add_notifiers(handler, name, type)</text>
<text text-anchor="start" x="467.5" y="-2174.3" font-family="sans-serif" font-size="14.00">_get_trait_default_generator(name)</text>
<text text-anchor="start" x="467.5" y="-2159.3" font-family="sans-serif" font-size="14.00">_notify_observers(event)</text>
<text text-anchor="start" x="467.5" y="-2144.3" font-family="sans-serif" font-size="14.00">_notify_trait(name, old_value, new_value)</text>
<text text-anchor="start" x="467.5" y="-2129.3" font-family="sans-serif" font-size="14.00">_register_validator(handler, names)</text>
<text text-anchor="start" x="467.5" y="-2114.3" font-family="sans-serif" font-size="14.00">_remove_notifiers(handler, name, type)</text>
<text text-anchor="start" x="467.5" y="-2099.3" font-family="sans-serif" font-size="14.00">add_traits()</text>
<text text-anchor="start" x="467.5" y="-2084.3" font-family="sans-serif" font-size="14.00">class_own_trait_events(cls, name)</text>
<text text-anchor="start" x="467.5" y="-2069.3" font-family="sans-serif" font-size="14.00">class_own_traits(cls)</text>
<text text-anchor="start" x="467.5" y="-2054.3" font-family="sans-serif" font-size="14.00">class_trait_names(cls)</text>
<text text-anchor="start" x="467.5" y="-2039.3" font-family="sans-serif" font-size="14.00">class_traits(cls)</text>
<text text-anchor="start" x="467.5" y="-2024.3" font-family="sans-serif" font-size="14.00">has_trait(name)</text>
<text text-anchor="start" x="467.5" y="-2009.3" font-family="sans-serif" font-size="14.00">hold_trait_notifications()</text>
<text text-anchor="start" x="467.5" y="-1994.3" font-family="sans-serif" font-size="14.00">notify_change(change)</text>
<text text-anchor="start" x="467.5" y="-1979.3" font-family="sans-serif" font-size="14.00">observe(handler, names, type)</text>
<text text-anchor="start" x="467.5" y="-1964.3" font-family="sans-serif" font-size="14.00">on_trait_change(handler, name, remove)</text>
<text text-anchor="start" x="467.5" y="-1949.3" font-family="sans-serif" font-size="14.00">set_trait(name, value)</text>
<text text-anchor="start" x="467.5" y="-1934.3" font-family="sans-serif" font-size="14.00">setup_instance()</text>
<text text-anchor="start" x="467.5" y="-1919.3" font-family="sans-serif" font-size="14.00">trait_defaults()</text>
<text text-anchor="start" x="467.5" y="-1904.3" font-family="sans-serif" font-size="14.00">trait_events(cls, name)</text>
<text text-anchor="start" x="467.5" y="-1889.3" font-family="sans-serif" font-size="14.00">trait_has_value(name)</text>
<text text-anchor="start" x="467.5" y="-1874.3" font-family="sans-serif" font-size="14.00">trait_metadata(traitname, key, default)</text>
<text text-anchor="start" x="467.5" y="-1859.3" font-family="sans-serif" font-size="14.00">trait_names()</text>
<text text-anchor="start" x="467.5" y="-1844.3" font-family="sans-serif" font-size="14.00">trait_values()</text>
<text text-anchor="start" x="467.5" y="-1829.3" font-family="sans-serif" font-size="14.00">traits()</text>
<text text-anchor="start" x="467.5" y="-1814.3" font-family="sans-serif" font-size="14.00">unobserve(handler, names, type)</text>
<text text-anchor="start" x="467.5" y="-1799.3" font-family="sans-serif" font-size="14.00">unobserve_all(name)</text>
</g>
<!-- 2&#45;&gt;5 -->
<g id="edge3" class="edge">
<title>2&#45;&gt;5</title>
<path fill="none" stroke="black" d="M617.5,-1754.77C617.5,-1762.56 617.5,-1771.46 617.5,-1781.23"/>
<polygon fill="none" stroke="black" points="614,-1781.27 617.5,-1791.27 621,-1781.27 614,-1781.27"/>
</g>
<!-- 3 -->
<g id="node4" class="node">
<title>3</title>
<polygon fill="none" stroke="black" points="453,-724.5 453,-1648.5 782,-1648.5 782,-724.5 453,-724.5"/>
<text text-anchor="middle" x="617.5" y="-1633.3" font-family="sans-serif" font-size="14.00">ipywidgets.widgets.widget.Widget</text>
<polyline fill="none" stroke="black" points="453,-1625.5 782,-1625.5 "/>
<text text-anchor="start" x="461" y="-1610.3" font-family="sans-serif" font-size="14.00">_display_callbacks : Instance</text>
<text text-anchor="start" x="461" y="-1595.3" font-family="sans-serif" font-size="14.00">_holding_sync : bool</text>
<text text-anchor="start" x="461" y="-1580.3" font-family="sans-serif" font-size="14.00">_holding_sync : bool</text>
<text text-anchor="start" x="461" y="-1565.3" font-family="sans-serif" font-size="14.00">_ipython_display_ : NoneType</text>
<text text-anchor="start" x="461" y="-1550.3" font-family="sans-serif" font-size="14.00">_model_id</text>
<text text-anchor="start" x="461" y="-1535.3" font-family="sans-serif" font-size="14.00">_model_module : Unicode</text>
<text text-anchor="start" x="461" y="-1520.3" font-family="sans-serif" font-size="14.00">_model_module_version : Unicode</text>
<text text-anchor="start" x="461" y="-1505.3" font-family="sans-serif" font-size="14.00">_model_name : Unicode</text>
<text text-anchor="start" x="461" y="-1490.3" font-family="sans-serif" font-size="14.00">_msg_callbacks : Instance</text>
<text text-anchor="start" x="461" y="-1475.3" font-family="sans-serif" font-size="14.00">_property_lock : Dict</text>
<text text-anchor="start" x="461" y="-1460.3" font-family="sans-serif" font-size="14.00">_property_lock : dict</text>
<text text-anchor="start" x="461" y="-1445.3" font-family="sans-serif" font-size="14.00">_states_to_send : Set</text>
<text text-anchor="start" x="461" y="-1430.3" font-family="sans-serif" font-size="14.00">_view_count : Int</text>
<text text-anchor="start" x="461" y="-1415.3" font-family="sans-serif" font-size="14.00">_view_module : Unicode</text>
<text text-anchor="start" x="461" y="-1400.3" font-family="sans-serif" font-size="14.00">_view_module_version : Unicode</text>
<text text-anchor="start" x="461" y="-1385.3" font-family="sans-serif" font-size="14.00">_view_name : Unicode</text>
<text text-anchor="start" x="461" y="-1370.3" font-family="sans-serif" font-size="14.00">_widget_construction_callback : NoneType</text>
<text text-anchor="start" x="461" y="-1355.3" font-family="sans-serif" font-size="14.00">comm : Instance</text>
<text text-anchor="start" x="461" y="-1340.3" font-family="sans-serif" font-size="14.00">comm : NoneType, Comm</text>
<text text-anchor="start" x="461" y="-1325.3" font-family="sans-serif" font-size="14.00">keys : List</text>
<text text-anchor="start" x="461" y="-1310.3" font-family="sans-serif" font-size="14.00">model_id</text>
<text text-anchor="start" x="461" y="-1295.3" font-family="sans-serif" font-size="14.00">widget_types : WidgetRegistry</text>
<text text-anchor="start" x="461" y="-1280.3" font-family="sans-serif" font-size="14.00">widgets : dict</text>
<polyline fill="none" stroke="black" points="453,-1272.5 782,-1272.5 "/>
<text text-anchor="start" x="461" y="-1257.3" font-family="sans-serif" font-size="14.00">__del__()</text>
<text text-anchor="start" x="461" y="-1242.3" font-family="sans-serif" font-size="14.00">__init__()</text>
<text text-anchor="start" x="461" y="-1227.3" font-family="sans-serif" font-size="14.00">__repr__()</text>
<text text-anchor="start" x="461" y="-1212.3" font-family="sans-serif" font-size="14.00">_call_widget_constructed(widget)</text>
<text text-anchor="start" x="461" y="-1197.3" font-family="sans-serif" font-size="14.00">_comm_changed(change)</text>
<text text-anchor="start" x="461" y="-1182.3" font-family="sans-serif" font-size="14.00">_compare(a, b)</text>
<text text-anchor="start" x="461" y="-1167.3" font-family="sans-serif" font-size="14.00">_default_keys()</text>
<text text-anchor="start" x="461" y="-1152.3" font-family="sans-serif" font-size="14.00">_gen_repr_from_keys(keys)</text>
<text text-anchor="start" x="461" y="-1137.3" font-family="sans-serif" font-size="14.00">_get_embed_state(drop_defaults)</text>
<text text-anchor="start" x="461" y="-1122.3" font-family="sans-serif" font-size="14.00">_handle_custom_msg(content, buffers)</text>
<text text-anchor="start" x="461" y="-1107.3" font-family="sans-serif" font-size="14.00">_handle_displayed()</text>
<text text-anchor="start" x="461" y="-1092.3" font-family="sans-serif" font-size="14.00">_handle_msg(msg)</text>
<text text-anchor="start" x="461" y="-1077.3" font-family="sans-serif" font-size="14.00">_ipython_display_()</text>
<text text-anchor="start" x="461" y="-1062.3" font-family="sans-serif" font-size="14.00">_is_numpy(x)</text>
<text text-anchor="start" x="461" y="-1047.3" font-family="sans-serif" font-size="14.00">_lock_property()</text>
<text text-anchor="start" x="461" y="-1032.3" font-family="sans-serif" font-size="14.00">_repr_keys()</text>
<text text-anchor="start" x="461" y="-1017.3" font-family="sans-serif" font-size="14.00">_send(msg, buffers)</text>
<text text-anchor="start" x="461" y="-1002.3" font-family="sans-serif" font-size="14.00">_should_send_property(key, value)</text>
<text text-anchor="start" x="461" y="-987.3" font-family="sans-serif" font-size="14.00">_trait_from_json(x)</text>
<text text-anchor="start" x="461" y="-972.3" font-family="sans-serif" font-size="14.00">_trait_to_json(x)</text>
<text text-anchor="start" x="461" y="-957.3" font-family="sans-serif" font-size="14.00">add_traits()</text>
<text text-anchor="start" x="461" y="-942.3" font-family="sans-serif" font-size="14.00">close()</text>
<text text-anchor="start" x="461" y="-927.3" font-family="sans-serif" font-size="14.00">close_all(cls)</text>
<text text-anchor="start" x="461" y="-912.3" font-family="sans-serif" font-size="14.00">get_manager_state(drop_defaults, widgets)</text>
<text text-anchor="start" x="461" y="-897.3" font-family="sans-serif" font-size="14.00">get_state(key, drop_defaults)</text>
<text text-anchor="start" x="461" y="-882.3" font-family="sans-serif" font-size="14.00">get_view_spec()</text>
<text text-anchor="start" x="461" y="-867.3" font-family="sans-serif" font-size="14.00">handle_comm_opened(comm, msg)</text>
<text text-anchor="start" x="461" y="-852.3" font-family="sans-serif" font-size="14.00">hold_sync()</text>
<text text-anchor="start" x="461" y="-837.3" font-family="sans-serif" font-size="14.00">notify_change(change)</text>
<text text-anchor="start" x="461" y="-822.3" font-family="sans-serif" font-size="14.00">on_displayed(callback, remove)</text>
<text text-anchor="start" x="461" y="-807.3" font-family="sans-serif" font-size="14.00">on_msg(callback, remove)</text>
<text text-anchor="start" x="461" y="-792.3" font-family="sans-serif" font-size="14.00">on_widget_constructed(callback)</text>
<text text-anchor="start" x="461" y="-777.3" font-family="sans-serif" font-size="14.00">open()</text>
<text text-anchor="start" x="461" y="-762.3" font-family="sans-serif" font-size="14.00">send(content, buffers)</text>
<text text-anchor="start" x="461" y="-747.3" font-family="sans-serif" font-size="14.00">send_state(key)</text>
<text text-anchor="start" x="461" y="-732.3" font-family="sans-serif" font-size="14.00">set_state(sync_data)</text>
</g>
<!-- 3&#45;&gt;2 -->
<g id="edge4" class="edge">
<title>3&#45;&gt;2</title>
<path fill="none" stroke="black" d="M617.5,-1648.7C617.5,-1658.32 617.5,-1667.18 617.5,-1675.13"/>
<polygon fill="none" stroke="black" points="614,-1675.4 617.5,-1685.4 621,-1675.4 614,-1675.4"/>
</g>
<!-- 4 -->
<g id="node5" class="node">
<title>4</title>
<polygon fill="none" stroke="black" points="495.5,-2407.5 495.5,-2492.5 739.5,-2492.5 739.5,-2407.5 495.5,-2407.5"/>
<text text-anchor="middle" x="617.5" y="-2477.3" font-family="sans-serif" font-size="14.00">traitlets.traitlets.HasDescriptors</text>
<polyline fill="none" stroke="black" points="495.5,-2469.5 739.5,-2469.5 "/>
<polyline fill="none" stroke="black" points="495.5,-2445.5 739.5,-2445.5 "/>
<text text-anchor="start" x="503.5" y="-2430.3" font-family="sans-serif" font-size="14.00">__new__()</text>
<text text-anchor="start" x="503.5" y="-2415.3" font-family="sans-serif" font-size="14.00">setup_instance()</text>
</g>
<!-- 5&#45;&gt;4 -->
<g id="edge5" class="edge">
<title>5&#45;&gt;4</title>
<path fill="none" stroke="black" d="M617.5,-2370.72C617.5,-2380.16 617.5,-2389.03 617.5,-2397.18"/>
<polygon fill="none" stroke="black" points="614,-2397.45 617.5,-2407.45 621,-2397.45 614,-2397.45"/>
</g>
<!-- 8 -->
<g id="node9" class="node">
<title>8</title>
<polygon fill="none" stroke="black" points="486.5,-573.5 486.5,-687.5 748.5,-687.5 748.5,-573.5 486.5,-573.5"/>
<text text-anchor="middle" x="617.5" y="-672.3" font-family="sans-serif" font-size="14.00">wxyz.core.base.WXYZBase</text>
<polyline fill="none" stroke="black" points="486.5,-664.5 748.5,-664.5 "/>
<text text-anchor="start" x="494.5" y="-649.3" font-family="sans-serif" font-size="14.00">_model_module : Unicode</text>
<text text-anchor="start" x="494.5" y="-634.3" font-family="sans-serif" font-size="14.00">_model_module_version : Unicode</text>
<text text-anchor="start" x="494.5" y="-619.3" font-family="sans-serif" font-size="14.00">_view_module : Unicode</text>
<text text-anchor="start" x="494.5" y="-604.3" font-family="sans-serif" font-size="14.00">_view_module_version : Unicode</text>
<polyline fill="none" stroke="black" points="486.5,-596.5 748.5,-596.5 "/>
<text text-anchor="middle" x="617.5" y="-581.3" font-family="sans-serif" font-size="14.00"> </text>
</g>
<!-- 6&#45;&gt;8 -->
<g id="edge6" class="edge">
<title>6&#45;&gt;8</title>
<path fill="none" stroke="black" d="M617.5,-536.59C617.5,-545.6 617.5,-554.66 617.5,-563.4"/>
<polygon fill="none" stroke="black" points="614,-563.49 617.5,-573.49 621,-563.49 614,-563.49"/>
</g>
<!-- 7&#45;&gt;6 -->
<g id="edge7" class="edge">
<title>7&#45;&gt;6</title>
<path fill="none" stroke="black" d="M772.88,-318.94C770.06,-321.32 767.26,-323.68 764.5,-326 753.03,-335.65 741.04,-345.7 729.06,-355.72"/>
<polygon fill="none" stroke="black" points="726.63,-353.19 721.2,-362.29 731.12,-358.56 726.63,-353.19"/>
</g>
<!-- 8&#45;&gt;3 -->
<g id="edge8" class="edge">
<title>8&#45;&gt;3</title>
<path fill="none" stroke="black" d="M617.5,-687.67C617.5,-695.84 617.5,-704.73 617.5,-714.24"/>
<polygon fill="none" stroke="black" points="614,-714.36 617.5,-724.36 621,-714.36 614,-714.36"/>
</g>
</g>
</svg>
