<?xml version="1.0" encoding="UTF-8" standalone="no"?>
<!DOCTYPE svg PUBLIC "-//W3C//DTD SVG 1.1//EN"
 "http://www.w3.org/Graphics/SVG/1.1/DTD/svg11.dtd">
<!-- Generated by graphviz version 2.42.3 (20191010.1750)
 -->
<!-- Title: classes_svg Pages: 1 -->
<svg width="1502pt" height="2425pt"
 viewBox="0.00 0.00 1501.50 2425.00" xmlns="http://www.w3.org/2000/svg" xmlns:xlink="http://www.w3.org/1999/xlink">
<g id="graph0" class="graph" transform="scale(1 1) rotate(0) translate(4 2421)">
<title>classes_svg</title>
<polygon fill="white" stroke="transparent" points="-4,4 -4,-2421 1497.5,-2421 1497.5,4 -4,4"/>
<!-- 0 -->
<g id="node1" class="node">
<title>0</title>
<polygon fill="none" stroke="black" points="0,-68 0,-182 719,-182 719,-68 0,-68"/>
<text text-anchor="middle" x="359.5" y="-166.8" font-family="sans-serif" font-size="14.00">/home/runner/work/wxyz/wxyz/envs/_base/lib/python3.8/site&#45;packages/wxyz/svg/base.py.SVGBase</text>
<polyline fill="none" stroke="black" points="0,-159 719,-159 "/>
<text text-anchor="start" x="8" y="-143.8" font-family="sans-serif" font-size="14.00">_model_module : Unicode</text>
<text text-anchor="start" x="8" y="-128.8" font-family="sans-serif" font-size="14.00">_model_module_version : Unicode</text>
<text text-anchor="start" x="8" y="-113.8" font-family="sans-serif" font-size="14.00">_view_module : Unicode</text>
<text text-anchor="start" x="8" y="-98.8" font-family="sans-serif" font-size="14.00">_view_module_version : Unicode</text>
<polyline fill="none" stroke="black" points="0,-91 719,-91 "/>
<text text-anchor="middle" x="359.5" y="-75.8" font-family="sans-serif" font-size="14.00"> </text>
</g>
<!-- 6 -->
<g id="node7" class="node">
<title>6</title>
<polygon fill="none" stroke="black" points="228.5,-286.5 228.5,-460.5 490.5,-460.5 490.5,-286.5 228.5,-286.5"/>
<text text-anchor="middle" x="359.5" y="-445.3" font-family="sans-serif" font-size="14.00">wxyz.core.base.Base</text>
<polyline fill="none" stroke="black" points="228.5,-437.5 490.5,-437.5 "/>
<text text-anchor="start" x="236.5" y="-422.3" font-family="sans-serif" font-size="14.00">_model_module : Unicode</text>
<text text-anchor="start" x="236.5" y="-407.3" font-family="sans-serif" font-size="14.00">_model_module_version : Unicode</text>
<text text-anchor="start" x="236.5" y="-392.3" font-family="sans-serif" font-size="14.00">_view_module : Unicode</text>
<text text-anchor="start" x="236.5" y="-377.3" font-family="sans-serif" font-size="14.00">_view_module_version : Unicode</text>
<text text-anchor="start" x="236.5" y="-362.3" font-family="sans-serif" font-size="14.00">closable : Bool</text>
<text text-anchor="start" x="236.5" y="-347.3" font-family="sans-serif" font-size="14.00">description : Unicode</text>
<text text-anchor="start" x="236.5" y="-332.3" font-family="sans-serif" font-size="14.00">error : CUnicode</text>
<text text-anchor="start" x="236.5" y="-317.3" font-family="sans-serif" font-size="14.00">icon_class : Unicode</text>
<polyline fill="none" stroke="black" points="228.5,-309.5 490.5,-309.5 "/>
<text text-anchor="middle" x="359.5" y="-294.3" font-family="sans-serif" font-size="14.00"> </text>
</g>
<!-- 0&#45;&gt;6 -->
<g id="edge1" class="edge">
<title>0&#45;&gt;6</title>
<path fill="none" stroke="black" d="M359.5,-182.24C359.5,-209.94 359.5,-244.12 359.5,-275.83"/>
<polygon fill="none" stroke="black" points="356,-276.03 359.5,-286.03 363,-276.03 356,-276.03"/>
</g>
<!-- 1 -->
<g id="node2" class="node">
<title>1</title>
<polygon fill="none" stroke="black" points="737.5,-0.5 737.5,-249.5 1493.5,-249.5 1493.5,-0.5 737.5,-0.5"/>
<text text-anchor="middle" x="1115.5" y="-234.3" font-family="sans-serif" font-size="14.00">/home/runner/work/wxyz/wxyz/envs/_base/lib/python3.8/site&#45;packages/wxyz/svg/widget_svg.py.SVGBox</text>
<polyline fill="none" stroke="black" points="737.5,-226.5 1493.5,-226.5 "/>
<text text-anchor="start" x="745.5" y="-211.3" font-family="sans-serif" font-size="14.00">_model_name</text>
<text text-anchor="start" x="745.5" y="-196.3" font-family="sans-serif" font-size="14.00">_view_name</text>
<text text-anchor="start" x="745.5" y="-181.3" font-family="sans-serif" font-size="14.00">area_attr</text>
<text text-anchor="start" x="745.5" y="-166.3" font-family="sans-serif" font-size="14.00">area_widgets</text>
<text text-anchor="start" x="745.5" y="-151.3" font-family="sans-serif" font-size="14.00">show_svg</text>
<text text-anchor="start" x="745.5" y="-136.3" font-family="sans-serif" font-size="14.00">svg</text>
<text text-anchor="start" x="745.5" y="-121.3" font-family="sans-serif" font-size="14.00">svg</text>
<text text-anchor="start" x="745.5" y="-106.3" font-family="sans-serif" font-size="14.00">svg_file</text>
<text text-anchor="start" x="745.5" y="-91.3" font-family="sans-serif" font-size="14.00">visible_areas</text>
<text text-anchor="start" x="745.5" y="-76.3" font-family="sans-serif" font-size="14.00">zoom_k</text>
<text text-anchor="start" x="745.5" y="-61.3" font-family="sans-serif" font-size="14.00">zoom_lock</text>
<text text-anchor="start" x="745.5" y="-46.3" font-family="sans-serif" font-size="14.00">zoom_x</text>
<text text-anchor="start" x="745.5" y="-31.3" font-family="sans-serif" font-size="14.00">zoom_y</text>
<polyline fill="none" stroke="black" points="737.5,-23.5 1493.5,-23.5 "/>
<text text-anchor="start" x="745.5" y="-8.3" font-family="sans-serif" font-size="14.00">_on_svg_file_changed()</text>
</g>
<!-- 2 -->
<g id="node3" class="node">
<title>2</title>
<polygon fill="none" stroke="black" points="193.5,-1609.5 193.5,-1678.5 525.5,-1678.5 525.5,-1609.5 193.5,-1609.5"/>
<text text-anchor="middle" x="359.5" y="-1663.3" font-family="sans-serif" font-size="14.00">ipywidgets.widgets.widget.LoggingHasTraits</text>
<polyline fill="none" stroke="black" points="193.5,-1655.5 525.5,-1655.5 "/>
<text text-anchor="start" x="201.5" y="-1640.3" font-family="sans-serif" font-size="14.00">log : Instance</text>
<polyline fill="none" stroke="black" points="193.5,-1632.5 525.5,-1632.5 "/>
<text text-anchor="start" x="201.5" y="-1617.3" font-family="sans-serif" font-size="14.00">_log_default()</text>
</g>
<!-- 5 -->
<g id="node6" class="node">
<title>5</title>
<polygon fill="none" stroke="black" points="201.5,-1715.5 201.5,-2294.5 517.5,-2294.5 517.5,-1715.5 201.5,-1715.5"/>
<text text-anchor="middle" x="359.5" y="-2279.3" font-family="sans-serif" font-size="14.00">traitlets.traitlets.HasTraits</text>
<polyline fill="none" stroke="black" points="201.5,-2271.5 517.5,-2271.5 "/>
<text text-anchor="start" x="209.5" y="-2256.3" font-family="sans-serif" font-size="14.00">__class__</text>
<text text-anchor="start" x="209.5" y="-2241.3" font-family="sans-serif" font-size="14.00">__dict__</text>
<text text-anchor="start" x="209.5" y="-2226.3" font-family="sans-serif" font-size="14.00">_cross_validation_lock : bool</text>
<text text-anchor="start" x="209.5" y="-2211.3" font-family="sans-serif" font-size="14.00">_trait_notifiers : dict</text>
<text text-anchor="start" x="209.5" y="-2196.3" font-family="sans-serif" font-size="14.00">cross_validation_lock</text>
<text text-anchor="start" x="209.5" y="-2181.3" font-family="sans-serif" font-size="14.00">notify_change</text>
<polyline fill="none" stroke="black" points="201.5,-2173.5 517.5,-2173.5 "/>
<text text-anchor="start" x="209.5" y="-2158.3" font-family="sans-serif" font-size="14.00">__getstate__()</text>
<text text-anchor="start" x="209.5" y="-2143.3" font-family="sans-serif" font-size="14.00">__init__()</text>
<text text-anchor="start" x="209.5" y="-2128.3" font-family="sans-serif" font-size="14.00">__setstate__(state)</text>
<text text-anchor="start" x="209.5" y="-2113.3" font-family="sans-serif" font-size="14.00">_add_notifiers(handler, name, type)</text>
<text text-anchor="start" x="209.5" y="-2098.3" font-family="sans-serif" font-size="14.00">_get_trait_default_generator(name)</text>
<text text-anchor="start" x="209.5" y="-2083.3" font-family="sans-serif" font-size="14.00">_notify_observers(event)</text>
<text text-anchor="start" x="209.5" y="-2068.3" font-family="sans-serif" font-size="14.00">_notify_trait(name, old_value, new_value)</text>
<text text-anchor="start" x="209.5" y="-2053.3" font-family="sans-serif" font-size="14.00">_register_validator(handler, names)</text>
<text text-anchor="start" x="209.5" y="-2038.3" font-family="sans-serif" font-size="14.00">_remove_notifiers(handler, name, type)</text>
<text text-anchor="start" x="209.5" y="-2023.3" font-family="sans-serif" font-size="14.00">add_traits()</text>
<text text-anchor="start" x="209.5" y="-2008.3" font-family="sans-serif" font-size="14.00">class_own_trait_events(cls, name)</text>
<text text-anchor="start" x="209.5" y="-1993.3" font-family="sans-serif" font-size="14.00">class_own_traits(cls)</text>
<text text-anchor="start" x="209.5" y="-1978.3" font-family="sans-serif" font-size="14.00">class_trait_names(cls)</text>
<text text-anchor="start" x="209.5" y="-1963.3" font-family="sans-serif" font-size="14.00">class_traits(cls)</text>
<text text-anchor="start" x="209.5" y="-1948.3" font-family="sans-serif" font-size="14.00">has_trait(name)</text>
<text text-anchor="start" x="209.5" y="-1933.3" font-family="sans-serif" font-size="14.00">hold_trait_notifications()</text>
<text text-anchor="start" x="209.5" y="-1918.3" font-family="sans-serif" font-size="14.00">notify_change(change)</text>
<text text-anchor="start" x="209.5" y="-1903.3" font-family="sans-serif" font-size="14.00">observe(handler, names, type)</text>
<text text-anchor="start" x="209.5" y="-1888.3" font-family="sans-serif" font-size="14.00">on_trait_change(handler, name, remove)</text>
<text text-anchor="start" x="209.5" y="-1873.3" font-family="sans-serif" font-size="14.00">set_trait(name, value)</text>
<text text-anchor="start" x="209.5" y="-1858.3" font-family="sans-serif" font-size="14.00">setup_instance()</text>
<text text-anchor="start" x="209.5" y="-1843.3" font-family="sans-serif" font-size="14.00">trait_defaults()</text>
<text text-anchor="start" x="209.5" y="-1828.3" font-family="sans-serif" font-size="14.00">trait_events(cls, name)</text>
<text text-anchor="start" x="209.5" y="-1813.3" font-family="sans-serif" font-size="14.00">trait_has_value(name)</text>
<text text-anchor="start" x="209.5" y="-1798.3" font-family="sans-serif" font-size="14.00">trait_metadata(traitname, key, default)</text>
<text text-anchor="start" x="209.5" y="-1783.3" font-family="sans-serif" font-size="14.00">trait_names()</text>
<text text-anchor="start" x="209.5" y="-1768.3" font-family="sans-serif" font-size="14.00">trait_values()</text>
<text text-anchor="start" x="209.5" y="-1753.3" font-family="sans-serif" font-size="14.00">traits()</text>
<text text-anchor="start" x="209.5" y="-1738.3" font-family="sans-serif" font-size="14.00">unobserve(handler, names, type)</text>
<text text-anchor="start" x="209.5" y="-1723.3" font-family="sans-serif" font-size="14.00">unobserve_all(name)</text>
</g>
<!-- 2&#45;&gt;5 -->
<g id="edge2" class="edge">
<title>2&#45;&gt;5</title>
<path fill="none" stroke="black" d="M359.5,-1678.77C359.5,-1686.56 359.5,-1695.46 359.5,-1705.23"/>
<polygon fill="none" stroke="black" points="356,-1705.27 359.5,-1715.27 363,-1705.27 356,-1705.27"/>
</g>
<!-- 3 -->
<g id="node4" class="node">
<title>3</title>
<polygon fill="none" stroke="black" points="195,-648.5 195,-1572.5 524,-1572.5 524,-648.5 195,-648.5"/>
<text text-anchor="middle" x="359.5" y="-1557.3" font-family="sans-serif" font-size="14.00">ipywidgets.widgets.widget.Widget</text>
<polyline fill="none" stroke="black" points="195,-1549.5 524,-1549.5 "/>
<text text-anchor="start" x="203" y="-1534.3" font-family="sans-serif" font-size="14.00">_display_callbacks : Instance</text>
<text text-anchor="start" x="203" y="-1519.3" font-family="sans-serif" font-size="14.00">_holding_sync : bool</text>
<text text-anchor="start" x="203" y="-1504.3" font-family="sans-serif" font-size="14.00">_holding_sync : bool</text>
<text text-anchor="start" x="203" y="-1489.3" font-family="sans-serif" font-size="14.00">_ipython_display_ : NoneType</text>
<text text-anchor="start" x="203" y="-1474.3" font-family="sans-serif" font-size="14.00">_model_id</text>
<text text-anchor="start" x="203" y="-1459.3" font-family="sans-serif" font-size="14.00">_model_module : Unicode</text>
<text text-anchor="start" x="203" y="-1444.3" font-family="sans-serif" font-size="14.00">_model_module_version : Unicode</text>
<text text-anchor="start" x="203" y="-1429.3" font-family="sans-serif" font-size="14.00">_model_name : Unicode</text>
<text text-anchor="start" x="203" y="-1414.3" font-family="sans-serif" font-size="14.00">_msg_callbacks : Instance</text>
<text text-anchor="start" x="203" y="-1399.3" font-family="sans-serif" font-size="14.00">_property_lock : Dict</text>
<text text-anchor="start" x="203" y="-1384.3" font-family="sans-serif" font-size="14.00">_property_lock : dict</text>
<text text-anchor="start" x="203" y="-1369.3" font-family="sans-serif" font-size="14.00">_states_to_send : Set</text>
<text text-anchor="start" x="203" y="-1354.3" font-family="sans-serif" font-size="14.00">_view_count : Int</text>
<text text-anchor="start" x="203" y="-1339.3" font-family="sans-serif" font-size="14.00">_view_module : Unicode</text>
<text text-anchor="start" x="203" y="-1324.3" font-family="sans-serif" font-size="14.00">_view_module_version : Unicode</text>
<text text-anchor="start" x="203" y="-1309.3" font-family="sans-serif" font-size="14.00">_view_name : Unicode</text>
<text text-anchor="start" x="203" y="-1294.3" font-family="sans-serif" font-size="14.00">_widget_construction_callback : NoneType</text>
<text text-anchor="start" x="203" y="-1279.3" font-family="sans-serif" font-size="14.00">comm : Instance</text>
<text text-anchor="start" x="203" y="-1264.3" font-family="sans-serif" font-size="14.00">comm : NoneType, Comm</text>
<text text-anchor="start" x="203" y="-1249.3" font-family="sans-serif" font-size="14.00">keys : List</text>
<text text-anchor="start" x="203" y="-1234.3" font-family="sans-serif" font-size="14.00">model_id</text>
<text text-anchor="start" x="203" y="-1219.3" font-family="sans-serif" font-size="14.00">widget_types : WidgetRegistry</text>
<text text-anchor="start" x="203" y="-1204.3" font-family="sans-serif" font-size="14.00">widgets : dict</text>
<polyline fill="none" stroke="black" points="195,-1196.5 524,-1196.5 "/>
<text text-anchor="start" x="203" y="-1181.3" font-family="sans-serif" font-size="14.00">__del__()</text>
<text text-anchor="start" x="203" y="-1166.3" font-family="sans-serif" font-size="14.00">__init__()</text>
<text text-anchor="start" x="203" y="-1151.3" font-family="sans-serif" font-size="14.00">__repr__()</text>
<text text-anchor="start" x="203" y="-1136.3" font-family="sans-serif" font-size="14.00">_call_widget_constructed(widget)</text>
<text text-anchor="start" x="203" y="-1121.3" font-family="sans-serif" font-size="14.00">_comm_changed(change)</text>
<text text-anchor="start" x="203" y="-1106.3" font-family="sans-serif" font-size="14.00">_compare(a, b)</text>
<text text-anchor="start" x="203" y="-1091.3" font-family="sans-serif" font-size="14.00">_default_keys()</text>
<text text-anchor="start" x="203" y="-1076.3" font-family="sans-serif" font-size="14.00">_gen_repr_from_keys(keys)</text>
<text text-anchor="start" x="203" y="-1061.3" font-family="sans-serif" font-size="14.00">_get_embed_state(drop_defaults)</text>
<text text-anchor="start" x="203" y="-1046.3" font-family="sans-serif" font-size="14.00">_handle_custom_msg(content, buffers)</text>
<text text-anchor="start" x="203" y="-1031.3" font-family="sans-serif" font-size="14.00">_handle_displayed()</text>
<text text-anchor="start" x="203" y="-1016.3" font-family="sans-serif" font-size="14.00">_handle_msg(msg)</text>
<text text-anchor="start" x="203" y="-1001.3" font-family="sans-serif" font-size="14.00">_ipython_display_()</text>
<text text-anchor="start" x="203" y="-986.3" font-family="sans-serif" font-size="14.00">_is_numpy(x)</text>
<text text-anchor="start" x="203" y="-971.3" font-family="sans-serif" font-size="14.00">_lock_property()</text>
<text text-anchor="start" x="203" y="-956.3" font-family="sans-serif" font-size="14.00">_repr_keys()</text>
<text text-anchor="start" x="203" y="-941.3" font-family="sans-serif" font-size="14.00">_send(msg, buffers)</text>
<text text-anchor="start" x="203" y="-926.3" font-family="sans-serif" font-size="14.00">_should_send_property(key, value)</text>
<text text-anchor="start" x="203" y="-911.3" font-family="sans-serif" font-size="14.00">_trait_from_json(x)</text>
<text text-anchor="start" x="203" y="-896.3" font-family="sans-serif" font-size="14.00">_trait_to_json(x)</text>
<text text-anchor="start" x="203" y="-881.3" font-family="sans-serif" font-size="14.00">add_traits()</text>
<text text-anchor="start" x="203" y="-866.3" font-family="sans-serif" font-size="14.00">close()</text>
<text text-anchor="start" x="203" y="-851.3" font-family="sans-serif" font-size="14.00">close_all(cls)</text>
<text text-anchor="start" x="203" y="-836.3" font-family="sans-serif" font-size="14.00">get_manager_state(drop_defaults, widgets)</text>
<text text-anchor="start" x="203" y="-821.3" font-family="sans-serif" font-size="14.00">get_state(key, drop_defaults)</text>
<text text-anchor="start" x="203" y="-806.3" font-family="sans-serif" font-size="14.00">get_view_spec()</text>
<text text-anchor="start" x="203" y="-791.3" font-family="sans-serif" font-size="14.00">handle_comm_opened(comm, msg)</text>
<text text-anchor="start" x="203" y="-776.3" font-family="sans-serif" font-size="14.00">hold_sync()</text>
<text text-anchor="start" x="203" y="-761.3" font-family="sans-serif" font-size="14.00">notify_change(change)</text>
<text text-anchor="start" x="203" y="-746.3" font-family="sans-serif" font-size="14.00">on_displayed(callback, remove)</text>
<text text-anchor="start" x="203" y="-731.3" font-family="sans-serif" font-size="14.00">on_msg(callback, remove)</text>
<text text-anchor="start" x="203" y="-716.3" font-family="sans-serif" font-size="14.00">on_widget_constructed(callback)</text>
<text text-anchor="start" x="203" y="-701.3" font-family="sans-serif" font-size="14.00">open()</text>
<text text-anchor="start" x="203" y="-686.3" font-family="sans-serif" font-size="14.00">send(content, buffers)</text>
<text text-anchor="start" x="203" y="-671.3" font-family="sans-serif" font-size="14.00">send_state(key)</text>
<text text-anchor="start" x="203" y="-656.3" font-family="sans-serif" font-size="14.00">set_state(sync_data)</text>
</g>
<!-- 3&#45;&gt;2 -->
<g id="edge3" class="edge">
<title>3&#45;&gt;2</title>
<path fill="none" stroke="black" d="M359.5,-1572.7C359.5,-1582.32 359.5,-1591.18 359.5,-1599.13"/>
<polygon fill="none" stroke="black" points="356,-1599.4 359.5,-1609.4 363,-1599.4 356,-1599.4"/>
</g>
<!-- 4 -->
<g id="node5" class="node">
<title>4</title>
<polygon fill="none" stroke="black" points="237.5,-2331.5 237.5,-2416.5 481.5,-2416.5 481.5,-2331.5 237.5,-2331.5"/>
<text text-anchor="middle" x="359.5" y="-2401.3" font-family="sans-serif" font-size="14.00">traitlets.traitlets.HasDescriptors</text>
<polyline fill="none" stroke="black" points="237.5,-2393.5 481.5,-2393.5 "/>
<polyline fill="none" stroke="black" points="237.5,-2369.5 481.5,-2369.5 "/>
<text text-anchor="start" x="245.5" y="-2354.3" font-family="sans-serif" font-size="14.00">__new__()</text>
<text text-anchor="start" x="245.5" y="-2339.3" font-family="sans-serif" font-size="14.00">setup_instance()</text>
</g>
<!-- 5&#45;&gt;4 -->
<g id="edge4" class="edge">
<title>5&#45;&gt;4</title>
<path fill="none" stroke="black" d="M359.5,-2294.72C359.5,-2304.16 359.5,-2313.03 359.5,-2321.18"/>
<polygon fill="none" stroke="black" points="356,-2321.45 359.5,-2331.45 363,-2321.45 356,-2321.45"/>
</g>
<!-- 7 -->
<g id="node8" class="node">
<title>7</title>
<polygon fill="none" stroke="black" points="228.5,-497.5 228.5,-611.5 490.5,-611.5 490.5,-497.5 228.5,-497.5"/>
<text text-anchor="middle" x="359.5" y="-596.3" font-family="sans-serif" font-size="14.00">wxyz.core.base.WXYZBase</text>
<polyline fill="none" stroke="black" points="228.5,-588.5 490.5,-588.5 "/>
<text text-anchor="start" x="236.5" y="-573.3" font-family="sans-serif" font-size="14.00">_model_module : Unicode</text>
<text text-anchor="start" x="236.5" y="-558.3" font-family="sans-serif" font-size="14.00">_model_module_version : Unicode</text>
<text text-anchor="start" x="236.5" y="-543.3" font-family="sans-serif" font-size="14.00">_view_module : Unicode</text>
<text text-anchor="start" x="236.5" y="-528.3" font-family="sans-serif" font-size="14.00">_view_module_version : Unicode</text>
<polyline fill="none" stroke="black" points="228.5,-520.5 490.5,-520.5 "/>
<text text-anchor="middle" x="359.5" y="-505.3" font-family="sans-serif" font-size="14.00"> </text>
</g>
<!-- 6&#45;&gt;7 -->
<g id="edge5" class="edge">
<title>6&#45;&gt;7</title>
<path fill="none" stroke="black" d="M359.5,-460.59C359.5,-469.6 359.5,-478.66 359.5,-487.4"/>
<polygon fill="none" stroke="black" points="356,-487.49 359.5,-497.49 363,-487.49 356,-487.49"/>
</g>
<!-- 7&#45;&gt;3 -->
<g id="edge6" class="edge">
<title>7&#45;&gt;3</title>
<path fill="none" stroke="black" d="M359.5,-611.67C359.5,-619.84 359.5,-628.73 359.5,-638.24"/>
<polygon fill="none" stroke="black" points="356,-638.36 359.5,-648.36 363,-638.36 356,-638.36"/>
</g>
</g>
</svg>
