<?xml version="1.0" encoding="UTF-8" standalone="no"?>
<!DOCTYPE svg PUBLIC "-//W3C//DTD SVG 1.1//EN"
 "http://www.w3.org/Graphics/SVG/1.1/DTD/svg11.dtd">
<!-- Generated by graphviz version 2.42.3 (20191010.1750)
 -->
<!-- Title: classes_core Pages: 1 -->
<svg width="5482pt" height="2365pt"
 viewBox="0.00 0.00 5482.00 2365.00" xmlns="http://www.w3.org/2000/svg" xmlns:xlink="http://www.w3.org/1999/xlink">
<g id="graph0" class="graph" transform="scale(1 1) rotate(0) translate(4 2361)">
<title>classes_core</title>
<polygon fill="white" stroke="transparent" points="-4,4 -4,-2361 5478,-2361 5478,4 -4,4"/>
<!-- 0 -->
<g id="node1" class="node">
<title>0</title>
<polygon fill="none" stroke="black" points="829,-196.5 829,-370.5 1525,-370.5 1525,-196.5 829,-196.5"/>
<text text-anchor="middle" x="1177" y="-355.3" font-family="sans-serif" font-size="14.00">/home/runner/work/wxyz/wxyz/envs/_base/lib/python3.8/site&#45;packages/wxyz/core/base.py.Base</text>
<polyline fill="none" stroke="black" points="829,-347.5 1525,-347.5 "/>
<text text-anchor="start" x="837" y="-332.3" font-family="sans-serif" font-size="14.00">_model_module : Unicode</text>
<text text-anchor="start" x="837" y="-317.3" font-family="sans-serif" font-size="14.00">_model_module_version : Unicode</text>
<text text-anchor="start" x="837" y="-302.3" font-family="sans-serif" font-size="14.00">_view_module : Unicode</text>
<text text-anchor="start" x="837" y="-287.3" font-family="sans-serif" font-size="14.00">_view_module_version : Unicode</text>
<text text-anchor="start" x="837" y="-272.3" font-family="sans-serif" font-size="14.00">closable : Bool</text>
<text text-anchor="start" x="837" y="-257.3" font-family="sans-serif" font-size="14.00">description : Unicode</text>
<text text-anchor="start" x="837" y="-242.3" font-family="sans-serif" font-size="14.00">error : CUnicode</text>
<text text-anchor="start" x="837" y="-227.3" font-family="sans-serif" font-size="14.00">icon_class : Unicode</text>
<polyline fill="none" stroke="black" points="829,-219.5 1525,-219.5 "/>
<text text-anchor="middle" x="1177" y="-204.3" font-family="sans-serif" font-size="14.00"> </text>
</g>
<!-- 2 -->
<g id="node3" class="node">
<title>2</title>
<polygon fill="none" stroke="black" points="807.5,-422.5 807.5,-536.5 1546.5,-536.5 1546.5,-422.5 807.5,-422.5"/>
<text text-anchor="middle" x="1177" y="-521.3" font-family="sans-serif" font-size="14.00">/home/runner/work/wxyz/wxyz/envs/_base/lib/python3.8/site&#45;packages/wxyz/core/base.py.WXYZBase</text>
<polyline fill="none" stroke="black" points="807.5,-513.5 1546.5,-513.5 "/>
<text text-anchor="start" x="815.5" y="-498.3" font-family="sans-serif" font-size="14.00">_model_module : Unicode</text>
<text text-anchor="start" x="815.5" y="-483.3" font-family="sans-serif" font-size="14.00">_model_module_version : Unicode</text>
<text text-anchor="start" x="815.5" y="-468.3" font-family="sans-serif" font-size="14.00">_view_module : Unicode</text>
<text text-anchor="start" x="815.5" y="-453.3" font-family="sans-serif" font-size="14.00">_view_module_version : Unicode</text>
<polyline fill="none" stroke="black" points="807.5,-445.5 1546.5,-445.5 "/>
<text text-anchor="middle" x="1177" y="-430.3" font-family="sans-serif" font-size="14.00"> </text>
</g>
<!-- 0&#45;&gt;2 -->
<g id="edge1" class="edge">
<title>0&#45;&gt;2</title>
<path fill="none" stroke="black" d="M1177,-370.72C1177,-384.67 1177,-398.92 1177,-412.3"/>
<polygon fill="none" stroke="black" points="1173.5,-412.35 1177,-422.35 1180.5,-412.35 1173.5,-412.35"/>
</g>
<!-- 1 -->
<g id="node2" class="node">
<title>1</title>
<polygon fill="none" stroke="black" points="838,-0.5 838,-159.5 1516,-159.5 1516,-0.5 838,-0.5"/>
<text text-anchor="middle" x="1177" y="-144.3" font-family="sans-serif" font-size="14.00">/home/runner/work/wxyz/wxyz/envs/_base/lib/python3.8/site&#45;packages/wxyz/core/base.py.Fn</text>
<polyline fill="none" stroke="black" points="838,-136.5 1516,-136.5 "/>
<text text-anchor="start" x="846" y="-121.3" font-family="sans-serif" font-size="14.00">_observed_traits : list</text>
<text text-anchor="start" x="846" y="-106.3" font-family="sans-serif" font-size="14.00">error : str</text>
<text text-anchor="start" x="846" y="-91.3" font-family="sans-serif" font-size="14.00">mode : Enum</text>
<text text-anchor="start" x="846" y="-76.3" font-family="sans-serif" font-size="14.00">source : Any</text>
<text text-anchor="start" x="846" y="-61.3" font-family="sans-serif" font-size="14.00">value : Any</text>
<text text-anchor="start" x="846" y="-46.3" font-family="sans-serif" font-size="14.00">value : NoneType</text>
<polyline fill="none" stroke="black" points="838,-38.5 1516,-38.5 "/>
<text text-anchor="start" x="846" y="-23.3" font-family="sans-serif" font-size="14.00">__init__()</text>
<text text-anchor="start" x="846" y="-8.3" font-family="sans-serif" font-size="14.00">the_observer()</text>
</g>
<!-- 1&#45;&gt;0 -->
<g id="edge2" class="edge">
<title>1&#45;&gt;0</title>
<path fill="none" stroke="black" d="M1177,-159.77C1177,-168.51 1177,-177.49 1177,-186.41"/>
<polygon fill="none" stroke="black" points="1173.5,-186.45 1177,-196.45 1180.5,-186.45 1173.5,-186.45"/>
</g>
<!-- 11 -->
<g id="node12" class="node">
<title>11</title>
<polygon fill="none" stroke="black" points="458.5,-588.5 458.5,-1512.5 787.5,-1512.5 787.5,-588.5 458.5,-588.5"/>
<text text-anchor="middle" x="623" y="-1497.3" font-family="sans-serif" font-size="14.00">ipywidgets.widgets.widget.Widget</text>
<polyline fill="none" stroke="black" points="458.5,-1489.5 787.5,-1489.5 "/>
<text text-anchor="start" x="466.5" y="-1474.3" font-family="sans-serif" font-size="14.00">_display_callbacks : Instance</text>
<text text-anchor="start" x="466.5" y="-1459.3" font-family="sans-serif" font-size="14.00">_holding_sync : bool</text>
<text text-anchor="start" x="466.5" y="-1444.3" font-family="sans-serif" font-size="14.00">_holding_sync : bool</text>
<text text-anchor="start" x="466.5" y="-1429.3" font-family="sans-serif" font-size="14.00">_ipython_display_ : NoneType</text>
<text text-anchor="start" x="466.5" y="-1414.3" font-family="sans-serif" font-size="14.00">_model_id</text>
<text text-anchor="start" x="466.5" y="-1399.3" font-family="sans-serif" font-size="14.00">_model_module : Unicode</text>
<text text-anchor="start" x="466.5" y="-1384.3" font-family="sans-serif" font-size="14.00">_model_module_version : Unicode</text>
<text text-anchor="start" x="466.5" y="-1369.3" font-family="sans-serif" font-size="14.00">_model_name : Unicode</text>
<text text-anchor="start" x="466.5" y="-1354.3" font-family="sans-serif" font-size="14.00">_msg_callbacks : Instance</text>
<text text-anchor="start" x="466.5" y="-1339.3" font-family="sans-serif" font-size="14.00">_property_lock : Dict</text>
<text text-anchor="start" x="466.5" y="-1324.3" font-family="sans-serif" font-size="14.00">_property_lock : dict</text>
<text text-anchor="start" x="466.5" y="-1309.3" font-family="sans-serif" font-size="14.00">_states_to_send : Set</text>
<text text-anchor="start" x="466.5" y="-1294.3" font-family="sans-serif" font-size="14.00">_view_count : Int</text>
<text text-anchor="start" x="466.5" y="-1279.3" font-family="sans-serif" font-size="14.00">_view_module : Unicode</text>
<text text-anchor="start" x="466.5" y="-1264.3" font-family="sans-serif" font-size="14.00">_view_module_version : Unicode</text>
<text text-anchor="start" x="466.5" y="-1249.3" font-family="sans-serif" font-size="14.00">_view_name : Unicode</text>
<text text-anchor="start" x="466.5" y="-1234.3" font-family="sans-serif" font-size="14.00">_widget_construction_callback : NoneType</text>
<text text-anchor="start" x="466.5" y="-1219.3" font-family="sans-serif" font-size="14.00">comm : Instance</text>
<text text-anchor="start" x="466.5" y="-1204.3" font-family="sans-serif" font-size="14.00">comm : NoneType, Comm</text>
<text text-anchor="start" x="466.5" y="-1189.3" font-family="sans-serif" font-size="14.00">keys : List</text>
<text text-anchor="start" x="466.5" y="-1174.3" font-family="sans-serif" font-size="14.00">model_id</text>
<text text-anchor="start" x="466.5" y="-1159.3" font-family="sans-serif" font-size="14.00">widget_types : WidgetRegistry</text>
<text text-anchor="start" x="466.5" y="-1144.3" font-family="sans-serif" font-size="14.00">widgets : dict</text>
<polyline fill="none" stroke="black" points="458.5,-1136.5 787.5,-1136.5 "/>
<text text-anchor="start" x="466.5" y="-1121.3" font-family="sans-serif" font-size="14.00">__del__()</text>
<text text-anchor="start" x="466.5" y="-1106.3" font-family="sans-serif" font-size="14.00">__init__()</text>
<text text-anchor="start" x="466.5" y="-1091.3" font-family="sans-serif" font-size="14.00">__repr__()</text>
<text text-anchor="start" x="466.5" y="-1076.3" font-family="sans-serif" font-size="14.00">_call_widget_constructed(widget)</text>
<text text-anchor="start" x="466.5" y="-1061.3" font-family="sans-serif" font-size="14.00">_comm_changed(change)</text>
<text text-anchor="start" x="466.5" y="-1046.3" font-family="sans-serif" font-size="14.00">_compare(a, b)</text>
<text text-anchor="start" x="466.5" y="-1031.3" font-family="sans-serif" font-size="14.00">_default_keys()</text>
<text text-anchor="start" x="466.5" y="-1016.3" font-family="sans-serif" font-size="14.00">_gen_repr_from_keys(keys)</text>
<text text-anchor="start" x="466.5" y="-1001.3" font-family="sans-serif" font-size="14.00">_get_embed_state(drop_defaults)</text>
<text text-anchor="start" x="466.5" y="-986.3" font-family="sans-serif" font-size="14.00">_handle_custom_msg(content, buffers)</text>
<text text-anchor="start" x="466.5" y="-971.3" font-family="sans-serif" font-size="14.00">_handle_displayed()</text>
<text text-anchor="start" x="466.5" y="-956.3" font-family="sans-serif" font-size="14.00">_handle_msg(msg)</text>
<text text-anchor="start" x="466.5" y="-941.3" font-family="sans-serif" font-size="14.00">_ipython_display_()</text>
<text text-anchor="start" x="466.5" y="-926.3" font-family="sans-serif" font-size="14.00">_is_numpy(x)</text>
<text text-anchor="start" x="466.5" y="-911.3" font-family="sans-serif" font-size="14.00">_lock_property()</text>
<text text-anchor="start" x="466.5" y="-896.3" font-family="sans-serif" font-size="14.00">_repr_keys()</text>
<text text-anchor="start" x="466.5" y="-881.3" font-family="sans-serif" font-size="14.00">_send(msg, buffers)</text>
<text text-anchor="start" x="466.5" y="-866.3" font-family="sans-serif" font-size="14.00">_should_send_property(key, value)</text>
<text text-anchor="start" x="466.5" y="-851.3" font-family="sans-serif" font-size="14.00">_trait_from_json(x)</text>
<text text-anchor="start" x="466.5" y="-836.3" font-family="sans-serif" font-size="14.00">_trait_to_json(x)</text>
<text text-anchor="start" x="466.5" y="-821.3" font-family="sans-serif" font-size="14.00">add_traits()</text>
<text text-anchor="start" x="466.5" y="-806.3" font-family="sans-serif" font-size="14.00">close()</text>
<text text-anchor="start" x="466.5" y="-791.3" font-family="sans-serif" font-size="14.00">close_all(cls)</text>
<text text-anchor="start" x="466.5" y="-776.3" font-family="sans-serif" font-size="14.00">get_manager_state(drop_defaults, widgets)</text>
<text text-anchor="start" x="466.5" y="-761.3" font-family="sans-serif" font-size="14.00">get_state(key, drop_defaults)</text>
<text text-anchor="start" x="466.5" y="-746.3" font-family="sans-serif" font-size="14.00">get_view_spec()</text>
<text text-anchor="start" x="466.5" y="-731.3" font-family="sans-serif" font-size="14.00">handle_comm_opened(comm, msg)</text>
<text text-anchor="start" x="466.5" y="-716.3" font-family="sans-serif" font-size="14.00">hold_sync()</text>
<text text-anchor="start" x="466.5" y="-701.3" font-family="sans-serif" font-size="14.00">notify_change(change)</text>
<text text-anchor="start" x="466.5" y="-686.3" font-family="sans-serif" font-size="14.00">on_displayed(callback, remove)</text>
<text text-anchor="start" x="466.5" y="-671.3" font-family="sans-serif" font-size="14.00">on_msg(callback, remove)</text>
<text text-anchor="start" x="466.5" y="-656.3" font-family="sans-serif" font-size="14.00">on_widget_constructed(callback)</text>
<text text-anchor="start" x="466.5" y="-641.3" font-family="sans-serif" font-size="14.00">open()</text>
<text text-anchor="start" x="466.5" y="-626.3" font-family="sans-serif" font-size="14.00">send(content, buffers)</text>
<text text-anchor="start" x="466.5" y="-611.3" font-family="sans-serif" font-size="14.00">send_state(key)</text>
<text text-anchor="start" x="466.5" y="-596.3" font-family="sans-serif" font-size="14.00">set_state(sync_data)</text>
</g>
<!-- 2&#45;&gt;11 -->
<g id="edge3" class="edge">
<title>2&#45;&gt;11</title>
<path fill="none" stroke="black" d="M1122.36,-536.62C1046.83,-614.2 907.09,-757.72 794.6,-873.26"/>
<polygon fill="none" stroke="black" points="792.04,-870.87 787.57,-880.48 797.05,-875.75 792.04,-870.87"/>
</g>
<!-- 3 -->
<g id="node4" class="node">
<title>3</title>
<polygon fill="none" stroke="black" points="0,-23 0,-137 730,-137 730,-23 0,-23"/>
<text text-anchor="middle" x="365" y="-121.8" font-family="sans-serif" font-size="14.00">/home/runner/work/wxyz/wxyz/envs/_base/lib/python3.8/site&#45;packages/wxyz/core/base.py.WXYZBox</text>
<polyline fill="none" stroke="black" points="0,-114 730,-114 "/>
<text text-anchor="start" x="8" y="-98.8" font-family="sans-serif" font-size="14.00">_model_module : Unicode</text>
<text text-anchor="start" x="8" y="-83.8" font-family="sans-serif" font-size="14.00">_model_module_version : Unicode</text>
<text text-anchor="start" x="8" y="-68.8" font-family="sans-serif" font-size="14.00">_view_module : Unicode</text>
<text text-anchor="start" x="8" y="-53.8" font-family="sans-serif" font-size="14.00">_view_module_version : Unicode</text>
<polyline fill="none" stroke="black" points="0,-46 730,-46 "/>
<text text-anchor="middle" x="365" y="-30.8" font-family="sans-serif" font-size="14.00"> </text>
</g>
<!-- 12 -->
<g id="node13" class="node">
<title>12</title>
<polygon fill="none" stroke="black" points="230.5,-219 230.5,-348 499.5,-348 499.5,-219 230.5,-219"/>
<text text-anchor="middle" x="365" y="-332.8" font-family="sans-serif" font-size="14.00">ipywidgets.widgets.widget_box.Box</text>
<polyline fill="none" stroke="black" points="230.5,-325 499.5,-325 "/>
<text text-anchor="start" x="238.5" y="-309.8" font-family="sans-serif" font-size="14.00">_model_name : Unicode</text>
<text text-anchor="start" x="238.5" y="-294.8" font-family="sans-serif" font-size="14.00">_view_name : Unicode</text>
<text text-anchor="start" x="238.5" y="-279.8" font-family="sans-serif" font-size="14.00">box_style : CaselessStrEnum</text>
<text text-anchor="start" x="238.5" y="-264.8" font-family="sans-serif" font-size="14.00">children</text>
<polyline fill="none" stroke="black" points="230.5,-257 499.5,-257 "/>
<text text-anchor="start" x="238.5" y="-241.8" font-family="sans-serif" font-size="14.00">__init__(children)</text>
<text text-anchor="start" x="238.5" y="-226.8" font-family="sans-serif" font-size="14.00">_fire_children_displayed()</text>
</g>
<!-- 3&#45;&gt;12 -->
<g id="edge4" class="edge">
<title>3&#45;&gt;12</title>
<path fill="none" stroke="black" d="M365,-137.13C365,-159.24 365,-184.95 365,-208.54"/>
<polygon fill="none" stroke="black" points="361.5,-208.86 365,-218.86 368.5,-208.86 361.5,-208.86"/>
</g>
<!-- 4 -->
<g id="node5" class="node">
<title>4</title>
<polygon fill="none" stroke="black" points="1534.5,-30.5 1534.5,-129.5 2289.5,-129.5 2289.5,-30.5 1534.5,-30.5"/>
<text text-anchor="middle" x="1912" y="-114.3" font-family="sans-serif" font-size="14.00">/home/runner/work/wxyz/wxyz/envs/_base/lib/python3.8/site&#45;packages/wxyz/core/base.py.WXYZ_MODE</text>
<polyline fill="none" stroke="black" points="1534.5,-106.5 2289.5,-106.5 "/>
<text text-anchor="start" x="1542.5" y="-91.3" font-family="sans-serif" font-size="14.00">both : str</text>
<text text-anchor="start" x="1542.5" y="-76.3" font-family="sans-serif" font-size="14.00">client : str</text>
<text text-anchor="start" x="1542.5" y="-61.3" font-family="sans-serif" font-size="14.00">kernel : str</text>
<polyline fill="none" stroke="black" points="1534.5,-53.5 2289.5,-53.5 "/>
<text text-anchor="middle" x="1912" y="-38.3" font-family="sans-serif" font-size="14.00"> </text>
</g>
<!-- 5 -->
<g id="node6" class="node">
<title>5</title>
<polygon fill="none" stroke="black" points="2308,-38 2308,-122 3054,-122 3054,-38 2308,-38"/>
<text text-anchor="middle" x="2681" y="-106.8" font-family="sans-serif" font-size="14.00">/home/runner/work/wxyz/wxyz/envs/_base/lib/python3.8/site&#45;packages/wxyz/core/widget_json.py.JSON</text>
<polyline fill="none" stroke="black" points="2308,-99 3054,-99 "/>
<text text-anchor="start" x="2316" y="-83.8" font-family="sans-serif" font-size="14.00">_model_name</text>
<text text-anchor="start" x="2316" y="-68.8" font-family="sans-serif" font-size="14.00">value</text>
<polyline fill="none" stroke="black" points="2308,-61 3054,-61 "/>
<text text-anchor="start" x="2316" y="-45.8" font-family="sans-serif" font-size="14.00">the_function(source)</text>
</g>
<!-- 6 -->
<g id="node7" class="node">
<title>6</title>
<polygon fill="none" stroke="black" points="3072,-23 3072,-137 3868,-137 3868,-23 3072,-23"/>
<text text-anchor="middle" x="3470" y="-121.8" font-family="sans-serif" font-size="14.00">/home/runner/work/wxyz/wxyz/envs/_base/lib/python3.8/site&#45;packages/wxyz/core/widget_json.py.JSONPointer</text>
<polyline fill="none" stroke="black" points="3072,-114 3868,-114 "/>
<text text-anchor="start" x="3080" y="-98.8" font-family="sans-serif" font-size="14.00">_model_name</text>
<text text-anchor="start" x="3080" y="-83.8" font-family="sans-serif" font-size="14.00">_observed_traits : list</text>
<text text-anchor="start" x="3080" y="-68.8" font-family="sans-serif" font-size="14.00">pointer</text>
<text text-anchor="start" x="3080" y="-53.8" font-family="sans-serif" font-size="14.00">source</text>
<polyline fill="none" stroke="black" points="3072,-46 3868,-46 "/>
<text text-anchor="start" x="3080" y="-30.8" font-family="sans-serif" font-size="14.00">the_function(source, pointer)</text>
</g>
<!-- 7 -->
<g id="node8" class="node">
<title>7</title>
<polygon fill="none" stroke="black" points="3886,-15.5 3886,-144.5 4690,-144.5 4690,-15.5 3886,-15.5"/>
<text text-anchor="middle" x="4288" y="-129.3" font-family="sans-serif" font-size="14.00">/home/runner/work/wxyz/wxyz/envs/_base/lib/python3.8/site&#45;packages/wxyz/core/widget_json.py.JSONSchema</text>
<polyline fill="none" stroke="black" points="3886,-121.5 4690,-121.5 "/>
<text text-anchor="start" x="3894" y="-106.3" font-family="sans-serif" font-size="14.00">_model_name</text>
<text text-anchor="start" x="3894" y="-91.3" font-family="sans-serif" font-size="14.00">_observed_traits : list</text>
<text text-anchor="start" x="3894" y="-76.3" font-family="sans-serif" font-size="14.00">schema</text>
<text text-anchor="start" x="3894" y="-61.3" font-family="sans-serif" font-size="14.00">source</text>
<text text-anchor="start" x="3894" y="-46.3" font-family="sans-serif" font-size="14.00">value</text>
<polyline fill="none" stroke="black" points="3886,-38.5 4690,-38.5 "/>
<text text-anchor="start" x="3894" y="-23.3" font-family="sans-serif" font-size="14.00">the_function(source, schema)</text>
</g>
<!-- 8 -->
<g id="node9" class="node">
<title>8</title>
<polygon fill="none" stroke="black" points="4708,-15.5 4708,-144.5 5474,-144.5 5474,-15.5 4708,-15.5"/>
<text text-anchor="middle" x="5091" y="-129.3" font-family="sans-serif" font-size="14.00">/home/runner/work/wxyz/wxyz/envs/_base/lib/python3.8/site&#45;packages/wxyz/core/widget_json.py.UnJSON</text>
<polyline fill="none" stroke="black" points="4708,-121.5 5474,-121.5 "/>
<text text-anchor="start" x="4716" y="-106.3" font-family="sans-serif" font-size="14.00">_model_name</text>
<text text-anchor="start" x="4716" y="-91.3" font-family="sans-serif" font-size="14.00">_observed_traits : list</text>
<text text-anchor="start" x="4716" y="-76.3" font-family="sans-serif" font-size="14.00">indent</text>
<text text-anchor="start" x="4716" y="-61.3" font-family="sans-serif" font-size="14.00">source</text>
<text text-anchor="start" x="4716" y="-46.3" font-family="sans-serif" font-size="14.00">value</text>
<polyline fill="none" stroke="black" points="4708,-38.5 5474,-38.5 "/>
<text text-anchor="start" x="4716" y="-23.3" font-family="sans-serif" font-size="14.00">the_function(source, indent)</text>
</g>
<!-- 9 -->
<g id="node10" class="node">
<title>9</title>
<polygon fill="none" stroke="black" points="111.5,-407.5 111.5,-551.5 438.5,-551.5 438.5,-407.5 111.5,-407.5"/>
<text text-anchor="middle" x="275" y="-536.3" font-family="sans-serif" font-size="14.00">ipywidgets.widgets.domwidget.DOMWidget</text>
<polyline fill="none" stroke="black" points="111.5,-528.5 438.5,-528.5 "/>
<text text-anchor="start" x="119.5" y="-513.3" font-family="sans-serif" font-size="14.00">_dom_classes</text>
<text text-anchor="start" x="119.5" y="-498.3" font-family="sans-serif" font-size="14.00">_dom_classes</text>
<text text-anchor="start" x="119.5" y="-483.3" font-family="sans-serif" font-size="14.00">_model_name : Unicode</text>
<text text-anchor="start" x="119.5" y="-468.3" font-family="sans-serif" font-size="14.00">layout</text>
<polyline fill="none" stroke="black" points="111.5,-460.5 438.5,-460.5 "/>
<text text-anchor="start" x="119.5" y="-445.3" font-family="sans-serif" font-size="14.00">_repr_keys()</text>
<text text-anchor="start" x="119.5" y="-430.3" font-family="sans-serif" font-size="14.00">add_class(className)</text>
<text text-anchor="start" x="119.5" y="-415.3" font-family="sans-serif" font-size="14.00">remove_class(className)</text>
</g>
<!-- 9&#45;&gt;11 -->
<g id="edge5" class="edge">
<title>9&#45;&gt;11</title>
<path fill="none" stroke="black" d="M318.55,-551.7C352.9,-607.88 403.19,-690.11 453.04,-771.61"/>
<polygon fill="none" stroke="black" points="450.29,-773.81 458.49,-780.52 456.26,-770.16 450.29,-773.81"/>
</g>
<!-- 10 -->
<g id="node11" class="node">
<title>10</title>
<polygon fill="none" stroke="black" points="457,-1549.5 457,-1618.5 789,-1618.5 789,-1549.5 457,-1549.5"/>
<text text-anchor="middle" x="623" y="-1603.3" font-family="sans-serif" font-size="14.00">ipywidgets.widgets.widget.LoggingHasTraits</text>
<polyline fill="none" stroke="black" points="457,-1595.5 789,-1595.5 "/>
<text text-anchor="start" x="465" y="-1580.3" font-family="sans-serif" font-size="14.00">log : Instance</text>
<polyline fill="none" stroke="black" points="457,-1572.5 789,-1572.5 "/>
<text text-anchor="start" x="465" y="-1557.3" font-family="sans-serif" font-size="14.00">_log_default()</text>
</g>
<!-- 15 -->
<g id="node16" class="node">
<title>15</title>
<polygon fill="none" stroke="black" points="465,-1655.5 465,-2234.5 781,-2234.5 781,-1655.5 465,-1655.5"/>
<text text-anchor="middle" x="623" y="-2219.3" font-family="sans-serif" font-size="14.00">traitlets.traitlets.HasTraits</text>
<polyline fill="none" stroke="black" points="465,-2211.5 781,-2211.5 "/>
<text text-anchor="start" x="473" y="-2196.3" font-family="sans-serif" font-size="14.00">__class__</text>
<text text-anchor="start" x="473" y="-2181.3" font-family="sans-serif" font-size="14.00">__dict__</text>
<text text-anchor="start" x="473" y="-2166.3" font-family="sans-serif" font-size="14.00">_cross_validation_lock : bool</text>
<text text-anchor="start" x="473" y="-2151.3" font-family="sans-serif" font-size="14.00">_trait_notifiers : dict</text>
<text text-anchor="start" x="473" y="-2136.3" font-family="sans-serif" font-size="14.00">cross_validation_lock</text>
<text text-anchor="start" x="473" y="-2121.3" font-family="sans-serif" font-size="14.00">notify_change</text>
<polyline fill="none" stroke="black" points="465,-2113.5 781,-2113.5 "/>
<text text-anchor="start" x="473" y="-2098.3" font-family="sans-serif" font-size="14.00">__getstate__()</text>
<text text-anchor="start" x="473" y="-2083.3" font-family="sans-serif" font-size="14.00">__init__()</text>
<text text-anchor="start" x="473" y="-2068.3" font-family="sans-serif" font-size="14.00">__setstate__(state)</text>
<text text-anchor="start" x="473" y="-2053.3" font-family="sans-serif" font-size="14.00">_add_notifiers(handler, name, type)</text>
<text text-anchor="start" x="473" y="-2038.3" font-family="sans-serif" font-size="14.00">_get_trait_default_generator(name)</text>
<text text-anchor="start" x="473" y="-2023.3" font-family="sans-serif" font-size="14.00">_notify_observers(event)</text>
<text text-anchor="start" x="473" y="-2008.3" font-family="sans-serif" font-size="14.00">_notify_trait(name, old_value, new_value)</text>
<text text-anchor="start" x="473" y="-1993.3" font-family="sans-serif" font-size="14.00">_register_validator(handler, names)</text>
<text text-anchor="start" x="473" y="-1978.3" font-family="sans-serif" font-size="14.00">_remove_notifiers(handler, name, type)</text>
<text text-anchor="start" x="473" y="-1963.3" font-family="sans-serif" font-size="14.00">add_traits()</text>
<text text-anchor="start" x="473" y="-1948.3" font-family="sans-serif" font-size="14.00">class_own_trait_events(cls, name)</text>
<text text-anchor="start" x="473" y="-1933.3" font-family="sans-serif" font-size="14.00">class_own_traits(cls)</text>
<text text-anchor="start" x="473" y="-1918.3" font-family="sans-serif" font-size="14.00">class_trait_names(cls)</text>
<text text-anchor="start" x="473" y="-1903.3" font-family="sans-serif" font-size="14.00">class_traits(cls)</text>
<text text-anchor="start" x="473" y="-1888.3" font-family="sans-serif" font-size="14.00">has_trait(name)</text>
<text text-anchor="start" x="473" y="-1873.3" font-family="sans-serif" font-size="14.00">hold_trait_notifications()</text>
<text text-anchor="start" x="473" y="-1858.3" font-family="sans-serif" font-size="14.00">notify_change(change)</text>
<text text-anchor="start" x="473" y="-1843.3" font-family="sans-serif" font-size="14.00">observe(handler, names, type)</text>
<text text-anchor="start" x="473" y="-1828.3" font-family="sans-serif" font-size="14.00">on_trait_change(handler, name, remove)</text>
<text text-anchor="start" x="473" y="-1813.3" font-family="sans-serif" font-size="14.00">set_trait(name, value)</text>
<text text-anchor="start" x="473" y="-1798.3" font-family="sans-serif" font-size="14.00">setup_instance()</text>
<text text-anchor="start" x="473" y="-1783.3" font-family="sans-serif" font-size="14.00">trait_defaults()</text>
<text text-anchor="start" x="473" y="-1768.3" font-family="sans-serif" font-size="14.00">trait_events(cls, name)</text>
<text text-anchor="start" x="473" y="-1753.3" font-family="sans-serif" font-size="14.00">trait_has_value(name)</text>
<text text-anchor="start" x="473" y="-1738.3" font-family="sans-serif" font-size="14.00">trait_metadata(traitname, key, default)</text>
<text text-anchor="start" x="473" y="-1723.3" font-family="sans-serif" font-size="14.00">trait_names()</text>
<text text-anchor="start" x="473" y="-1708.3" font-family="sans-serif" font-size="14.00">trait_values()</text>
<text text-anchor="start" x="473" y="-1693.3" font-family="sans-serif" font-size="14.00">traits()</text>
<text text-anchor="start" x="473" y="-1678.3" font-family="sans-serif" font-size="14.00">unobserve(handler, names, type)</text>
<text text-anchor="start" x="473" y="-1663.3" font-family="sans-serif" font-size="14.00">unobserve_all(name)</text>
</g>
<!-- 10&#45;&gt;15 -->
<g id="edge6" class="edge">
<title>10&#45;&gt;15</title>
<path fill="none" stroke="black" d="M623,-1618.77C623,-1626.56 623,-1635.46 623,-1645.23"/>
<polygon fill="none" stroke="black" points="619.5,-1645.27 623,-1655.27 626.5,-1645.27 619.5,-1645.27"/>
</g>
<!-- 11&#45;&gt;10 -->
<g id="edge7" class="edge">
<title>11&#45;&gt;10</title>
<path fill="none" stroke="black" d="M623,-1512.7C623,-1522.32 623,-1531.18 623,-1539.13"/>
<polygon fill="none" stroke="black" points="619.5,-1539.4 623,-1549.4 626.5,-1539.4 619.5,-1539.4"/>
</g>
<!-- 12&#45;&gt;9 -->
<g id="edge8" class="edge">
<title>12&#45;&gt;9</title>
<path fill="none" stroke="black" d="M335.53,-348.02C328.09,-364.06 320.01,-381.49 312.24,-398.23"/>
<polygon fill="none" stroke="black" points="309,-396.9 307.96,-407.45 315.35,-399.85 309,-396.9"/>
</g>
<!-- 13 -->
<g id="node14" class="node">
<title>13</title>
<polygon fill="none" stroke="black" points="456.5,-422.5 456.5,-536.5 789.5,-536.5 789.5,-422.5 456.5,-422.5"/>
<text text-anchor="middle" x="623" y="-521.3" font-family="sans-serif" font-size="14.00">ipywidgets.widgets.widget_core.CoreWidget</text>
<polyline fill="none" stroke="black" points="456.5,-513.5 789.5,-513.5 "/>
<text text-anchor="start" x="464.5" y="-498.3" font-family="sans-serif" font-size="14.00">_model_module : Unicode</text>
<text text-anchor="start" x="464.5" y="-483.3" font-family="sans-serif" font-size="14.00">_model_module_version : Unicode</text>
<text text-anchor="start" x="464.5" y="-468.3" font-family="sans-serif" font-size="14.00">_view_module : Unicode</text>
<text text-anchor="start" x="464.5" y="-453.3" font-family="sans-serif" font-size="14.00">_view_module_version : Unicode</text>
<polyline fill="none" stroke="black" points="456.5,-445.5 789.5,-445.5 "/>
<text text-anchor="middle" x="623" y="-430.3" font-family="sans-serif" font-size="14.00"> </text>
</g>
<!-- 12&#45;&gt;13 -->
<g id="edge9" class="edge">
<title>12&#45;&gt;13</title>
<path fill="none" stroke="black" d="M449.48,-348.02C478.63,-369.94 511.24,-394.46 540.25,-416.27"/>
<polygon fill="none" stroke="black" points="538.23,-419.14 548.33,-422.35 542.44,-413.54 538.23,-419.14"/>
</g>
<!-- 13&#45;&gt;11 -->
<g id="edge10" class="edge">
<title>13&#45;&gt;11</title>
<path fill="none" stroke="black" d="M623,-536.62C623,-548.92 623,-562.88 623,-578.13"/>
<polygon fill="none" stroke="black" points="619.5,-578.33 623,-588.33 626.5,-578.33 619.5,-578.33"/>
</g>
<!-- 14 -->
<g id="node15" class="node">
<title>14</title>
<polygon fill="none" stroke="black" points="501,-2271.5 501,-2356.5 745,-2356.5 745,-2271.5 501,-2271.5"/>
<text text-anchor="middle" x="623" y="-2341.3" font-family="sans-serif" font-size="14.00">traitlets.traitlets.HasDescriptors</text>
<polyline fill="none" stroke="black" points="501,-2333.5 745,-2333.5 "/>
<polyline fill="none" stroke="black" points="501,-2309.5 745,-2309.5 "/>
<text text-anchor="start" x="509" y="-2294.3" font-family="sans-serif" font-size="14.00">__new__()</text>
<text text-anchor="start" x="509" y="-2279.3" font-family="sans-serif" font-size="14.00">setup_instance()</text>
</g>
<!-- 15&#45;&gt;14 -->
<g id="edge11" class="edge">
<title>15&#45;&gt;14</title>
<path fill="none" stroke="black" d="M623,-2234.72C623,-2244.16 623,-2253.03 623,-2261.18"/>
<polygon fill="none" stroke="black" points="619.5,-2261.45 623,-2271.45 626.5,-2261.45 619.5,-2261.45"/>
</g>
</g>
</svg>
