<?xml version="1.0" encoding="UTF-8" standalone="no"?>
<!DOCTYPE svg PUBLIC "-//W3C//DTD SVG 1.1//EN"
 "http://www.w3.org/Graphics/SVG/1.1/DTD/svg11.dtd">
<!-- Generated by graphviz version 2.42.3 (20191010.1750)
 -->
<!-- Title: classes_json_schema_form Pages: 1 -->
<svg width="2006pt" height="2320pt"
 viewBox="0.00 0.00 2005.50 2320.00" xmlns="http://www.w3.org/2000/svg" xmlns:xlink="http://www.w3.org/1999/xlink">
<g id="graph0" class="graph" transform="scale(1 1) rotate(0) translate(4 2316)">
<title>classes_json_schema_form</title>
<polygon fill="white" stroke="transparent" points="-4,4 -4,-2316 2001.5,-2316 2001.5,4 -4,4"/>
<!-- 0 -->
<g id="node1" class="node">
<title>0</title>
<polygon fill="none" stroke="black" points="0,-15.5 0,-129.5 929,-129.5 929,-15.5 0,-15.5"/>
<text text-anchor="middle" x="464.5" y="-114.3" font-family="sans-serif" font-size="14.00">/home/runner/work/wxyz/wxyz/envs/_base/lib/python3.8/site&#45;packages/wxyz/json_schema_form/base.py.JSONSchemaFormBase</text>
<polyline fill="none" stroke="black" points="0,-106.5 929,-106.5 "/>
<text text-anchor="start" x="8" y="-91.3" font-family="sans-serif" font-size="14.00">_model_module : Unicode</text>
<text text-anchor="start" x="8" y="-76.3" font-family="sans-serif" font-size="14.00">_model_module_version : Unicode</text>
<text text-anchor="start" x="8" y="-61.3" font-family="sans-serif" font-size="14.00">_view_module : Unicode</text>
<text text-anchor="start" x="8" y="-46.3" font-family="sans-serif" font-size="14.00">_view_module_version : Unicode</text>
<polyline fill="none" stroke="black" points="0,-38.5 929,-38.5 "/>
<text text-anchor="middle" x="464.5" y="-23.3" font-family="sans-serif" font-size="14.00"> </text>
</g>
<!-- 6 -->
<g id="node7" class="node">
<title>6</title>
<polygon fill="none" stroke="black" points="333.5,-181.5 333.5,-355.5 595.5,-355.5 595.5,-181.5 333.5,-181.5"/>
<text text-anchor="middle" x="464.5" y="-340.3" font-family="sans-serif" font-size="14.00">wxyz.core.base.Base</text>
<polyline fill="none" stroke="black" points="333.5,-332.5 595.5,-332.5 "/>
<text text-anchor="start" x="341.5" y="-317.3" font-family="sans-serif" font-size="14.00">_model_module : Unicode</text>
<text text-anchor="start" x="341.5" y="-302.3" font-family="sans-serif" font-size="14.00">_model_module_version : Unicode</text>
<text text-anchor="start" x="341.5" y="-287.3" font-family="sans-serif" font-size="14.00">_view_module : Unicode</text>
<text text-anchor="start" x="341.5" y="-272.3" font-family="sans-serif" font-size="14.00">_view_module_version : Unicode</text>
<text text-anchor="start" x="341.5" y="-257.3" font-family="sans-serif" font-size="14.00">closable : Bool</text>
<text text-anchor="start" x="341.5" y="-242.3" font-family="sans-serif" font-size="14.00">description : Unicode</text>
<text text-anchor="start" x="341.5" y="-227.3" font-family="sans-serif" font-size="14.00">error : CUnicode</text>
<text text-anchor="start" x="341.5" y="-212.3" font-family="sans-serif" font-size="14.00">icon_class : Unicode</text>
<polyline fill="none" stroke="black" points="333.5,-204.5 595.5,-204.5 "/>
<text text-anchor="middle" x="464.5" y="-189.3" font-family="sans-serif" font-size="14.00"> </text>
</g>
<!-- 0&#45;&gt;6 -->
<g id="edge1" class="edge">
<title>0&#45;&gt;6</title>
<path fill="none" stroke="black" d="M464.5,-129.61C464.5,-142.58 464.5,-156.74 464.5,-170.89"/>
<polygon fill="none" stroke="black" points="461,-171.17 464.5,-181.17 468,-171.17 461,-171.17"/>
</g>
<!-- 1 -->
<g id="node2" class="node">
<title>1</title>
<polygon fill="none" stroke="black" points="947.5,-0.5 947.5,-144.5 1997.5,-144.5 1997.5,-0.5 947.5,-0.5"/>
<text text-anchor="middle" x="1472.5" y="-129.3" font-family="sans-serif" font-size="14.00">/home/runner/work/wxyz/wxyz/envs/_base/lib/python3.8/site&#45;packages/wxyz/json_schema_form/widget_json_schema_form.py.JSONSchemaForm</text>
<polyline fill="none" stroke="black" points="947.5,-121.5 1997.5,-121.5 "/>
<text text-anchor="start" x="955.5" y="-106.3" font-family="sans-serif" font-size="14.00">_model_name</text>
<text text-anchor="start" x="955.5" y="-91.3" font-family="sans-serif" font-size="14.00">_view_name</text>
<text text-anchor="start" x="955.5" y="-76.3" font-family="sans-serif" font-size="14.00">errors</text>
<text text-anchor="start" x="955.5" y="-61.3" font-family="sans-serif" font-size="14.00">schema</text>
<text text-anchor="start" x="955.5" y="-46.3" font-family="sans-serif" font-size="14.00">ui_schema</text>
<text text-anchor="start" x="955.5" y="-31.3" font-family="sans-serif" font-size="14.00">value</text>
<polyline fill="none" stroke="black" points="947.5,-23.5 1997.5,-23.5 "/>
<text text-anchor="middle" x="1472.5" y="-8.3" font-family="sans-serif" font-size="14.00"> </text>
</g>
<!-- 2 -->
<g id="node3" class="node">
<title>2</title>
<polygon fill="none" stroke="black" points="298.5,-1504.5 298.5,-1573.5 630.5,-1573.5 630.5,-1504.5 298.5,-1504.5"/>
<text text-anchor="middle" x="464.5" y="-1558.3" font-family="sans-serif" font-size="14.00">ipywidgets.widgets.widget.LoggingHasTraits</text>
<polyline fill="none" stroke="black" points="298.5,-1550.5 630.5,-1550.5 "/>
<text text-anchor="start" x="306.5" y="-1535.3" font-family="sans-serif" font-size="14.00">log : Instance</text>
<polyline fill="none" stroke="black" points="298.5,-1527.5 630.5,-1527.5 "/>
<text text-anchor="start" x="306.5" y="-1512.3" font-family="sans-serif" font-size="14.00">_log_default()</text>
</g>
<!-- 5 -->
<g id="node6" class="node">
<title>5</title>
<polygon fill="none" stroke="black" points="306.5,-1610.5 306.5,-2189.5 622.5,-2189.5 622.5,-1610.5 306.5,-1610.5"/>
<text text-anchor="middle" x="464.5" y="-2174.3" font-family="sans-serif" font-size="14.00">traitlets.traitlets.HasTraits</text>
<polyline fill="none" stroke="black" points="306.5,-2166.5 622.5,-2166.5 "/>
<text text-anchor="start" x="314.5" y="-2151.3" font-family="sans-serif" font-size="14.00">__class__</text>
<text text-anchor="start" x="314.5" y="-2136.3" font-family="sans-serif" font-size="14.00">__dict__</text>
<text text-anchor="start" x="314.5" y="-2121.3" font-family="sans-serif" font-size="14.00">_cross_validation_lock : bool</text>
<text text-anchor="start" x="314.5" y="-2106.3" font-family="sans-serif" font-size="14.00">_trait_notifiers : dict</text>
<text text-anchor="start" x="314.5" y="-2091.3" font-family="sans-serif" font-size="14.00">cross_validation_lock</text>
<text text-anchor="start" x="314.5" y="-2076.3" font-family="sans-serif" font-size="14.00">notify_change</text>
<polyline fill="none" stroke="black" points="306.5,-2068.5 622.5,-2068.5 "/>
<text text-anchor="start" x="314.5" y="-2053.3" font-family="sans-serif" font-size="14.00">__getstate__()</text>
<text text-anchor="start" x="314.5" y="-2038.3" font-family="sans-serif" font-size="14.00">__init__()</text>
<text text-anchor="start" x="314.5" y="-2023.3" font-family="sans-serif" font-size="14.00">__setstate__(state)</text>
<text text-anchor="start" x="314.5" y="-2008.3" font-family="sans-serif" font-size="14.00">_add_notifiers(handler, name, type)</text>
<text text-anchor="start" x="314.5" y="-1993.3" font-family="sans-serif" font-size="14.00">_get_trait_default_generator(name)</text>
<text text-anchor="start" x="314.5" y="-1978.3" font-family="sans-serif" font-size="14.00">_notify_observers(event)</text>
<text text-anchor="start" x="314.5" y="-1963.3" font-family="sans-serif" font-size="14.00">_notify_trait(name, old_value, new_value)</text>
<text text-anchor="start" x="314.5" y="-1948.3" font-family="sans-serif" font-size="14.00">_register_validator(handler, names)</text>
<text text-anchor="start" x="314.5" y="-1933.3" font-family="sans-serif" font-size="14.00">_remove_notifiers(handler, name, type)</text>
<text text-anchor="start" x="314.5" y="-1918.3" font-family="sans-serif" font-size="14.00">add_traits()</text>
<text text-anchor="start" x="314.5" y="-1903.3" font-family="sans-serif" font-size="14.00">class_own_trait_events(cls, name)</text>
<text text-anchor="start" x="314.5" y="-1888.3" font-family="sans-serif" font-size="14.00">class_own_traits(cls)</text>
<text text-anchor="start" x="314.5" y="-1873.3" font-family="sans-serif" font-size="14.00">class_trait_names(cls)</text>
<text text-anchor="start" x="314.5" y="-1858.3" font-family="sans-serif" font-size="14.00">class_traits(cls)</text>
<text text-anchor="start" x="314.5" y="-1843.3" font-family="sans-serif" font-size="14.00">has_trait(name)</text>
<text text-anchor="start" x="314.5" y="-1828.3" font-family="sans-serif" font-size="14.00">hold_trait_notifications()</text>
<text text-anchor="start" x="314.5" y="-1813.3" font-family="sans-serif" font-size="14.00">notify_change(change)</text>
<text text-anchor="start" x="314.5" y="-1798.3" font-family="sans-serif" font-size="14.00">observe(handler, names, type)</text>
<text text-anchor="start" x="314.5" y="-1783.3" font-family="sans-serif" font-size="14.00">on_trait_change(handler, name, remove)</text>
<text text-anchor="start" x="314.5" y="-1768.3" font-family="sans-serif" font-size="14.00">set_trait(name, value)</text>
<text text-anchor="start" x="314.5" y="-1753.3" font-family="sans-serif" font-size="14.00">setup_instance()</text>
<text text-anchor="start" x="314.5" y="-1738.3" font-family="sans-serif" font-size="14.00">trait_defaults()</text>
<text text-anchor="start" x="314.5" y="-1723.3" font-family="sans-serif" font-size="14.00">trait_events(cls, name)</text>
<text text-anchor="start" x="314.5" y="-1708.3" font-family="sans-serif" font-size="14.00">trait_has_value(name)</text>
<text text-anchor="start" x="314.5" y="-1693.3" font-family="sans-serif" font-size="14.00">trait_metadata(traitname, key, default)</text>
<text text-anchor="start" x="314.5" y="-1678.3" font-family="sans-serif" font-size="14.00">trait_names()</text>
<text text-anchor="start" x="314.5" y="-1663.3" font-family="sans-serif" font-size="14.00">trait_values()</text>
<text text-anchor="start" x="314.5" y="-1648.3" font-family="sans-serif" font-size="14.00">traits()</text>
<text text-anchor="start" x="314.5" y="-1633.3" font-family="sans-serif" font-size="14.00">unobserve(handler, names, type)</text>
<text text-anchor="start" x="314.5" y="-1618.3" font-family="sans-serif" font-size="14.00">unobserve_all(name)</text>
</g>
<!-- 2&#45;&gt;5 -->
<g id="edge2" class="edge">
<title>2&#45;&gt;5</title>
<path fill="none" stroke="black" d="M464.5,-1573.77C464.5,-1581.56 464.5,-1590.46 464.5,-1600.23"/>
<polygon fill="none" stroke="black" points="461,-1600.27 464.5,-1610.27 468,-1600.27 461,-1600.27"/>
</g>
<!-- 3 -->
<g id="node4" class="node">
<title>3</title>
<polygon fill="none" stroke="black" points="300,-543.5 300,-1467.5 629,-1467.5 629,-543.5 300,-543.5"/>
<text text-anchor="middle" x="464.5" y="-1452.3" font-family="sans-serif" font-size="14.00">ipywidgets.widgets.widget.Widget</text>
<polyline fill="none" stroke="black" points="300,-1444.5 629,-1444.5 "/>
<text text-anchor="start" x="308" y="-1429.3" font-family="sans-serif" font-size="14.00">_display_callbacks : Instance</text>
<text text-anchor="start" x="308" y="-1414.3" font-family="sans-serif" font-size="14.00">_holding_sync : bool</text>
<text text-anchor="start" x="308" y="-1399.3" font-family="sans-serif" font-size="14.00">_holding_sync : bool</text>
<text text-anchor="start" x="308" y="-1384.3" font-family="sans-serif" font-size="14.00">_ipython_display_ : NoneType</text>
<text text-anchor="start" x="308" y="-1369.3" font-family="sans-serif" font-size="14.00">_model_id</text>
<text text-anchor="start" x="308" y="-1354.3" font-family="sans-serif" font-size="14.00">_model_module : Unicode</text>
<text text-anchor="start" x="308" y="-1339.3" font-family="sans-serif" font-size="14.00">_model_module_version : Unicode</text>
<text text-anchor="start" x="308" y="-1324.3" font-family="sans-serif" font-size="14.00">_model_name : Unicode</text>
<text text-anchor="start" x="308" y="-1309.3" font-family="sans-serif" font-size="14.00">_msg_callbacks : Instance</text>
<text text-anchor="start" x="308" y="-1294.3" font-family="sans-serif" font-size="14.00">_property_lock : Dict</text>
<text text-anchor="start" x="308" y="-1279.3" font-family="sans-serif" font-size="14.00">_property_lock : dict</text>
<text text-anchor="start" x="308" y="-1264.3" font-family="sans-serif" font-size="14.00">_states_to_send : Set</text>
<text text-anchor="start" x="308" y="-1249.3" font-family="sans-serif" font-size="14.00">_view_count : Int</text>
<text text-anchor="start" x="308" y="-1234.3" font-family="sans-serif" font-size="14.00">_view_module : Unicode</text>
<text text-anchor="start" x="308" y="-1219.3" font-family="sans-serif" font-size="14.00">_view_module_version : Unicode</text>
<text text-anchor="start" x="308" y="-1204.3" font-family="sans-serif" font-size="14.00">_view_name : Unicode</text>
<text text-anchor="start" x="308" y="-1189.3" font-family="sans-serif" font-size="14.00">_widget_construction_callback : NoneType</text>
<text text-anchor="start" x="308" y="-1174.3" font-family="sans-serif" font-size="14.00">comm : Instance</text>
<text text-anchor="start" x="308" y="-1159.3" font-family="sans-serif" font-size="14.00">comm : NoneType, Comm</text>
<text text-anchor="start" x="308" y="-1144.3" font-family="sans-serif" font-size="14.00">keys : List</text>
<text text-anchor="start" x="308" y="-1129.3" font-family="sans-serif" font-size="14.00">model_id</text>
<text text-anchor="start" x="308" y="-1114.3" font-family="sans-serif" font-size="14.00">widget_types : WidgetRegistry</text>
<text text-anchor="start" x="308" y="-1099.3" font-family="sans-serif" font-size="14.00">widgets : dict</text>
<polyline fill="none" stroke="black" points="300,-1091.5 629,-1091.5 "/>
<text text-anchor="start" x="308" y="-1076.3" font-family="sans-serif" font-size="14.00">__del__()</text>
<text text-anchor="start" x="308" y="-1061.3" font-family="sans-serif" font-size="14.00">__init__()</text>
<text text-anchor="start" x="308" y="-1046.3" font-family="sans-serif" font-size="14.00">__repr__()</text>
<text text-anchor="start" x="308" y="-1031.3" font-family="sans-serif" font-size="14.00">_call_widget_constructed(widget)</text>
<text text-anchor="start" x="308" y="-1016.3" font-family="sans-serif" font-size="14.00">_comm_changed(change)</text>
<text text-anchor="start" x="308" y="-1001.3" font-family="sans-serif" font-size="14.00">_compare(a, b)</text>
<text text-anchor="start" x="308" y="-986.3" font-family="sans-serif" font-size="14.00">_default_keys()</text>
<text text-anchor="start" x="308" y="-971.3" font-family="sans-serif" font-size="14.00">_gen_repr_from_keys(keys)</text>
<text text-anchor="start" x="308" y="-956.3" font-family="sans-serif" font-size="14.00">_get_embed_state(drop_defaults)</text>
<text text-anchor="start" x="308" y="-941.3" font-family="sans-serif" font-size="14.00">_handle_custom_msg(content, buffers)</text>
<text text-anchor="start" x="308" y="-926.3" font-family="sans-serif" font-size="14.00">_handle_displayed()</text>
<text text-anchor="start" x="308" y="-911.3" font-family="sans-serif" font-size="14.00">_handle_msg(msg)</text>
<text text-anchor="start" x="308" y="-896.3" font-family="sans-serif" font-size="14.00">_ipython_display_()</text>
<text text-anchor="start" x="308" y="-881.3" font-family="sans-serif" font-size="14.00">_is_numpy(x)</text>
<text text-anchor="start" x="308" y="-866.3" font-family="sans-serif" font-size="14.00">_lock_property()</text>
<text text-anchor="start" x="308" y="-851.3" font-family="sans-serif" font-size="14.00">_repr_keys()</text>
<text text-anchor="start" x="308" y="-836.3" font-family="sans-serif" font-size="14.00">_send(msg, buffers)</text>
<text text-anchor="start" x="308" y="-821.3" font-family="sans-serif" font-size="14.00">_should_send_property(key, value)</text>
<text text-anchor="start" x="308" y="-806.3" font-family="sans-serif" font-size="14.00">_trait_from_json(x)</text>
<text text-anchor="start" x="308" y="-791.3" font-family="sans-serif" font-size="14.00">_trait_to_json(x)</text>
<text text-anchor="start" x="308" y="-776.3" font-family="sans-serif" font-size="14.00">add_traits()</text>
<text text-anchor="start" x="308" y="-761.3" font-family="sans-serif" font-size="14.00">close()</text>
<text text-anchor="start" x="308" y="-746.3" font-family="sans-serif" font-size="14.00">close_all(cls)</text>
<text text-anchor="start" x="308" y="-731.3" font-family="sans-serif" font-size="14.00">get_manager_state(drop_defaults, widgets)</text>
<text text-anchor="start" x="308" y="-716.3" font-family="sans-serif" font-size="14.00">get_state(key, drop_defaults)</text>
<text text-anchor="start" x="308" y="-701.3" font-family="sans-serif" font-size="14.00">get_view_spec()</text>
<text text-anchor="start" x="308" y="-686.3" font-family="sans-serif" font-size="14.00">handle_comm_opened(comm, msg)</text>
<text text-anchor="start" x="308" y="-671.3" font-family="sans-serif" font-size="14.00">hold_sync()</text>
<text text-anchor="start" x="308" y="-656.3" font-family="sans-serif" font-size="14.00">notify_change(change)</text>
<text text-anchor="start" x="308" y="-641.3" font-family="sans-serif" font-size="14.00">on_displayed(callback, remove)</text>
<text text-anchor="start" x="308" y="-626.3" font-family="sans-serif" font-size="14.00">on_msg(callback, remove)</text>
<text text-anchor="start" x="308" y="-611.3" font-family="sans-serif" font-size="14.00">on_widget_constructed(callback)</text>
<text text-anchor="start" x="308" y="-596.3" font-family="sans-serif" font-size="14.00">open()</text>
<text text-anchor="start" x="308" y="-581.3" font-family="sans-serif" font-size="14.00">send(content, buffers)</text>
<text text-anchor="start" x="308" y="-566.3" font-family="sans-serif" font-size="14.00">send_state(key)</text>
<text text-anchor="start" x="308" y="-551.3" font-family="sans-serif" font-size="14.00">set_state(sync_data)</text>
</g>
<!-- 3&#45;&gt;2 -->
<g id="edge3" class="edge">
<title>3&#45;&gt;2</title>
<path fill="none" stroke="black" d="M464.5,-1467.7C464.5,-1477.32 464.5,-1486.18 464.5,-1494.13"/>
<polygon fill="none" stroke="black" points="461,-1494.4 464.5,-1504.4 468,-1494.4 461,-1494.4"/>
</g>
<!-- 4 -->
<g id="node5" class="node">
<title>4</title>
<polygon fill="none" stroke="black" points="342.5,-2226.5 342.5,-2311.5 586.5,-2311.5 586.5,-2226.5 342.5,-2226.5"/>
<text text-anchor="middle" x="464.5" y="-2296.3" font-family="sans-serif" font-size="14.00">traitlets.traitlets.HasDescriptors</text>
<polyline fill="none" stroke="black" points="342.5,-2288.5 586.5,-2288.5 "/>
<polyline fill="none" stroke="black" points="342.5,-2264.5 586.5,-2264.5 "/>
<text text-anchor="start" x="350.5" y="-2249.3" font-family="sans-serif" font-size="14.00">__new__()</text>
<text text-anchor="start" x="350.5" y="-2234.3" font-family="sans-serif" font-size="14.00">setup_instance()</text>
</g>
<!-- 5&#45;&gt;4 -->
<g id="edge4" class="edge">
<title>5&#45;&gt;4</title>
<path fill="none" stroke="black" d="M464.5,-2189.72C464.5,-2199.16 464.5,-2208.03 464.5,-2216.18"/>
<polygon fill="none" stroke="black" points="461,-2216.45 464.5,-2226.45 468,-2216.45 461,-2216.45"/>
</g>
<!-- 7 -->
<g id="node8" class="node">
<title>7</title>
<polygon fill="none" stroke="black" points="333.5,-392.5 333.5,-506.5 595.5,-506.5 595.5,-392.5 333.5,-392.5"/>
<text text-anchor="middle" x="464.5" y="-491.3" font-family="sans-serif" font-size="14.00">wxyz.core.base.WXYZBase</text>
<polyline fill="none" stroke="black" points="333.5,-483.5 595.5,-483.5 "/>
<text text-anchor="start" x="341.5" y="-468.3" font-family="sans-serif" font-size="14.00">_model_module : Unicode</text>
<text text-anchor="start" x="341.5" y="-453.3" font-family="sans-serif" font-size="14.00">_model_module_version : Unicode</text>
<text text-anchor="start" x="341.5" y="-438.3" font-family="sans-serif" font-size="14.00">_view_module : Unicode</text>
<text text-anchor="start" x="341.5" y="-423.3" font-family="sans-serif" font-size="14.00">_view_module_version : Unicode</text>
<polyline fill="none" stroke="black" points="333.5,-415.5 595.5,-415.5 "/>
<text text-anchor="middle" x="464.5" y="-400.3" font-family="sans-serif" font-size="14.00"> </text>
</g>
<!-- 6&#45;&gt;7 -->
<g id="edge5" class="edge">
<title>6&#45;&gt;7</title>
<path fill="none" stroke="black" d="M464.5,-355.59C464.5,-364.6 464.5,-373.66 464.5,-382.4"/>
<polygon fill="none" stroke="black" points="461,-382.49 464.5,-392.49 468,-382.49 461,-382.49"/>
</g>
<!-- 7&#45;&gt;3 -->
<g id="edge6" class="edge">
<title>7&#45;&gt;3</title>
<path fill="none" stroke="black" d="M464.5,-506.67C464.5,-514.84 464.5,-523.73 464.5,-533.24"/>
<polygon fill="none" stroke="black" points="461,-533.36 464.5,-543.36 468,-533.36 461,-533.36"/>
</g>
</g>
</svg>
