<?xml version="1.0" encoding="UTF-8" standalone="no"?>
<!DOCTYPE svg PUBLIC "-//W3C//DTD SVG 1.1//EN"
 "http://www.w3.org/Graphics/SVG/1.1/DTD/svg11.dtd">
<!-- Generated by graphviz version 2.42.3 (20191010.1750)
 -->
<!-- Title: classes_lab Pages: 1 -->
<svg width="6025pt" height="2951pt"
 viewBox="0.00 0.00 6024.50 2951.00" xmlns="http://www.w3.org/2000/svg" xmlns:xlink="http://www.w3.org/1999/xlink">
<g id="graph0" class="graph" transform="scale(1 1) rotate(0) translate(4 2947)">
<title>classes_lab</title>
<polygon fill="white" stroke="transparent" points="-4,4 -4,-2947 6020.5,-2947 6020.5,4 -4,4"/>
<!-- 0 -->
<g id="node1" class="node">
<title>0</title>
<polygon fill="none" stroke="black" points="0,-639 0,-753 713,-753 713,-639 0,-639"/>
<text text-anchor="middle" x="356.5" y="-737.8" font-family="sans-serif" font-size="14.00">/home/runner/work/wxyz/wxyz/envs/_base/lib/python3.8/site&#45;packages/wxyz/lab/base.py.LabBase</text>
<polyline fill="none" stroke="black" points="0,-730 713,-730 "/>
<text text-anchor="start" x="8" y="-714.8" font-family="sans-serif" font-size="14.00">_model_module : Unicode</text>
<text text-anchor="start" x="8" y="-699.8" font-family="sans-serif" font-size="14.00">_model_module_version : Unicode</text>
<text text-anchor="start" x="8" y="-684.8" font-family="sans-serif" font-size="14.00">_view_module : Unicode</text>
<text text-anchor="start" x="8" y="-669.8" font-family="sans-serif" font-size="14.00">_view_module_version : Unicode</text>
<polyline fill="none" stroke="black" points="0,-662 713,-662 "/>
<text text-anchor="middle" x="356.5" y="-646.8" font-family="sans-serif" font-size="14.00"> </text>
</g>
<!-- 12 -->
<g id="node13" class="node">
<title>12</title>
<polygon fill="none" stroke="black" points="454.5,-812.5 454.5,-986.5 716.5,-986.5 716.5,-812.5 454.5,-812.5"/>
<text text-anchor="middle" x="585.5" y="-971.3" font-family="sans-serif" font-size="14.00">wxyz.core.base.Base</text>
<polyline fill="none" stroke="black" points="454.5,-963.5 716.5,-963.5 "/>
<text text-anchor="start" x="462.5" y="-948.3" font-family="sans-serif" font-size="14.00">_model_module : Unicode</text>
<text text-anchor="start" x="462.5" y="-933.3" font-family="sans-serif" font-size="14.00">_model_module_version : Unicode</text>
<text text-anchor="start" x="462.5" y="-918.3" font-family="sans-serif" font-size="14.00">_view_module : Unicode</text>
<text text-anchor="start" x="462.5" y="-903.3" font-family="sans-serif" font-size="14.00">_view_module_version : Unicode</text>
<text text-anchor="start" x="462.5" y="-888.3" font-family="sans-serif" font-size="14.00">closable : Bool</text>
<text text-anchor="start" x="462.5" y="-873.3" font-family="sans-serif" font-size="14.00">description : Unicode</text>
<text text-anchor="start" x="462.5" y="-858.3" font-family="sans-serif" font-size="14.00">error : CUnicode</text>
<text text-anchor="start" x="462.5" y="-843.3" font-family="sans-serif" font-size="14.00">icon_class : Unicode</text>
<polyline fill="none" stroke="black" points="454.5,-835.5 716.5,-835.5 "/>
<text text-anchor="middle" x="585.5" y="-820.3" font-family="sans-serif" font-size="14.00"> </text>
</g>
<!-- 0&#45;&gt;12 -->
<g id="edge1" class="edge">
<title>0&#45;&gt;12</title>
<path fill="none" stroke="black" d="M420.29,-753.13C438.71,-769.34 459.33,-787.48 479.59,-805.31"/>
<polygon fill="none" stroke="black" points="477.51,-808.14 487.33,-812.12 482.14,-802.89 477.51,-808.14"/>
</g>
<!-- 1 -->
<g id="node2" class="node">
<title>1</title>
<polygon fill="none" stroke="black" points="1245.5,-210.5 1245.5,-369.5 2013.5,-369.5 2013.5,-210.5 1245.5,-210.5"/>
<text text-anchor="middle" x="1629.5" y="-354.3" font-family="sans-serif" font-size="14.00">/home/runner/work/wxyz/wxyz/envs/_base/lib/python3.8/site&#45;packages/wxyz/lab/widget_dock.py.DockBox</text>
<polyline fill="none" stroke="black" points="1245.5,-346.5 2013.5,-346.5 "/>
<text text-anchor="start" x="1253.5" y="-331.3" font-family="sans-serif" font-size="14.00">_model_name</text>
<text text-anchor="start" x="1253.5" y="-316.3" font-family="sans-serif" font-size="14.00">_view_name</text>
<text text-anchor="start" x="1253.5" y="-301.3" font-family="sans-serif" font-size="14.00">border_size</text>
<text text-anchor="start" x="1253.5" y="-286.3" font-family="sans-serif" font-size="14.00">dock_layout</text>
<text text-anchor="start" x="1253.5" y="-271.3" font-family="sans-serif" font-size="14.00">hide_tabs</text>
<text text-anchor="start" x="1253.5" y="-256.3" font-family="sans-serif" font-size="14.00">spacing</text>
<text text-anchor="start" x="1253.5" y="-241.3" font-family="sans-serif" font-size="14.00">tab_size</text>
<polyline fill="none" stroke="black" points="1245.5,-233.5 2013.5,-233.5 "/>
<text text-anchor="middle" x="1629.5" y="-218.3" font-family="sans-serif" font-size="14.00"> </text>
</g>
<!-- 2 -->
<g id="node3" class="node">
<title>2</title>
<polygon fill="none" stroke="black" points="2032,-240.5 2032,-339.5 2799,-339.5 2799,-240.5 2032,-240.5"/>
<text text-anchor="middle" x="2415.5" y="-324.3" font-family="sans-serif" font-size="14.00">/home/runner/work/wxyz/wxyz/envs/_base/lib/python3.8/site&#45;packages/wxyz/lab/widget_dock.py.DockPop</text>
<polyline fill="none" stroke="black" points="2032,-316.5 2799,-316.5 "/>
<text text-anchor="start" x="2040" y="-301.3" font-family="sans-serif" font-size="14.00">_model_name</text>
<text text-anchor="start" x="2040" y="-286.3" font-family="sans-serif" font-size="14.00">_view_name</text>
<text text-anchor="start" x="2040" y="-271.3" font-family="sans-serif" font-size="14.00">mode</text>
<polyline fill="none" stroke="black" points="2032,-263.5 2799,-263.5 "/>
<text text-anchor="middle" x="2415.5" y="-248.3" font-family="sans-serif" font-size="14.00"> </text>
</g>
<!-- 3 -->
<g id="node4" class="node">
<title>3</title>
<polygon fill="none" stroke="black" points="2817,-218 2817,-362 3572,-362 3572,-218 2817,-218"/>
<text text-anchor="middle" x="3194.5" y="-346.8" font-family="sans-serif" font-size="14.00">/home/runner/work/wxyz/wxyz/envs/_base/lib/python3.8/site&#45;packages/wxyz/lab/widget_editor.py.Editor</text>
<polyline fill="none" stroke="black" points="2817,-339 3572,-339 "/>
<text text-anchor="start" x="2825" y="-323.8" font-family="sans-serif" font-size="14.00">_model_name</text>
<text text-anchor="start" x="2825" y="-308.8" font-family="sans-serif" font-size="14.00">_view_name</text>
<text text-anchor="start" x="2825" y="-293.8" font-family="sans-serif" font-size="14.00">config</text>
<text text-anchor="start" x="2825" y="-278.8" font-family="sans-serif" font-size="14.00">scroll_x</text>
<text text-anchor="start" x="2825" y="-263.8" font-family="sans-serif" font-size="14.00">scroll_y</text>
<text text-anchor="start" x="2825" y="-248.8" font-family="sans-serif" font-size="14.00">value</text>
<polyline fill="none" stroke="black" points="2817,-241 3572,-241 "/>
<text text-anchor="middle" x="3194.5" y="-225.8" font-family="sans-serif" font-size="14.00"> </text>
</g>
<!-- 4 -->
<g id="node5" class="node">
<title>4</title>
<polygon fill="none" stroke="black" points="3590.5,-0.5 3590.5,-579.5 4390.5,-579.5 4390.5,-0.5 3590.5,-0.5"/>
<text text-anchor="middle" x="3990.5" y="-564.3" font-family="sans-serif" font-size="14.00">/home/runner/work/wxyz/wxyz/envs/_base/lib/python3.8/site&#45;packages/wxyz/lab/widget_editor.py.EditorConfig</text>
<polyline fill="none" stroke="black" points="3590.5,-556.5 4390.5,-556.5 "/>
<text text-anchor="start" x="3598.5" y="-541.3" font-family="sans-serif" font-size="14.00">_model_module</text>
<text text-anchor="start" x="3598.5" y="-526.3" font-family="sans-serif" font-size="14.00">_model_module_version</text>
<text text-anchor="start" x="3598.5" y="-511.3" font-family="sans-serif" font-size="14.00">_model_name</text>
<text text-anchor="start" x="3598.5" y="-496.3" font-family="sans-serif" font-size="14.00">autofocus</text>
<text text-anchor="start" x="3598.5" y="-481.3" font-family="sans-serif" font-size="14.00">cursorBlinkRate</text>
<text text-anchor="start" x="3598.5" y="-466.3" font-family="sans-serif" font-size="14.00">cursorHeight</text>
<text text-anchor="start" x="3598.5" y="-451.3" font-family="sans-serif" font-size="14.00">dragDrop</text>
<text text-anchor="start" x="3598.5" y="-436.3" font-family="sans-serif" font-size="14.00">electricChars</text>
<text text-anchor="start" x="3598.5" y="-421.3" font-family="sans-serif" font-size="14.00">firstLineNumber</text>
<text text-anchor="start" x="3598.5" y="-406.3" font-family="sans-serif" font-size="14.00">fixedGutter</text>
<text text-anchor="start" x="3598.5" y="-391.3" font-family="sans-serif" font-size="14.00">flattenSpans</text>
<text text-anchor="start" x="3598.5" y="-376.3" font-family="sans-serif" font-size="14.00">foldGutter</text>
<text text-anchor="start" x="3598.5" y="-361.3" font-family="sans-serif" font-size="14.00">gutters</text>
<text text-anchor="start" x="3598.5" y="-346.3" font-family="sans-serif" font-size="14.00">historyEventDelay</text>
<text text-anchor="start" x="3598.5" y="-331.3" font-family="sans-serif" font-size="14.00">indentUnit</text>
<text text-anchor="start" x="3598.5" y="-316.3" font-family="sans-serif" font-size="14.00">indentWithTabs</text>
<text text-anchor="start" x="3598.5" y="-301.3" font-family="sans-serif" font-size="14.00">keyMap</text>
<text text-anchor="start" x="3598.5" y="-286.3" font-family="sans-serif" font-size="14.00">lineNumbers</text>
<text text-anchor="start" x="3598.5" y="-271.3" font-family="sans-serif" font-size="14.00">lineWrapping</text>
<text text-anchor="start" x="3598.5" y="-256.3" font-family="sans-serif" font-size="14.00">maxHighlightLength</text>
<text text-anchor="start" x="3598.5" y="-241.3" font-family="sans-serif" font-size="14.00">mode</text>
<text text-anchor="start" x="3598.5" y="-226.3" font-family="sans-serif" font-size="14.00">placeholder</text>
<text text-anchor="start" x="3598.5" y="-211.3" font-family="sans-serif" font-size="14.00">pollInterval</text>
<text text-anchor="start" x="3598.5" y="-196.3" font-family="sans-serif" font-size="14.00">readOnly</text>
<text text-anchor="start" x="3598.5" y="-181.3" font-family="sans-serif" font-size="14.00">rtlMoveVisually</text>
<text text-anchor="start" x="3598.5" y="-166.3" font-family="sans-serif" font-size="14.00">scrollbarStyle</text>
<text text-anchor="start" x="3598.5" y="-151.3" font-family="sans-serif" font-size="14.00">showCursorWhenSelecting</text>
<text text-anchor="start" x="3598.5" y="-136.3" font-family="sans-serif" font-size="14.00">smartIndent</text>
<text text-anchor="start" x="3598.5" y="-121.3" font-family="sans-serif" font-size="14.00">tabSize</text>
<text text-anchor="start" x="3598.5" y="-106.3" font-family="sans-serif" font-size="14.00">tabindex</text>
<text text-anchor="start" x="3598.5" y="-91.3" font-family="sans-serif" font-size="14.00">theme</text>
<text text-anchor="start" x="3598.5" y="-76.3" font-family="sans-serif" font-size="14.00">undoDepth</text>
<text text-anchor="start" x="3598.5" y="-61.3" font-family="sans-serif" font-size="14.00">viewportMargin</text>
<text text-anchor="start" x="3598.5" y="-46.3" font-family="sans-serif" font-size="14.00">workDelay</text>
<text text-anchor="start" x="3598.5" y="-31.3" font-family="sans-serif" font-size="14.00">workTime</text>
<polyline fill="none" stroke="black" points="3590.5,-23.5 4390.5,-23.5 "/>
<text text-anchor="middle" x="3990.5" y="-8.3" font-family="sans-serif" font-size="14.00"> </text>
</g>
<!-- 5 -->
<g id="node6" class="node">
<title>5</title>
<polygon fill="none" stroke="black" points="4409,-233 4409,-347 5230,-347 5230,-233 4409,-233"/>
<text text-anchor="middle" x="4819.5" y="-331.8" font-family="sans-serif" font-size="14.00">/home/runner/work/wxyz/wxyz/envs/_base/lib/python3.8/site&#45;packages/wxyz/lab/widget_editor.py.EditorModeInfo</text>
<polyline fill="none" stroke="black" points="4409,-324 5230,-324 "/>
<text text-anchor="start" x="4417" y="-308.8" font-family="sans-serif" font-size="14.00">_model_module</text>
<text text-anchor="start" x="4417" y="-293.8" font-family="sans-serif" font-size="14.00">_model_module_version</text>
<text text-anchor="start" x="4417" y="-278.8" font-family="sans-serif" font-size="14.00">_model_name</text>
<text text-anchor="start" x="4417" y="-263.8" font-family="sans-serif" font-size="14.00">modes</text>
<polyline fill="none" stroke="black" points="4409,-256 5230,-256 "/>
<text text-anchor="middle" x="4819.5" y="-240.8" font-family="sans-serif" font-size="14.00"> </text>
</g>
<!-- 6 -->
<g id="node7" class="node">
<title>6</title>
<polygon fill="none" stroke="black" points="404,-255.5 404,-324.5 1227,-324.5 1227,-255.5 404,-255.5"/>
<text text-anchor="middle" x="815.5" y="-309.3" font-family="sans-serif" font-size="14.00">/home/runner/work/wxyz/wxyz/envs/_base/lib/python3.8/site&#45;packages/wxyz/lab/widget_markdown.py.Markdown</text>
<polyline fill="none" stroke="black" points="404,-301.5 1227,-301.5 "/>
<text text-anchor="start" x="412" y="-286.3" font-family="sans-serif" font-size="14.00">_model_name</text>
<polyline fill="none" stroke="black" points="404,-278.5 1227,-278.5 "/>
<text text-anchor="start" x="412" y="-263.3" font-family="sans-serif" font-size="14.00">the_function(source)</text>
</g>
<!-- 13 -->
<g id="node14" class="node">
<title>13</title>
<polygon fill="none" stroke="black" points="731,-616.5 731,-775.5 900,-775.5 900,-616.5 731,-616.5"/>
<text text-anchor="middle" x="815.5" y="-760.3" font-family="sans-serif" font-size="14.00">wxyz.core.base.Fn</text>
<polyline fill="none" stroke="black" points="731,-752.5 900,-752.5 "/>
<text text-anchor="start" x="739" y="-737.3" font-family="sans-serif" font-size="14.00">_observed_traits : list</text>
<text text-anchor="start" x="739" y="-722.3" font-family="sans-serif" font-size="14.00">error : str</text>
<text text-anchor="start" x="739" y="-707.3" font-family="sans-serif" font-size="14.00">mode : Enum</text>
<text text-anchor="start" x="739" y="-692.3" font-family="sans-serif" font-size="14.00">source : Any</text>
<text text-anchor="start" x="739" y="-677.3" font-family="sans-serif" font-size="14.00">value : Any</text>
<text text-anchor="start" x="739" y="-662.3" font-family="sans-serif" font-size="14.00">value : NoneType</text>
<polyline fill="none" stroke="black" points="731,-654.5 900,-654.5 "/>
<text text-anchor="start" x="739" y="-639.3" font-family="sans-serif" font-size="14.00">__init__()</text>
<text text-anchor="start" x="739" y="-624.3" font-family="sans-serif" font-size="14.00">the_observer()</text>
</g>
<!-- 6&#45;&gt;13 -->
<g id="edge2" class="edge">
<title>6&#45;&gt;13</title>
<path fill="none" stroke="black" d="M815.5,-324.75C815.5,-386.11 815.5,-517.76 815.5,-606.37"/>
<polygon fill="none" stroke="black" points="812,-606.42 815.5,-616.42 819,-606.42 812,-606.42"/>
</g>
<!-- 7 -->
<g id="node8" class="node">
<title>7</title>
<polygon fill="none" stroke="black" points="5248.5,-150.5 5248.5,-429.5 6016.5,-429.5 6016.5,-150.5 5248.5,-150.5"/>
<text text-anchor="middle" x="5632.5" y="-414.3" font-family="sans-serif" font-size="14.00">/home/runner/work/wxyz/wxyz/envs/_base/lib/python3.8/site&#45;packages/wxyz/lab/widget_term.py.Terminal</text>
<polyline fill="none" stroke="black" points="5248.5,-406.5 6016.5,-406.5 "/>
<text text-anchor="start" x="5256.5" y="-391.3" font-family="sans-serif" font-size="14.00">_data_handlers</text>
<text text-anchor="start" x="5256.5" y="-376.3" font-family="sans-serif" font-size="14.00">_model_name</text>
<text text-anchor="start" x="5256.5" y="-361.3" font-family="sans-serif" font-size="14.00">_view_name</text>
<text text-anchor="start" x="5256.5" y="-346.3" font-family="sans-serif" font-size="14.00">active_terminals</text>
<text text-anchor="start" x="5256.5" y="-331.3" font-family="sans-serif" font-size="14.00">cols</text>
<text text-anchor="start" x="5256.5" y="-316.3" font-family="sans-serif" font-size="14.00">fit</text>
<text text-anchor="start" x="5256.5" y="-301.3" font-family="sans-serif" font-size="14.00">local_echo</text>
<text text-anchor="start" x="5256.5" y="-286.3" font-family="sans-serif" font-size="14.00">rows</text>
<text text-anchor="start" x="5256.5" y="-271.3" font-family="sans-serif" font-size="14.00">scroll</text>
<text text-anchor="start" x="5256.5" y="-256.3" font-family="sans-serif" font-size="14.00">selection</text>
<text text-anchor="start" x="5256.5" y="-241.3" font-family="sans-serif" font-size="14.00">theme</text>
<polyline fill="none" stroke="black" points="5248.5,-233.5 6016.5,-233.5 "/>
<text text-anchor="start" x="5256.5" y="-218.3" font-family="sans-serif" font-size="14.00">__init__()</text>
<text text-anchor="start" x="5256.5" y="-203.3" font-family="sans-serif" font-size="14.00">_handle_terminal_msg(_, content, buffers)</text>
<text text-anchor="start" x="5256.5" y="-188.3" font-family="sans-serif" font-size="14.00">data(content)</text>
<text text-anchor="start" x="5256.5" y="-173.3" font-family="sans-serif" font-size="14.00">on_data(callback, remove)</text>
<text text-anchor="start" x="5256.5" y="-158.3" font-family="sans-serif" font-size="14.00">send_line(line)</text>
</g>
<!-- 8 -->
<g id="node9" class="node">
<title>8</title>
<polygon fill="none" stroke="black" points="419.5,-2135.5 419.5,-2204.5 751.5,-2204.5 751.5,-2135.5 419.5,-2135.5"/>
<text text-anchor="middle" x="585.5" y="-2189.3" font-family="sans-serif" font-size="14.00">ipywidgets.widgets.widget.LoggingHasTraits</text>
<polyline fill="none" stroke="black" points="419.5,-2181.5 751.5,-2181.5 "/>
<text text-anchor="start" x="427.5" y="-2166.3" font-family="sans-serif" font-size="14.00">log : Instance</text>
<polyline fill="none" stroke="black" points="419.5,-2158.5 751.5,-2158.5 "/>
<text text-anchor="start" x="427.5" y="-2143.3" font-family="sans-serif" font-size="14.00">_log_default()</text>
</g>
<!-- 11 -->
<g id="node12" class="node">
<title>11</title>
<polygon fill="none" stroke="black" points="427.5,-2241.5 427.5,-2820.5 743.5,-2820.5 743.5,-2241.5 427.5,-2241.5"/>
<text text-anchor="middle" x="585.5" y="-2805.3" font-family="sans-serif" font-size="14.00">traitlets.traitlets.HasTraits</text>
<polyline fill="none" stroke="black" points="427.5,-2797.5 743.5,-2797.5 "/>
<text text-anchor="start" x="435.5" y="-2782.3" font-family="sans-serif" font-size="14.00">__class__</text>
<text text-anchor="start" x="435.5" y="-2767.3" font-family="sans-serif" font-size="14.00">__dict__</text>
<text text-anchor="start" x="435.5" y="-2752.3" font-family="sans-serif" font-size="14.00">_cross_validation_lock : bool</text>
<text text-anchor="start" x="435.5" y="-2737.3" font-family="sans-serif" font-size="14.00">_trait_notifiers : dict</text>
<text text-anchor="start" x="435.5" y="-2722.3" font-family="sans-serif" font-size="14.00">cross_validation_lock</text>
<text text-anchor="start" x="435.5" y="-2707.3" font-family="sans-serif" font-size="14.00">notify_change</text>
<polyline fill="none" stroke="black" points="427.5,-2699.5 743.5,-2699.5 "/>
<text text-anchor="start" x="435.5" y="-2684.3" font-family="sans-serif" font-size="14.00">__getstate__()</text>
<text text-anchor="start" x="435.5" y="-2669.3" font-family="sans-serif" font-size="14.00">__init__()</text>
<text text-anchor="start" x="435.5" y="-2654.3" font-family="sans-serif" font-size="14.00">__setstate__(state)</text>
<text text-anchor="start" x="435.5" y="-2639.3" font-family="sans-serif" font-size="14.00">_add_notifiers(handler, name, type)</text>
<text text-anchor="start" x="435.5" y="-2624.3" font-family="sans-serif" font-size="14.00">_get_trait_default_generator(name)</text>
<text text-anchor="start" x="435.5" y="-2609.3" font-family="sans-serif" font-size="14.00">_notify_observers(event)</text>
<text text-anchor="start" x="435.5" y="-2594.3" font-family="sans-serif" font-size="14.00">_notify_trait(name, old_value, new_value)</text>
<text text-anchor="start" x="435.5" y="-2579.3" font-family="sans-serif" font-size="14.00">_register_validator(handler, names)</text>
<text text-anchor="start" x="435.5" y="-2564.3" font-family="sans-serif" font-size="14.00">_remove_notifiers(handler, name, type)</text>
<text text-anchor="start" x="435.5" y="-2549.3" font-family="sans-serif" font-size="14.00">add_traits()</text>
<text text-anchor="start" x="435.5" y="-2534.3" font-family="sans-serif" font-size="14.00">class_own_trait_events(cls, name)</text>
<text text-anchor="start" x="435.5" y="-2519.3" font-family="sans-serif" font-size="14.00">class_own_traits(cls)</text>
<text text-anchor="start" x="435.5" y="-2504.3" font-family="sans-serif" font-size="14.00">class_trait_names(cls)</text>
<text text-anchor="start" x="435.5" y="-2489.3" font-family="sans-serif" font-size="14.00">class_traits(cls)</text>
<text text-anchor="start" x="435.5" y="-2474.3" font-family="sans-serif" font-size="14.00">has_trait(name)</text>
<text text-anchor="start" x="435.5" y="-2459.3" font-family="sans-serif" font-size="14.00">hold_trait_notifications()</text>
<text text-anchor="start" x="435.5" y="-2444.3" font-family="sans-serif" font-size="14.00">notify_change(change)</text>
<text text-anchor="start" x="435.5" y="-2429.3" font-family="sans-serif" font-size="14.00">observe(handler, names, type)</text>
<text text-anchor="start" x="435.5" y="-2414.3" font-family="sans-serif" font-size="14.00">on_trait_change(handler, name, remove)</text>
<text text-anchor="start" x="435.5" y="-2399.3" font-family="sans-serif" font-size="14.00">set_trait(name, value)</text>
<text text-anchor="start" x="435.5" y="-2384.3" font-family="sans-serif" font-size="14.00">setup_instance()</text>
<text text-anchor="start" x="435.5" y="-2369.3" font-family="sans-serif" font-size="14.00">trait_defaults()</text>
<text text-anchor="start" x="435.5" y="-2354.3" font-family="sans-serif" font-size="14.00">trait_events(cls, name)</text>
<text text-anchor="start" x="435.5" y="-2339.3" font-family="sans-serif" font-size="14.00">trait_has_value(name)</text>
<text text-anchor="start" x="435.5" y="-2324.3" font-family="sans-serif" font-size="14.00">trait_metadata(traitname, key, default)</text>
<text text-anchor="start" x="435.5" y="-2309.3" font-family="sans-serif" font-size="14.00">trait_names()</text>
<text text-anchor="start" x="435.5" y="-2294.3" font-family="sans-serif" font-size="14.00">trait_values()</text>
<text text-anchor="start" x="435.5" y="-2279.3" font-family="sans-serif" font-size="14.00">traits()</text>
<text text-anchor="start" x="435.5" y="-2264.3" font-family="sans-serif" font-size="14.00">unobserve(handler, names, type)</text>
<text text-anchor="start" x="435.5" y="-2249.3" font-family="sans-serif" font-size="14.00">unobserve_all(name)</text>
</g>
<!-- 8&#45;&gt;11 -->
<g id="edge3" class="edge">
<title>8&#45;&gt;11</title>
<path fill="none" stroke="black" d="M585.5,-2204.77C585.5,-2212.56 585.5,-2221.46 585.5,-2231.23"/>
<polygon fill="none" stroke="black" points="582,-2231.27 585.5,-2241.27 589,-2231.27 582,-2231.27"/>
</g>
<!-- 9 -->
<g id="node10" class="node">
<title>9</title>
<polygon fill="none" stroke="black" points="421,-1174.5 421,-2098.5 750,-2098.5 750,-1174.5 421,-1174.5"/>
<text text-anchor="middle" x="585.5" y="-2083.3" font-family="sans-serif" font-size="14.00">ipywidgets.widgets.widget.Widget</text>
<polyline fill="none" stroke="black" points="421,-2075.5 750,-2075.5 "/>
<text text-anchor="start" x="429" y="-2060.3" font-family="sans-serif" font-size="14.00">_display_callbacks : Instance</text>
<text text-anchor="start" x="429" y="-2045.3" font-family="sans-serif" font-size="14.00">_holding_sync : bool</text>
<text text-anchor="start" x="429" y="-2030.3" font-family="sans-serif" font-size="14.00">_holding_sync : bool</text>
<text text-anchor="start" x="429" y="-2015.3" font-family="sans-serif" font-size="14.00">_ipython_display_ : NoneType</text>
<text text-anchor="start" x="429" y="-2000.3" font-family="sans-serif" font-size="14.00">_model_id</text>
<text text-anchor="start" x="429" y="-1985.3" font-family="sans-serif" font-size="14.00">_model_module : Unicode</text>
<text text-anchor="start" x="429" y="-1970.3" font-family="sans-serif" font-size="14.00">_model_module_version : Unicode</text>
<text text-anchor="start" x="429" y="-1955.3" font-family="sans-serif" font-size="14.00">_model_name : Unicode</text>
<text text-anchor="start" x="429" y="-1940.3" font-family="sans-serif" font-size="14.00">_msg_callbacks : Instance</text>
<text text-anchor="start" x="429" y="-1925.3" font-family="sans-serif" font-size="14.00">_property_lock : Dict</text>
<text text-anchor="start" x="429" y="-1910.3" font-family="sans-serif" font-size="14.00">_property_lock : dict</text>
<text text-anchor="start" x="429" y="-1895.3" font-family="sans-serif" font-size="14.00">_states_to_send : Set</text>
<text text-anchor="start" x="429" y="-1880.3" font-family="sans-serif" font-size="14.00">_view_count : Int</text>
<text text-anchor="start" x="429" y="-1865.3" font-family="sans-serif" font-size="14.00">_view_module : Unicode</text>
<text text-anchor="start" x="429" y="-1850.3" font-family="sans-serif" font-size="14.00">_view_module_version : Unicode</text>
<text text-anchor="start" x="429" y="-1835.3" font-family="sans-serif" font-size="14.00">_view_name : Unicode</text>
<text text-anchor="start" x="429" y="-1820.3" font-family="sans-serif" font-size="14.00">_widget_construction_callback : NoneType</text>
<text text-anchor="start" x="429" y="-1805.3" font-family="sans-serif" font-size="14.00">comm : Comm, NoneType</text>
<text text-anchor="start" x="429" y="-1790.3" font-family="sans-serif" font-size="14.00">comm : Instance</text>
<text text-anchor="start" x="429" y="-1775.3" font-family="sans-serif" font-size="14.00">keys : List</text>
<text text-anchor="start" x="429" y="-1760.3" font-family="sans-serif" font-size="14.00">model_id</text>
<text text-anchor="start" x="429" y="-1745.3" font-family="sans-serif" font-size="14.00">widget_types : WidgetRegistry</text>
<text text-anchor="start" x="429" y="-1730.3" font-family="sans-serif" font-size="14.00">widgets : dict</text>
<polyline fill="none" stroke="black" points="421,-1722.5 750,-1722.5 "/>
<text text-anchor="start" x="429" y="-1707.3" font-family="sans-serif" font-size="14.00">__del__()</text>
<text text-anchor="start" x="429" y="-1692.3" font-family="sans-serif" font-size="14.00">__init__()</text>
<text text-anchor="start" x="429" y="-1677.3" font-family="sans-serif" font-size="14.00">__repr__()</text>
<text text-anchor="start" x="429" y="-1662.3" font-family="sans-serif" font-size="14.00">_call_widget_constructed(widget)</text>
<text text-anchor="start" x="429" y="-1647.3" font-family="sans-serif" font-size="14.00">_comm_changed(change)</text>
<text text-anchor="start" x="429" y="-1632.3" font-family="sans-serif" font-size="14.00">_compare(a, b)</text>
<text text-anchor="start" x="429" y="-1617.3" font-family="sans-serif" font-size="14.00">_default_keys()</text>
<text text-anchor="start" x="429" y="-1602.3" font-family="sans-serif" font-size="14.00">_gen_repr_from_keys(keys)</text>
<text text-anchor="start" x="429" y="-1587.3" font-family="sans-serif" font-size="14.00">_get_embed_state(drop_defaults)</text>
<text text-anchor="start" x="429" y="-1572.3" font-family="sans-serif" font-size="14.00">_handle_custom_msg(content, buffers)</text>
<text text-anchor="start" x="429" y="-1557.3" font-family="sans-serif" font-size="14.00">_handle_displayed()</text>
<text text-anchor="start" x="429" y="-1542.3" font-family="sans-serif" font-size="14.00">_handle_msg(msg)</text>
<text text-anchor="start" x="429" y="-1527.3" font-family="sans-serif" font-size="14.00">_ipython_display_()</text>
<text text-anchor="start" x="429" y="-1512.3" font-family="sans-serif" font-size="14.00">_is_numpy(x)</text>
<text text-anchor="start" x="429" y="-1497.3" font-family="sans-serif" font-size="14.00">_lock_property()</text>
<text text-anchor="start" x="429" y="-1482.3" font-family="sans-serif" font-size="14.00">_repr_keys()</text>
<text text-anchor="start" x="429" y="-1467.3" font-family="sans-serif" font-size="14.00">_send(msg, buffers)</text>
<text text-anchor="start" x="429" y="-1452.3" font-family="sans-serif" font-size="14.00">_should_send_property(key, value)</text>
<text text-anchor="start" x="429" y="-1437.3" font-family="sans-serif" font-size="14.00">_trait_from_json(x)</text>
<text text-anchor="start" x="429" y="-1422.3" font-family="sans-serif" font-size="14.00">_trait_to_json(x)</text>
<text text-anchor="start" x="429" y="-1407.3" font-family="sans-serif" font-size="14.00">add_traits()</text>
<text text-anchor="start" x="429" y="-1392.3" font-family="sans-serif" font-size="14.00">close()</text>
<text text-anchor="start" x="429" y="-1377.3" font-family="sans-serif" font-size="14.00">close_all(cls)</text>
<text text-anchor="start" x="429" y="-1362.3" font-family="sans-serif" font-size="14.00">get_manager_state(drop_defaults, widgets)</text>
<text text-anchor="start" x="429" y="-1347.3" font-family="sans-serif" font-size="14.00">get_state(key, drop_defaults)</text>
<text text-anchor="start" x="429" y="-1332.3" font-family="sans-serif" font-size="14.00">get_view_spec()</text>
<text text-anchor="start" x="429" y="-1317.3" font-family="sans-serif" font-size="14.00">handle_comm_opened(comm, msg)</text>
<text text-anchor="start" x="429" y="-1302.3" font-family="sans-serif" font-size="14.00">hold_sync()</text>
<text text-anchor="start" x="429" y="-1287.3" font-family="sans-serif" font-size="14.00">notify_change(change)</text>
<text text-anchor="start" x="429" y="-1272.3" font-family="sans-serif" font-size="14.00">on_displayed(callback, remove)</text>
<text text-anchor="start" x="429" y="-1257.3" font-family="sans-serif" font-size="14.00">on_msg(callback, remove)</text>
<text text-anchor="start" x="429" y="-1242.3" font-family="sans-serif" font-size="14.00">on_widget_constructed(callback)</text>
<text text-anchor="start" x="429" y="-1227.3" font-family="sans-serif" font-size="14.00">open()</text>
<text text-anchor="start" x="429" y="-1212.3" font-family="sans-serif" font-size="14.00">send(content, buffers)</text>
<text text-anchor="start" x="429" y="-1197.3" font-family="sans-serif" font-size="14.00">send_state(key)</text>
<text text-anchor="start" x="429" y="-1182.3" font-family="sans-serif" font-size="14.00">set_state(sync_data)</text>
</g>
<!-- 9&#45;&gt;8 -->
<g id="edge4" class="edge">
<title>9&#45;&gt;8</title>
<path fill="none" stroke="black" d="M585.5,-2098.7C585.5,-2108.32 585.5,-2117.18 585.5,-2125.13"/>
<polygon fill="none" stroke="black" points="582,-2125.4 585.5,-2135.4 589,-2125.4 582,-2125.4"/>
</g>
<!-- 10 -->
<g id="node11" class="node">
<title>10</title>
<polygon fill="none" stroke="black" points="463.5,-2857.5 463.5,-2942.5 707.5,-2942.5 707.5,-2857.5 463.5,-2857.5"/>
<text text-anchor="middle" x="585.5" y="-2927.3" font-family="sans-serif" font-size="14.00">traitlets.traitlets.HasDescriptors</text>
<polyline fill="none" stroke="black" points="463.5,-2919.5 707.5,-2919.5 "/>
<polyline fill="none" stroke="black" points="463.5,-2895.5 707.5,-2895.5 "/>
<text text-anchor="start" x="471.5" y="-2880.3" font-family="sans-serif" font-size="14.00">__new__()</text>
<text text-anchor="start" x="471.5" y="-2865.3" font-family="sans-serif" font-size="14.00">setup_instance()</text>
</g>
<!-- 11&#45;&gt;10 -->
<g id="edge5" class="edge">
<title>11&#45;&gt;10</title>
<path fill="none" stroke="black" d="M585.5,-2820.72C585.5,-2830.16 585.5,-2839.03 585.5,-2847.18"/>
<polygon fill="none" stroke="black" points="582,-2847.45 585.5,-2857.45 589,-2847.45 582,-2847.45"/>
</g>
<!-- 14 -->
<g id="node15" class="node">
<title>14</title>
<polygon fill="none" stroke="black" points="454.5,-1023.5 454.5,-1137.5 716.5,-1137.5 716.5,-1023.5 454.5,-1023.5"/>
<text text-anchor="middle" x="585.5" y="-1122.3" font-family="sans-serif" font-size="14.00">wxyz.core.base.WXYZBase</text>
<polyline fill="none" stroke="black" points="454.5,-1114.5 716.5,-1114.5 "/>
<text text-anchor="start" x="462.5" y="-1099.3" font-family="sans-serif" font-size="14.00">_model_module : Unicode</text>
<text text-anchor="start" x="462.5" y="-1084.3" font-family="sans-serif" font-size="14.00">_model_module_version : Unicode</text>
<text text-anchor="start" x="462.5" y="-1069.3" font-family="sans-serif" font-size="14.00">_view_module : Unicode</text>
<text text-anchor="start" x="462.5" y="-1054.3" font-family="sans-serif" font-size="14.00">_view_module_version : Unicode</text>
<polyline fill="none" stroke="black" points="454.5,-1046.5 716.5,-1046.5 "/>
<text text-anchor="middle" x="585.5" y="-1031.3" font-family="sans-serif" font-size="14.00"> </text>
</g>
<!-- 12&#45;&gt;14 -->
<g id="edge6" class="edge">
<title>12&#45;&gt;14</title>
<path fill="none" stroke="black" d="M585.5,-986.59C585.5,-995.6 585.5,-1004.66 585.5,-1013.4"/>
<polygon fill="none" stroke="black" points="582,-1013.49 585.5,-1023.49 589,-1013.49 582,-1013.49"/>
</g>
<!-- 13&#45;&gt;12 -->
<g id="edge7" class="edge">
<title>13&#45;&gt;12</title>
<path fill="none" stroke="black" d="M730.84,-771.17C718.09,-782.34 704.82,-793.97 691.7,-805.46"/>
<polygon fill="none" stroke="black" points="689.21,-802.99 683.99,-812.21 693.82,-808.26 689.21,-802.99"/>
</g>
<!-- 14&#45;&gt;9 -->
<g id="edge8" class="edge">
<title>14&#45;&gt;9</title>
<path fill="none" stroke="black" d="M585.5,-1137.67C585.5,-1145.84 585.5,-1154.73 585.5,-1164.24"/>
<polygon fill="none" stroke="black" points="582,-1164.36 585.5,-1174.36 589,-1164.36 582,-1164.36"/>
</g>
</g>
</svg>
