<?xml version="1.0" encoding="UTF-8" standalone="no"?>
<!DOCTYPE svg PUBLIC "-//W3C//DTD SVG 1.1//EN"
 "http://www.w3.org/Graphics/SVG/1.1/DTD/svg11.dtd">
<!-- Generated by graphviz version 2.42.3 (20191010.1750)
 -->
<!-- Title: classes_jsonld Pages: 1 -->
<svg width="4037pt" height="2516pt"
 viewBox="0.00 0.00 4036.50 2516.00" xmlns="http://www.w3.org/2000/svg" xmlns:xlink="http://www.w3.org/1999/xlink">
<g id="graph0" class="graph" transform="scale(1 1) rotate(0) translate(4 2512)">
<title>classes_jsonld</title>
<polygon fill="white" stroke="transparent" points="-4,4 -4,-2512 4032.5,-2512 4032.5,4 -4,4"/>
<!-- 0 -->
<g id="node1" class="node">
<title>0</title>
<polygon fill="none" stroke="black" points="1150.5,-204 1150.5,-318 1911.5,-318 1911.5,-204 1150.5,-204"/>
<text text-anchor="middle" x="1531" y="-302.8" font-family="sans-serif" font-size="14.00">/home/runner/work/wxyz/wxyz/envs/_base/lib/python3.8/site&#45;packages/wxyz/jsonld/base.py.JSONLDBase</text>
<polyline fill="none" stroke="black" points="1150.5,-295 1911.5,-295 "/>
<text text-anchor="start" x="1158.5" y="-279.8" font-family="sans-serif" font-size="14.00">_model_module : Unicode</text>
<text text-anchor="start" x="1158.5" y="-264.8" font-family="sans-serif" font-size="14.00">_model_module_version : Unicode</text>
<text text-anchor="start" x="1158.5" y="-249.8" font-family="sans-serif" font-size="14.00">_view_module : Unicode</text>
<text text-anchor="start" x="1158.5" y="-234.8" font-family="sans-serif" font-size="14.00">_view_module_version : Unicode</text>
<polyline fill="none" stroke="black" points="1150.5,-227 1911.5,-227 "/>
<text text-anchor="middle" x="1531" y="-211.8" font-family="sans-serif" font-size="14.00"> </text>
</g>
<!-- 10 -->
<g id="node11" class="node">
<title>10</title>
<polygon fill="none" stroke="black" points="1641,-377.5 1641,-551.5 1903,-551.5 1903,-377.5 1641,-377.5"/>
<text text-anchor="middle" x="1772" y="-536.3" font-family="sans-serif" font-size="14.00">wxyz.core.base.Base</text>
<polyline fill="none" stroke="black" points="1641,-528.5 1903,-528.5 "/>
<text text-anchor="start" x="1649" y="-513.3" font-family="sans-serif" font-size="14.00">_model_module : Unicode</text>
<text text-anchor="start" x="1649" y="-498.3" font-family="sans-serif" font-size="14.00">_model_module_version : Unicode</text>
<text text-anchor="start" x="1649" y="-483.3" font-family="sans-serif" font-size="14.00">_view_module : Unicode</text>
<text text-anchor="start" x="1649" y="-468.3" font-family="sans-serif" font-size="14.00">_view_module_version : Unicode</text>
<text text-anchor="start" x="1649" y="-453.3" font-family="sans-serif" font-size="14.00">closable : Bool</text>
<text text-anchor="start" x="1649" y="-438.3" font-family="sans-serif" font-size="14.00">description : Unicode</text>
<text text-anchor="start" x="1649" y="-423.3" font-family="sans-serif" font-size="14.00">error : CUnicode</text>
<text text-anchor="start" x="1649" y="-408.3" font-family="sans-serif" font-size="14.00">icon_class : Unicode</text>
<polyline fill="none" stroke="black" points="1641,-400.5 1903,-400.5 "/>
<text text-anchor="middle" x="1772" y="-385.3" font-family="sans-serif" font-size="14.00"> </text>
</g>
<!-- 0&#45;&gt;10 -->
<g id="edge1" class="edge">
<title>0&#45;&gt;10</title>
<path fill="none" stroke="black" d="M1598.13,-318.13C1617.61,-334.41 1639.41,-352.64 1660.82,-370.54"/>
<polygon fill="none" stroke="black" points="1658.77,-373.39 1668.69,-377.12 1663.26,-368.02 1658.77,-373.39"/>
</g>
<!-- 1 -->
<g id="node2" class="node">
<title>1</title>
<polygon fill="none" stroke="black" points="0,-0.5 0,-144.5 798,-144.5 798,-0.5 0,-0.5"/>
<text text-anchor="middle" x="399" y="-129.3" font-family="sans-serif" font-size="14.00">/home/runner/work/wxyz/wxyz/envs/_base/lib/python3.8/site&#45;packages/wxyz/jsonld/widget_jsonld.py.Compact</text>
<polyline fill="none" stroke="black" points="0,-121.5 798,-121.5 "/>
<text text-anchor="start" x="8" y="-106.3" font-family="sans-serif" font-size="14.00">_model_name : Unicode</text>
<text text-anchor="start" x="8" y="-91.3" font-family="sans-serif" font-size="14.00">_observed_traits : list</text>
<text text-anchor="start" x="8" y="-76.3" font-family="sans-serif" font-size="14.00">context : Dict</text>
<text text-anchor="start" x="8" y="-61.3" font-family="sans-serif" font-size="14.00">expand_context : Dict</text>
<text text-anchor="start" x="8" y="-46.3" font-family="sans-serif" font-size="14.00">source : Dict</text>
<text text-anchor="start" x="8" y="-31.3" font-family="sans-serif" font-size="14.00">value : Dict</text>
<polyline fill="none" stroke="black" points="0,-23.5 798,-23.5 "/>
<text text-anchor="start" x="8" y="-8.3" font-family="sans-serif" font-size="14.00">the_function(source, context, expand_context)</text>
</g>
<!-- 11 -->
<g id="node12" class="node">
<title>11</title>
<polygon fill="none" stroke="black" points="1929.5,-181.5 1929.5,-340.5 2098.5,-340.5 2098.5,-181.5 1929.5,-181.5"/>
<text text-anchor="middle" x="2014" y="-325.3" font-family="sans-serif" font-size="14.00">wxyz.core.base.Fn</text>
<polyline fill="none" stroke="black" points="1929.5,-317.5 2098.5,-317.5 "/>
<text text-anchor="start" x="1937.5" y="-302.3" font-family="sans-serif" font-size="14.00">_observed_traits : list</text>
<text text-anchor="start" x="1937.5" y="-287.3" font-family="sans-serif" font-size="14.00">error : str</text>
<text text-anchor="start" x="1937.5" y="-272.3" font-family="sans-serif" font-size="14.00">mode : Enum</text>
<text text-anchor="start" x="1937.5" y="-257.3" font-family="sans-serif" font-size="14.00">source : Any</text>
<text text-anchor="start" x="1937.5" y="-242.3" font-family="sans-serif" font-size="14.00">value : Any</text>
<text text-anchor="start" x="1937.5" y="-227.3" font-family="sans-serif" font-size="14.00">value : NoneType</text>
<polyline fill="none" stroke="black" points="1929.5,-219.5 2098.5,-219.5 "/>
<text text-anchor="start" x="1937.5" y="-204.3" font-family="sans-serif" font-size="14.00">__init__()</text>
<text text-anchor="start" x="1937.5" y="-189.3" font-family="sans-serif" font-size="14.00">the_observer()</text>
</g>
<!-- 1&#45;&gt;11 -->
<g id="edge2" class="edge">
<title>1&#45;&gt;11</title>
<path fill="none" stroke="black" d="M798.12,-144.06C801.09,-144.38 804.05,-144.7 807,-145 927.3,-157.42 1764.84,-137.4 1919.3,-181.27"/>
<polygon fill="none" stroke="black" points="1918.63,-184.74 1929.22,-184.55 1920.82,-178.09 1918.63,-184.74"/>
</g>
<!-- 2 -->
<g id="node3" class="node">
<title>2</title>
<polygon fill="none" stroke="black" points="816,-8 816,-137 1604,-137 1604,-8 816,-8"/>
<text text-anchor="middle" x="1210" y="-121.8" font-family="sans-serif" font-size="14.00">/home/runner/work/wxyz/wxyz/envs/_base/lib/python3.8/site&#45;packages/wxyz/jsonld/widget_jsonld.py.Expand</text>
<polyline fill="none" stroke="black" points="816,-114 1604,-114 "/>
<text text-anchor="start" x="824" y="-98.8" font-family="sans-serif" font-size="14.00">_model_name : Unicode</text>
<text text-anchor="start" x="824" y="-83.8" font-family="sans-serif" font-size="14.00">_observed_traits : list</text>
<text text-anchor="start" x="824" y="-68.8" font-family="sans-serif" font-size="14.00">expand_context : Dict</text>
<text text-anchor="start" x="824" y="-53.8" font-family="sans-serif" font-size="14.00">source : Dict</text>
<text text-anchor="start" x="824" y="-38.8" font-family="sans-serif" font-size="14.00">value : List</text>
<polyline fill="none" stroke="black" points="816,-31 1604,-31 "/>
<text text-anchor="start" x="824" y="-15.8" font-family="sans-serif" font-size="14.00">the_function(source, expand_context)</text>
</g>
<!-- 2&#45;&gt;11 -->
<g id="edge3" class="edge">
<title>2&#45;&gt;11</title>
<path fill="none" stroke="black" d="M1560.92,-137.03C1578.52,-139.82 1595.95,-142.49 1613,-145 1746.16,-164.58 1792.44,-127.83 1920.05,-181.02"/>
<polygon fill="none" stroke="black" points="1918.81,-184.29 1929.38,-185 1921.56,-177.85 1918.81,-184.29"/>
</g>
<!-- 3 -->
<g id="node4" class="node">
<title>3</title>
<polygon fill="none" stroke="black" points="1622,-0.5 1622,-144.5 2406,-144.5 2406,-0.5 1622,-0.5"/>
<text text-anchor="middle" x="2014" y="-129.3" font-family="sans-serif" font-size="14.00">/home/runner/work/wxyz/wxyz/envs/_base/lib/python3.8/site&#45;packages/wxyz/jsonld/widget_jsonld.py.Flatten</text>
<polyline fill="none" stroke="black" points="1622,-121.5 2406,-121.5 "/>
<text text-anchor="start" x="1630" y="-106.3" font-family="sans-serif" font-size="14.00">_model_name : Unicode</text>
<text text-anchor="start" x="1630" y="-91.3" font-family="sans-serif" font-size="14.00">_observed_traits : list</text>
<text text-anchor="start" x="1630" y="-76.3" font-family="sans-serif" font-size="14.00">context : Dict</text>
<text text-anchor="start" x="1630" y="-61.3" font-family="sans-serif" font-size="14.00">expand_context : Dict</text>
<text text-anchor="start" x="1630" y="-46.3" font-family="sans-serif" font-size="14.00">source : Dict</text>
<text text-anchor="start" x="1630" y="-31.3" font-family="sans-serif" font-size="14.00">value : Dict</text>
<polyline fill="none" stroke="black" points="1622,-23.5 2406,-23.5 "/>
<text text-anchor="start" x="1630" y="-8.3" font-family="sans-serif" font-size="14.00">the_function(source, context, expand_context)</text>
</g>
<!-- 3&#45;&gt;11 -->
<g id="edge4" class="edge">
<title>3&#45;&gt;11</title>
<path fill="none" stroke="black" d="M2014,-144.54C2014,-153.29 2014,-162.32 2014,-171.29"/>
<polygon fill="none" stroke="black" points="2010.5,-171.38 2014,-181.38 2017.5,-171.38 2010.5,-171.38"/>
</g>
<!-- 4 -->
<g id="node5" class="node">
<title>4</title>
<polygon fill="none" stroke="black" points="2424,-0.5 2424,-144.5 3204,-144.5 3204,-0.5 2424,-0.5"/>
<text text-anchor="middle" x="2814" y="-129.3" font-family="sans-serif" font-size="14.00">/home/runner/work/wxyz/wxyz/envs/_base/lib/python3.8/site&#45;packages/wxyz/jsonld/widget_jsonld.py.Frame</text>
<polyline fill="none" stroke="black" points="2424,-121.5 3204,-121.5 "/>
<text text-anchor="start" x="2432" y="-106.3" font-family="sans-serif" font-size="14.00">_model_name : Unicode</text>
<text text-anchor="start" x="2432" y="-91.3" font-family="sans-serif" font-size="14.00">_observed_traits : list</text>
<text text-anchor="start" x="2432" y="-76.3" font-family="sans-serif" font-size="14.00">expand_context : Dict</text>
<text text-anchor="start" x="2432" y="-61.3" font-family="sans-serif" font-size="14.00">frame : Dict</text>
<text text-anchor="start" x="2432" y="-46.3" font-family="sans-serif" font-size="14.00">source : Dict</text>
<text text-anchor="start" x="2432" y="-31.3" font-family="sans-serif" font-size="14.00">value : Dict</text>
<polyline fill="none" stroke="black" points="2424,-23.5 3204,-23.5 "/>
<text text-anchor="start" x="2432" y="-8.3" font-family="sans-serif" font-size="14.00">the_function(source, frame, expand_context)</text>
</g>
<!-- 4&#45;&gt;11 -->
<g id="edge5" class="edge">
<title>4&#45;&gt;11</title>
<path fill="none" stroke="black" d="M2509.27,-144.54C2366.9,-177.73 2207.43,-214.91 2108.86,-237.89"/>
<polygon fill="none" stroke="black" points="2107.87,-234.52 2098.92,-240.2 2109.46,-241.34 2107.87,-234.52"/>
</g>
<!-- 5 -->
<g id="node6" class="node">
<title>5</title>
<polygon fill="none" stroke="black" points="3221.5,-0.5 3221.5,-144.5 4028.5,-144.5 4028.5,-0.5 3221.5,-0.5"/>
<text text-anchor="middle" x="3625" y="-129.3" font-family="sans-serif" font-size="14.00">/home/runner/work/wxyz/wxyz/envs/_base/lib/python3.8/site&#45;packages/wxyz/jsonld/widget_jsonld.py.Normalize</text>
<polyline fill="none" stroke="black" points="3221.5,-121.5 4028.5,-121.5 "/>
<text text-anchor="start" x="3229.5" y="-106.3" font-family="sans-serif" font-size="14.00">_model_name : Unicode</text>
<text text-anchor="start" x="3229.5" y="-91.3" font-family="sans-serif" font-size="14.00">_observed_traits : list</text>
<text text-anchor="start" x="3229.5" y="-76.3" font-family="sans-serif" font-size="14.00">expand_context : Dict</text>
<text text-anchor="start" x="3229.5" y="-61.3" font-family="sans-serif" font-size="14.00">format : Unicode</text>
<text text-anchor="start" x="3229.5" y="-46.3" font-family="sans-serif" font-size="14.00">source : Dict</text>
<text text-anchor="start" x="3229.5" y="-31.3" font-family="sans-serif" font-size="14.00">value : Union</text>
<polyline fill="none" stroke="black" points="3221.5,-23.5 4028.5,-23.5 "/>
<text text-anchor="start" x="3229.5" y="-8.3" font-family="sans-serif" font-size="14.00">the_function(source, format, expand_context)</text>
</g>
<!-- 5&#45;&gt;11 -->
<g id="edge6" class="edge">
<title>5&#45;&gt;11</title>
<path fill="none" stroke="black" d="M3221.39,-143.86C3218.59,-144.24 3215.79,-144.62 3213,-145 2803.35,-200.11 2311.49,-238.68 2108.59,-253.39"/>
<polygon fill="none" stroke="black" points="2108.29,-249.9 2098.57,-254.12 2108.79,-256.89 2108.29,-249.9"/>
</g>
<!-- 6 -->
<g id="node7" class="node">
<title>6</title>
<polygon fill="none" stroke="black" points="1606,-1700.5 1606,-1769.5 1938,-1769.5 1938,-1700.5 1606,-1700.5"/>
<text text-anchor="middle" x="1772" y="-1754.3" font-family="sans-serif" font-size="14.00">ipywidgets.widgets.widget.LoggingHasTraits</text>
<polyline fill="none" stroke="black" points="1606,-1746.5 1938,-1746.5 "/>
<text text-anchor="start" x="1614" y="-1731.3" font-family="sans-serif" font-size="14.00">log : Instance</text>
<polyline fill="none" stroke="black" points="1606,-1723.5 1938,-1723.5 "/>
<text text-anchor="start" x="1614" y="-1708.3" font-family="sans-serif" font-size="14.00">_log_default()</text>
</g>
<!-- 9 -->
<g id="node10" class="node">
<title>9</title>
<polygon fill="none" stroke="black" points="1614,-1806.5 1614,-2385.5 1930,-2385.5 1930,-1806.5 1614,-1806.5"/>
<text text-anchor="middle" x="1772" y="-2370.3" font-family="sans-serif" font-size="14.00">traitlets.traitlets.HasTraits</text>
<polyline fill="none" stroke="black" points="1614,-2362.5 1930,-2362.5 "/>
<text text-anchor="start" x="1622" y="-2347.3" font-family="sans-serif" font-size="14.00">__class__</text>
<text text-anchor="start" x="1622" y="-2332.3" font-family="sans-serif" font-size="14.00">__dict__</text>
<text text-anchor="start" x="1622" y="-2317.3" font-family="sans-serif" font-size="14.00">_cross_validation_lock : bool</text>
<text text-anchor="start" x="1622" y="-2302.3" font-family="sans-serif" font-size="14.00">_trait_notifiers : dict</text>
<text text-anchor="start" x="1622" y="-2287.3" font-family="sans-serif" font-size="14.00">cross_validation_lock</text>
<text text-anchor="start" x="1622" y="-2272.3" font-family="sans-serif" font-size="14.00">notify_change</text>
<polyline fill="none" stroke="black" points="1614,-2264.5 1930,-2264.5 "/>
<text text-anchor="start" x="1622" y="-2249.3" font-family="sans-serif" font-size="14.00">__getstate__()</text>
<text text-anchor="start" x="1622" y="-2234.3" font-family="sans-serif" font-size="14.00">__init__()</text>
<text text-anchor="start" x="1622" y="-2219.3" font-family="sans-serif" font-size="14.00">__setstate__(state)</text>
<text text-anchor="start" x="1622" y="-2204.3" font-family="sans-serif" font-size="14.00">_add_notifiers(handler, name, type)</text>
<text text-anchor="start" x="1622" y="-2189.3" font-family="sans-serif" font-size="14.00">_get_trait_default_generator(name)</text>
<text text-anchor="start" x="1622" y="-2174.3" font-family="sans-serif" font-size="14.00">_notify_observers(event)</text>
<text text-anchor="start" x="1622" y="-2159.3" font-family="sans-serif" font-size="14.00">_notify_trait(name, old_value, new_value)</text>
<text text-anchor="start" x="1622" y="-2144.3" font-family="sans-serif" font-size="14.00">_register_validator(handler, names)</text>
<text text-anchor="start" x="1622" y="-2129.3" font-family="sans-serif" font-size="14.00">_remove_notifiers(handler, name, type)</text>
<text text-anchor="start" x="1622" y="-2114.3" font-family="sans-serif" font-size="14.00">add_traits()</text>
<text text-anchor="start" x="1622" y="-2099.3" font-family="sans-serif" font-size="14.00">class_own_trait_events(cls, name)</text>
<text text-anchor="start" x="1622" y="-2084.3" font-family="sans-serif" font-size="14.00">class_own_traits(cls)</text>
<text text-anchor="start" x="1622" y="-2069.3" font-family="sans-serif" font-size="14.00">class_trait_names(cls)</text>
<text text-anchor="start" x="1622" y="-2054.3" font-family="sans-serif" font-size="14.00">class_traits(cls)</text>
<text text-anchor="start" x="1622" y="-2039.3" font-family="sans-serif" font-size="14.00">has_trait(name)</text>
<text text-anchor="start" x="1622" y="-2024.3" font-family="sans-serif" font-size="14.00">hold_trait_notifications()</text>
<text text-anchor="start" x="1622" y="-2009.3" font-family="sans-serif" font-size="14.00">notify_change(change)</text>
<text text-anchor="start" x="1622" y="-1994.3" font-family="sans-serif" font-size="14.00">observe(handler, names, type)</text>
<text text-anchor="start" x="1622" y="-1979.3" font-family="sans-serif" font-size="14.00">on_trait_change(handler, name, remove)</text>
<text text-anchor="start" x="1622" y="-1964.3" font-family="sans-serif" font-size="14.00">set_trait(name, value)</text>
<text text-anchor="start" x="1622" y="-1949.3" font-family="sans-serif" font-size="14.00">setup_instance()</text>
<text text-anchor="start" x="1622" y="-1934.3" font-family="sans-serif" font-size="14.00">trait_defaults()</text>
<text text-anchor="start" x="1622" y="-1919.3" font-family="sans-serif" font-size="14.00">trait_events(cls, name)</text>
<text text-anchor="start" x="1622" y="-1904.3" font-family="sans-serif" font-size="14.00">trait_has_value(name)</text>
<text text-anchor="start" x="1622" y="-1889.3" font-family="sans-serif" font-size="14.00">trait_metadata(traitname, key, default)</text>
<text text-anchor="start" x="1622" y="-1874.3" font-family="sans-serif" font-size="14.00">trait_names()</text>
<text text-anchor="start" x="1622" y="-1859.3" font-family="sans-serif" font-size="14.00">trait_values()</text>
<text text-anchor="start" x="1622" y="-1844.3" font-family="sans-serif" font-size="14.00">traits()</text>
<text text-anchor="start" x="1622" y="-1829.3" font-family="sans-serif" font-size="14.00">unobserve(handler, names, type)</text>
<text text-anchor="start" x="1622" y="-1814.3" font-family="sans-serif" font-size="14.00">unobserve_all(name)</text>
</g>
<!-- 6&#45;&gt;9 -->
<g id="edge7" class="edge">
<title>6&#45;&gt;9</title>
<path fill="none" stroke="black" d="M1772,-1769.77C1772,-1777.56 1772,-1786.46 1772,-1796.23"/>
<polygon fill="none" stroke="black" points="1768.5,-1796.27 1772,-1806.27 1775.5,-1796.27 1768.5,-1796.27"/>
</g>
<!-- 7 -->
<g id="node8" class="node">
<title>7</title>
<polygon fill="none" stroke="black" points="1607.5,-739.5 1607.5,-1663.5 1936.5,-1663.5 1936.5,-739.5 1607.5,-739.5"/>
<text text-anchor="middle" x="1772" y="-1648.3" font-family="sans-serif" font-size="14.00">ipywidgets.widgets.widget.Widget</text>
<polyline fill="none" stroke="black" points="1607.5,-1640.5 1936.5,-1640.5 "/>
<text text-anchor="start" x="1615.5" y="-1625.3" font-family="sans-serif" font-size="14.00">_display_callbacks : Instance</text>
<text text-anchor="start" x="1615.5" y="-1610.3" font-family="sans-serif" font-size="14.00">_holding_sync : bool</text>
<text text-anchor="start" x="1615.5" y="-1595.3" font-family="sans-serif" font-size="14.00">_holding_sync : bool</text>
<text text-anchor="start" x="1615.5" y="-1580.3" font-family="sans-serif" font-size="14.00">_ipython_display_ : NoneType</text>
<text text-anchor="start" x="1615.5" y="-1565.3" font-family="sans-serif" font-size="14.00">_model_id</text>
<text text-anchor="start" x="1615.5" y="-1550.3" font-family="sans-serif" font-size="14.00">_model_module : Unicode</text>
<text text-anchor="start" x="1615.5" y="-1535.3" font-family="sans-serif" font-size="14.00">_model_module_version : Unicode</text>
<text text-anchor="start" x="1615.5" y="-1520.3" font-family="sans-serif" font-size="14.00">_model_name : Unicode</text>
<text text-anchor="start" x="1615.5" y="-1505.3" font-family="sans-serif" font-size="14.00">_msg_callbacks : Instance</text>
<text text-anchor="start" x="1615.5" y="-1490.3" font-family="sans-serif" font-size="14.00">_property_lock : Dict</text>
<text text-anchor="start" x="1615.5" y="-1475.3" font-family="sans-serif" font-size="14.00">_property_lock : dict</text>
<text text-anchor="start" x="1615.5" y="-1460.3" font-family="sans-serif" font-size="14.00">_states_to_send : Set</text>
<text text-anchor="start" x="1615.5" y="-1445.3" font-family="sans-serif" font-size="14.00">_view_count : Int</text>
<text text-anchor="start" x="1615.5" y="-1430.3" font-family="sans-serif" font-size="14.00">_view_module : Unicode</text>
<text text-anchor="start" x="1615.5" y="-1415.3" font-family="sans-serif" font-size="14.00">_view_module_version : Unicode</text>
<text text-anchor="start" x="1615.5" y="-1400.3" font-family="sans-serif" font-size="14.00">_view_name : Unicode</text>
<text text-anchor="start" x="1615.5" y="-1385.3" font-family="sans-serif" font-size="14.00">_widget_construction_callback : NoneType</text>
<text text-anchor="start" x="1615.5" y="-1370.3" font-family="sans-serif" font-size="14.00">comm : Comm, NoneType</text>
<text text-anchor="start" x="1615.5" y="-1355.3" font-family="sans-serif" font-size="14.00">comm : Instance</text>
<text text-anchor="start" x="1615.5" y="-1340.3" font-family="sans-serif" font-size="14.00">keys : List</text>
<text text-anchor="start" x="1615.5" y="-1325.3" font-family="sans-serif" font-size="14.00">model_id</text>
<text text-anchor="start" x="1615.5" y="-1310.3" font-family="sans-serif" font-size="14.00">widget_types : WidgetRegistry</text>
<text text-anchor="start" x="1615.5" y="-1295.3" font-family="sans-serif" font-size="14.00">widgets : dict</text>
<polyline fill="none" stroke="black" points="1607.5,-1287.5 1936.5,-1287.5 "/>
<text text-anchor="start" x="1615.5" y="-1272.3" font-family="sans-serif" font-size="14.00">__del__()</text>
<text text-anchor="start" x="1615.5" y="-1257.3" font-family="sans-serif" font-size="14.00">__init__()</text>
<text text-anchor="start" x="1615.5" y="-1242.3" font-family="sans-serif" font-size="14.00">__repr__()</text>
<text text-anchor="start" x="1615.5" y="-1227.3" font-family="sans-serif" font-size="14.00">_call_widget_constructed(widget)</text>
<text text-anchor="start" x="1615.5" y="-1212.3" font-family="sans-serif" font-size="14.00">_comm_changed(change)</text>
<text text-anchor="start" x="1615.5" y="-1197.3" font-family="sans-serif" font-size="14.00">_compare(a, b)</text>
<text text-anchor="start" x="1615.5" y="-1182.3" font-family="sans-serif" font-size="14.00">_default_keys()</text>
<text text-anchor="start" x="1615.5" y="-1167.3" font-family="sans-serif" font-size="14.00">_gen_repr_from_keys(keys)</text>
<text text-anchor="start" x="1615.5" y="-1152.3" font-family="sans-serif" font-size="14.00">_get_embed_state(drop_defaults)</text>
<text text-anchor="start" x="1615.5" y="-1137.3" font-family="sans-serif" font-size="14.00">_handle_custom_msg(content, buffers)</text>
<text text-anchor="start" x="1615.5" y="-1122.3" font-family="sans-serif" font-size="14.00">_handle_displayed()</text>
<text text-anchor="start" x="1615.5" y="-1107.3" font-family="sans-serif" font-size="14.00">_handle_msg(msg)</text>
<text text-anchor="start" x="1615.5" y="-1092.3" font-family="sans-serif" font-size="14.00">_ipython_display_()</text>
<text text-anchor="start" x="1615.5" y="-1077.3" font-family="sans-serif" font-size="14.00">_is_numpy(x)</text>
<text text-anchor="start" x="1615.5" y="-1062.3" font-family="sans-serif" font-size="14.00">_lock_property()</text>
<text text-anchor="start" x="1615.5" y="-1047.3" font-family="sans-serif" font-size="14.00">_repr_keys()</text>
<text text-anchor="start" x="1615.5" y="-1032.3" font-family="sans-serif" font-size="14.00">_send(msg, buffers)</text>
<text text-anchor="start" x="1615.5" y="-1017.3" font-family="sans-serif" font-size="14.00">_should_send_property(key, value)</text>
<text text-anchor="start" x="1615.5" y="-1002.3" font-family="sans-serif" font-size="14.00">_trait_from_json(x)</text>
<text text-anchor="start" x="1615.5" y="-987.3" font-family="sans-serif" font-size="14.00">_trait_to_json(x)</text>
<text text-anchor="start" x="1615.5" y="-972.3" font-family="sans-serif" font-size="14.00">add_traits()</text>
<text text-anchor="start" x="1615.5" y="-957.3" font-family="sans-serif" font-size="14.00">close()</text>
<text text-anchor="start" x="1615.5" y="-942.3" font-family="sans-serif" font-size="14.00">close_all(cls)</text>
<text text-anchor="start" x="1615.5" y="-927.3" font-family="sans-serif" font-size="14.00">get_manager_state(drop_defaults, widgets)</text>
<text text-anchor="start" x="1615.5" y="-912.3" font-family="sans-serif" font-size="14.00">get_state(key, drop_defaults)</text>
<text text-anchor="start" x="1615.5" y="-897.3" font-family="sans-serif" font-size="14.00">get_view_spec()</text>
<text text-anchor="start" x="1615.5" y="-882.3" font-family="sans-serif" font-size="14.00">handle_comm_opened(comm, msg)</text>
<text text-anchor="start" x="1615.5" y="-867.3" font-family="sans-serif" font-size="14.00">hold_sync()</text>
<text text-anchor="start" x="1615.5" y="-852.3" font-family="sans-serif" font-size="14.00">notify_change(change)</text>
<text text-anchor="start" x="1615.5" y="-837.3" font-family="sans-serif" font-size="14.00">on_displayed(callback, remove)</text>
<text text-anchor="start" x="1615.5" y="-822.3" font-family="sans-serif" font-size="14.00">on_msg(callback, remove)</text>
<text text-anchor="start" x="1615.5" y="-807.3" font-family="sans-serif" font-size="14.00">on_widget_constructed(callback)</text>
<text text-anchor="start" x="1615.5" y="-792.3" font-family="sans-serif" font-size="14.00">open()</text>
<text text-anchor="start" x="1615.5" y="-777.3" font-family="sans-serif" font-size="14.00">send(content, buffers)</text>
<text text-anchor="start" x="1615.5" y="-762.3" font-family="sans-serif" font-size="14.00">send_state(key)</text>
<text text-anchor="start" x="1615.5" y="-747.3" font-family="sans-serif" font-size="14.00">set_state(sync_data)</text>
</g>
<!-- 7&#45;&gt;6 -->
<g id="edge8" class="edge">
<title>7&#45;&gt;6</title>
<path fill="none" stroke="black" d="M1772,-1663.7C1772,-1673.32 1772,-1682.18 1772,-1690.13"/>
<polygon fill="none" stroke="black" points="1768.5,-1690.4 1772,-1700.4 1775.5,-1690.4 1768.5,-1690.4"/>
</g>
<!-- 8 -->
<g id="node9" class="node">
<title>8</title>
<polygon fill="none" stroke="black" points="1650,-2422.5 1650,-2507.5 1894,-2507.5 1894,-2422.5 1650,-2422.5"/>
<text text-anchor="middle" x="1772" y="-2492.3" font-family="sans-serif" font-size="14.00">traitlets.traitlets.HasDescriptors</text>
<polyline fill="none" stroke="black" points="1650,-2484.5 1894,-2484.5 "/>
<polyline fill="none" stroke="black" points="1650,-2460.5 1894,-2460.5 "/>
<text text-anchor="start" x="1658" y="-2445.3" font-family="sans-serif" font-size="14.00">__new__()</text>
<text text-anchor="start" x="1658" y="-2430.3" font-family="sans-serif" font-size="14.00">setup_instance()</text>
</g>
<!-- 9&#45;&gt;8 -->
<g id="edge9" class="edge">
<title>9&#45;&gt;8</title>
<path fill="none" stroke="black" d="M1772,-2385.72C1772,-2395.16 1772,-2404.03 1772,-2412.18"/>
<polygon fill="none" stroke="black" points="1768.5,-2412.45 1772,-2422.45 1775.5,-2412.45 1768.5,-2412.45"/>
</g>
<!-- 12 -->
<g id="node13" class="node">
<title>12</title>
<polygon fill="none" stroke="black" points="1641,-588.5 1641,-702.5 1903,-702.5 1903,-588.5 1641,-588.5"/>
<text text-anchor="middle" x="1772" y="-687.3" font-family="sans-serif" font-size="14.00">wxyz.core.base.WXYZBase</text>
<polyline fill="none" stroke="black" points="1641,-679.5 1903,-679.5 "/>
<text text-anchor="start" x="1649" y="-664.3" font-family="sans-serif" font-size="14.00">_model_module : Unicode</text>
<text text-anchor="start" x="1649" y="-649.3" font-family="sans-serif" font-size="14.00">_model_module_version : Unicode</text>
<text text-anchor="start" x="1649" y="-634.3" font-family="sans-serif" font-size="14.00">_view_module : Unicode</text>
<text text-anchor="start" x="1649" y="-619.3" font-family="sans-serif" font-size="14.00">_view_module_version : Unicode</text>
<polyline fill="none" stroke="black" points="1641,-611.5 1903,-611.5 "/>
<text text-anchor="middle" x="1772" y="-596.3" font-family="sans-serif" font-size="14.00"> </text>
</g>
<!-- 10&#45;&gt;12 -->
<g id="edge10" class="edge">
<title>10&#45;&gt;12</title>
<path fill="none" stroke="black" d="M1772,-551.59C1772,-560.6 1772,-569.66 1772,-578.4"/>
<polygon fill="none" stroke="black" points="1768.5,-578.49 1772,-588.49 1775.5,-578.49 1768.5,-578.49"/>
</g>
<!-- 11&#45;&gt;10 -->
<g id="edge11" class="edge">
<title>11&#45;&gt;10</title>
<path fill="none" stroke="black" d="M1929.4,-333.96C1926.57,-336.34 1923.76,-338.69 1921,-341 1909.41,-350.69 1897.27,-360.77 1885.15,-370.8"/>
<polygon fill="none" stroke="black" points="1882.66,-368.31 1877.19,-377.38 1887.12,-373.7 1882.66,-368.31"/>
</g>
<!-- 12&#45;&gt;7 -->
<g id="edge12" class="edge">
<title>12&#45;&gt;7</title>
<path fill="none" stroke="black" d="M1772,-702.67C1772,-710.84 1772,-719.73 1772,-729.24"/>
<polygon fill="none" stroke="black" points="1768.5,-729.36 1772,-739.36 1775.5,-729.36 1768.5,-729.36"/>
</g>
</g>
</svg>
