<?xml version="1.0" encoding="UTF-8" standalone="no"?>
<!DOCTYPE svg PUBLIC "-//W3C//DTD SVG 1.1//EN"
 "http://www.w3.org/Graphics/SVG/1.1/DTD/svg11.dtd">
<!-- Generated by graphviz version 2.42.3 (20191010.1750)
 -->
<!-- Title: classes_datagrid Pages: 1 -->
<svg width="5129pt" height="2650pt"
 viewBox="0.00 0.00 5129.00 2650.00" xmlns="http://www.w3.org/2000/svg" xmlns:xlink="http://www.w3.org/1999/xlink">
<g id="graph0" class="graph" transform="scale(1 1) rotate(0) translate(4 2646)">
<title>classes_datagrid</title>
<polygon fill="white" stroke="transparent" points="-4,4 -4,-2646 5125,-2646 5125,4 -4,4"/>
<!-- 0 -->
<g id="node1" class="node">
<title>0</title>
<polygon fill="none" stroke="black" points="0,-53 0,-167 789,-167 789,-53 0,-53"/>
<text text-anchor="middle" x="394.5" y="-151.8" font-family="sans-serif" font-size="14.00">/home/runner/work/wxyz/wxyz/envs/_base/lib/python3.8/site&#45;packages/wxyz/datagrid/base.py.DataGridBase</text>
<polyline fill="none" stroke="black" points="0,-144 789,-144 "/>
<text text-anchor="start" x="8" y="-128.8" font-family="sans-serif" font-size="14.00">_model_module : Unicode</text>
<text text-anchor="start" x="8" y="-113.8" font-family="sans-serif" font-size="14.00">_model_module_version : Unicode</text>
<text text-anchor="start" x="8" y="-98.8" font-family="sans-serif" font-size="14.00">_view_module : Unicode</text>
<text text-anchor="start" x="8" y="-83.8" font-family="sans-serif" font-size="14.00">_view_module_version : Unicode</text>
<polyline fill="none" stroke="black" points="0,-76 789,-76 "/>
<text text-anchor="middle" x="394.5" y="-60.8" font-family="sans-serif" font-size="14.00"> </text>
</g>
<!-- 13 -->
<g id="node14" class="node">
<title>13</title>
<polygon fill="none" stroke="black" points="263.5,-256.5 263.5,-430.5 525.5,-430.5 525.5,-256.5 263.5,-256.5"/>
<text text-anchor="middle" x="394.5" y="-415.3" font-family="sans-serif" font-size="14.00">wxyz.core.base.Base</text>
<polyline fill="none" stroke="black" points="263.5,-407.5 525.5,-407.5 "/>
<text text-anchor="start" x="271.5" y="-392.3" font-family="sans-serif" font-size="14.00">_model_module : Unicode</text>
<text text-anchor="start" x="271.5" y="-377.3" font-family="sans-serif" font-size="14.00">_model_module_version : Unicode</text>
<text text-anchor="start" x="271.5" y="-362.3" font-family="sans-serif" font-size="14.00">_view_module : Unicode</text>
<text text-anchor="start" x="271.5" y="-347.3" font-family="sans-serif" font-size="14.00">_view_module_version : Unicode</text>
<text text-anchor="start" x="271.5" y="-332.3" font-family="sans-serif" font-size="14.00">closable : Bool</text>
<text text-anchor="start" x="271.5" y="-317.3" font-family="sans-serif" font-size="14.00">description : Unicode</text>
<text text-anchor="start" x="271.5" y="-302.3" font-family="sans-serif" font-size="14.00">error : CUnicode</text>
<text text-anchor="start" x="271.5" y="-287.3" font-family="sans-serif" font-size="14.00">icon_class : Unicode</text>
<polyline fill="none" stroke="black" points="263.5,-279.5 525.5,-279.5 "/>
<text text-anchor="middle" x="394.5" y="-264.3" font-family="sans-serif" font-size="14.00"> </text>
</g>
<!-- 0&#45;&gt;13 -->
<g id="edge1" class="edge">
<title>0&#45;&gt;13</title>
<path fill="none" stroke="black" d="M394.5,-167.04C394.5,-190.77 394.5,-219.11 394.5,-246.03"/>
<polygon fill="none" stroke="black" points="391,-246.26 394.5,-256.26 398,-246.26 391,-246.26"/>
</g>
<!-- 1 -->
<g id="node2" class="node">
<title>1</title>
<polygon fill="none" stroke="black" points="807,-60.5 807,-159.5 1642,-159.5 1642,-60.5 807,-60.5"/>
<text text-anchor="middle" x="1224.5" y="-144.3" font-family="sans-serif" font-size="14.00">/home/runner/work/wxyz/wxyz/envs/_base/lib/python3.8/site&#45;packages/wxyz/datagrid/widget_datagrid.py.DataGrid</text>
<polyline fill="none" stroke="black" points="807,-136.5 1642,-136.5 "/>
<text text-anchor="start" x="815" y="-121.3" font-family="sans-serif" font-size="14.00">_model_name</text>
<text text-anchor="start" x="815" y="-106.3" font-family="sans-serif" font-size="14.00">_view_name</text>
<text text-anchor="start" x="815" y="-91.3" font-family="sans-serif" font-size="14.00">value</text>
<polyline fill="none" stroke="black" points="807,-83.5 1642,-83.5 "/>
<text text-anchor="start" x="815" y="-68.3" font-family="sans-serif" font-size="14.00">_repr_keys()</text>
</g>
<!-- 2 -->
<g id="node3" class="node">
<title>2</title>
<polygon fill="none" stroke="black" points="1660.5,-0.5 1660.5,-219.5 2514.5,-219.5 2514.5,-0.5 1660.5,-0.5"/>
<text text-anchor="middle" x="2087.5" y="-204.3" font-family="sans-serif" font-size="14.00">/home/runner/work/wxyz/wxyz/envs/_base/lib/python3.8/site&#45;packages/wxyz/datagrid/widget_selectgrid.py.SelectGrid</text>
<polyline fill="none" stroke="black" points="1660.5,-196.5 2514.5,-196.5 "/>
<text text-anchor="start" x="1668.5" y="-181.3" font-family="sans-serif" font-size="14.00">_model_name</text>
<text text-anchor="start" x="1668.5" y="-166.3" font-family="sans-serif" font-size="14.00">_view_name</text>
<text text-anchor="start" x="1668.5" y="-151.3" font-family="sans-serif" font-size="14.00">hover_column</text>
<text text-anchor="start" x="1668.5" y="-136.3" font-family="sans-serif" font-size="14.00">hover_row</text>
<text text-anchor="start" x="1668.5" y="-121.3" font-family="sans-serif" font-size="14.00">max_x</text>
<text text-anchor="start" x="1668.5" y="-106.3" font-family="sans-serif" font-size="14.00">max_y</text>
<text text-anchor="start" x="1668.5" y="-91.3" font-family="sans-serif" font-size="14.00">scroll_x</text>
<text text-anchor="start" x="1668.5" y="-76.3" font-family="sans-serif" font-size="14.00">scroll_y</text>
<text text-anchor="start" x="1668.5" y="-61.3" font-family="sans-serif" font-size="14.00">selection</text>
<text text-anchor="start" x="1668.5" y="-46.3" font-family="sans-serif" font-size="14.00">selections</text>
<text text-anchor="start" x="1668.5" y="-31.3" font-family="sans-serif" font-size="14.00">viewport</text>
<polyline fill="none" stroke="black" points="1660.5,-23.5 2514.5,-23.5 "/>
<text text-anchor="middle" x="2087.5" y="-8.3" font-family="sans-serif" font-size="14.00"> </text>
</g>
<!-- 3 -->
<g id="node4" class="node">
<title>3</title>
<polygon fill="none" stroke="black" points="2534.5,-264 2534.5,-423 3398.5,-423 3398.5,-264 2534.5,-264"/>
<text text-anchor="middle" x="2966.5" y="-407.8" font-family="sans-serif" font-size="14.00">/home/runner/work/wxyz/wxyz/envs/_base/lib/python3.8/site&#45;packages/wxyz/datagrid/widget_stylegrid.py.CellRenderer</text>
<polyline fill="none" stroke="black" points="2534.5,-400 3398.5,-400 "/>
<text text-anchor="start" x="2542.5" y="-384.8" font-family="sans-serif" font-size="14.00">_model_module : Unicode</text>
<text text-anchor="start" x="2542.5" y="-369.8" font-family="sans-serif" font-size="14.00">_model_module_version : Unicode</text>
<text text-anchor="start" x="2542.5" y="-354.8" font-family="sans-serif" font-size="14.00">_model_name : Unicode</text>
<text text-anchor="start" x="2542.5" y="-339.8" font-family="sans-serif" font-size="14.00">_view_module : Unicode</text>
<text text-anchor="start" x="2542.5" y="-324.8" font-family="sans-serif" font-size="14.00">_view_module_version : Unicode</text>
<text text-anchor="start" x="2542.5" y="-309.8" font-family="sans-serif" font-size="14.00">metadata : Dict</text>
<text text-anchor="start" x="2542.5" y="-294.8" font-family="sans-serif" font-size="14.00">region : Unicode</text>
<polyline fill="none" stroke="black" points="2534.5,-287 3398.5,-287 "/>
<text text-anchor="middle" x="2966.5" y="-271.8" font-family="sans-serif" font-size="14.00"> </text>
</g>
<!-- 4 -->
<g id="node5" class="node">
<title>4</title>
<polygon fill="none" stroke="black" points="3423.5,-60.5 3423.5,-159.5 4265.5,-159.5 4265.5,-60.5 3423.5,-60.5"/>
<text text-anchor="middle" x="3844.5" y="-144.3" font-family="sans-serif" font-size="14.00">/home/runner/work/wxyz/wxyz/envs/_base/lib/python3.8/site&#45;packages/wxyz/datagrid/widget_stylegrid.py.FixedFunc</text>
<polyline fill="none" stroke="black" points="3423.5,-136.5 4265.5,-136.5 "/>
<text text-anchor="start" x="3431.5" y="-121.3" font-family="sans-serif" font-size="14.00">_model_name : Unicode</text>
<text text-anchor="start" x="3431.5" y="-106.3" font-family="sans-serif" font-size="14.00">digits : Int</text>
<text text-anchor="start" x="3431.5" y="-91.3" font-family="sans-serif" font-size="14.00">missing : Unicode</text>
<polyline fill="none" stroke="black" points="3423.5,-83.5 4265.5,-83.5 "/>
<text text-anchor="middle" x="3844.5" y="-68.3" font-family="sans-serif" font-size="14.00"> </text>
</g>
<!-- 5 -->
<g id="node6" class="node">
<title>5</title>
<polygon fill="none" stroke="black" points="3416.5,-309 3416.5,-378 4272.5,-378 4272.5,-309 3416.5,-309"/>
<text text-anchor="middle" x="3844.5" y="-362.8" font-family="sans-serif" font-size="14.00">/home/runner/work/wxyz/wxyz/envs/_base/lib/python3.8/site&#45;packages/wxyz/datagrid/widget_stylegrid.py.FormatFunc</text>
<polyline fill="none" stroke="black" points="3416.5,-355 4272.5,-355 "/>
<text text-anchor="start" x="3424.5" y="-339.8" font-family="sans-serif" font-size="14.00">_model_name : Unicode</text>
<polyline fill="none" stroke="black" points="3416.5,-332 4272.5,-332 "/>
<text text-anchor="middle" x="3844.5" y="-316.8" font-family="sans-serif" font-size="14.00"> </text>
</g>
<!-- 4&#45;&gt;5 -->
<g id="edge2" class="edge">
<title>4&#45;&gt;5</title>
<path fill="none" stroke="black" d="M3844.5,-159.53C3844.5,-200.67 3844.5,-259.14 3844.5,-298.83"/>
<polygon fill="none" stroke="black" points="3841,-298.99 3844.5,-308.99 3848,-298.99 3841,-298.99"/>
</g>
<!-- 6 -->
<g id="node7" class="node">
<title>6</title>
<polygon fill="none" stroke="black" points="544,-467.5 544,-836.5 1381,-836.5 1381,-467.5 544,-467.5"/>
<text text-anchor="middle" x="962.5" y="-821.3" font-family="sans-serif" font-size="14.00">/home/runner/work/wxyz/wxyz/envs/_base/lib/python3.8/site&#45;packages/wxyz/datagrid/widget_stylegrid.py.GridStyle</text>
<polyline fill="none" stroke="black" points="544,-813.5 1381,-813.5 "/>
<text text-anchor="start" x="552" y="-798.3" font-family="sans-serif" font-size="14.00">_model_module : Unicode</text>
<text text-anchor="start" x="552" y="-783.3" font-family="sans-serif" font-size="14.00">_model_module_version : Unicode</text>
<text text-anchor="start" x="552" y="-768.3" font-family="sans-serif" font-size="14.00">_model_name : Unicode</text>
<text text-anchor="start" x="552" y="-753.3" font-family="sans-serif" font-size="14.00">backgroundColor : Unicode</text>
<text text-anchor="start" x="552" y="-738.3" font-family="sans-serif" font-size="14.00">columnBackgroundColor : Union</text>
<text text-anchor="start" x="552" y="-723.3" font-family="sans-serif" font-size="14.00">cursorBorderColor : Unicode</text>
<text text-anchor="start" x="552" y="-708.3" font-family="sans-serif" font-size="14.00">cursorFillColor : Unicode</text>
<text text-anchor="start" x="552" y="-693.3" font-family="sans-serif" font-size="14.00">gridLineColor : Unicode</text>
<text text-anchor="start" x="552" y="-678.3" font-family="sans-serif" font-size="14.00">headerBackgroundColor : Unicode</text>
<text text-anchor="start" x="552" y="-663.3" font-family="sans-serif" font-size="14.00">headerGridLineColor : Unicode</text>
<text text-anchor="start" x="552" y="-648.3" font-family="sans-serif" font-size="14.00">headerHorizontalGridLineColor : Unicode</text>
<text text-anchor="start" x="552" y="-633.3" font-family="sans-serif" font-size="14.00">headerSelectionBorderColor : Unicode</text>
<text text-anchor="start" x="552" y="-618.3" font-family="sans-serif" font-size="14.00">headerSelectionFillColor : Unicode</text>
<text text-anchor="start" x="552" y="-603.3" font-family="sans-serif" font-size="14.00">headerVerticalGridLineColor : Unicode</text>
<text text-anchor="start" x="552" y="-588.3" font-family="sans-serif" font-size="14.00">horizontalGridLineColor : Unicode</text>
<text text-anchor="start" x="552" y="-573.3" font-family="sans-serif" font-size="14.00">rowBackgroundColor : Union</text>
<text text-anchor="start" x="552" y="-558.3" font-family="sans-serif" font-size="14.00">scrollShadow : Dict</text>
<text text-anchor="start" x="552" y="-543.3" font-family="sans-serif" font-size="14.00">selectionBorderColor : Unicode</text>
<text text-anchor="start" x="552" y="-528.3" font-family="sans-serif" font-size="14.00">selectionFillColor : Unicode</text>
<text text-anchor="start" x="552" y="-513.3" font-family="sans-serif" font-size="14.00">verticalGridLineColor : Unicode</text>
<text text-anchor="start" x="552" y="-498.3" font-family="sans-serif" font-size="14.00">voidColor : Unicode</text>
<polyline fill="none" stroke="black" points="544,-490.5 1381,-490.5 "/>
<text text-anchor="middle" x="962.5" y="-475.3" font-family="sans-serif" font-size="14.00"> </text>
</g>
<!-- 10 -->
<g id="node11" class="node">
<title>10</title>
<polygon fill="none" stroke="black" points="514,-873.5 514,-1797.5 843,-1797.5 843,-873.5 514,-873.5"/>
<text text-anchor="middle" x="678.5" y="-1782.3" font-family="sans-serif" font-size="14.00">ipywidgets.widgets.widget.Widget</text>
<polyline fill="none" stroke="black" points="514,-1774.5 843,-1774.5 "/>
<text text-anchor="start" x="522" y="-1759.3" font-family="sans-serif" font-size="14.00">_display_callbacks : Instance</text>
<text text-anchor="start" x="522" y="-1744.3" font-family="sans-serif" font-size="14.00">_holding_sync : bool</text>
<text text-anchor="start" x="522" y="-1729.3" font-family="sans-serif" font-size="14.00">_holding_sync : bool</text>
<text text-anchor="start" x="522" y="-1714.3" font-family="sans-serif" font-size="14.00">_ipython_display_ : NoneType</text>
<text text-anchor="start" x="522" y="-1699.3" font-family="sans-serif" font-size="14.00">_model_id</text>
<text text-anchor="start" x="522" y="-1684.3" font-family="sans-serif" font-size="14.00">_model_module : Unicode</text>
<text text-anchor="start" x="522" y="-1669.3" font-family="sans-serif" font-size="14.00">_model_module_version : Unicode</text>
<text text-anchor="start" x="522" y="-1654.3" font-family="sans-serif" font-size="14.00">_model_name : Unicode</text>
<text text-anchor="start" x="522" y="-1639.3" font-family="sans-serif" font-size="14.00">_msg_callbacks : Instance</text>
<text text-anchor="start" x="522" y="-1624.3" font-family="sans-serif" font-size="14.00">_property_lock : Dict</text>
<text text-anchor="start" x="522" y="-1609.3" font-family="sans-serif" font-size="14.00">_property_lock : dict</text>
<text text-anchor="start" x="522" y="-1594.3" font-family="sans-serif" font-size="14.00">_states_to_send : Set</text>
<text text-anchor="start" x="522" y="-1579.3" font-family="sans-serif" font-size="14.00">_view_count : Int</text>
<text text-anchor="start" x="522" y="-1564.3" font-family="sans-serif" font-size="14.00">_view_module : Unicode</text>
<text text-anchor="start" x="522" y="-1549.3" font-family="sans-serif" font-size="14.00">_view_module_version : Unicode</text>
<text text-anchor="start" x="522" y="-1534.3" font-family="sans-serif" font-size="14.00">_view_name : Unicode</text>
<text text-anchor="start" x="522" y="-1519.3" font-family="sans-serif" font-size="14.00">_widget_construction_callback : NoneType</text>
<text text-anchor="start" x="522" y="-1504.3" font-family="sans-serif" font-size="14.00">comm : Comm, NoneType</text>
<text text-anchor="start" x="522" y="-1489.3" font-family="sans-serif" font-size="14.00">comm : Instance</text>
<text text-anchor="start" x="522" y="-1474.3" font-family="sans-serif" font-size="14.00">keys : List</text>
<text text-anchor="start" x="522" y="-1459.3" font-family="sans-serif" font-size="14.00">model_id</text>
<text text-anchor="start" x="522" y="-1444.3" font-family="sans-serif" font-size="14.00">widget_types : WidgetRegistry</text>
<text text-anchor="start" x="522" y="-1429.3" font-family="sans-serif" font-size="14.00">widgets : dict</text>
<polyline fill="none" stroke="black" points="514,-1421.5 843,-1421.5 "/>
<text text-anchor="start" x="522" y="-1406.3" font-family="sans-serif" font-size="14.00">__del__()</text>
<text text-anchor="start" x="522" y="-1391.3" font-family="sans-serif" font-size="14.00">__init__()</text>
<text text-anchor="start" x="522" y="-1376.3" font-family="sans-serif" font-size="14.00">__repr__()</text>
<text text-anchor="start" x="522" y="-1361.3" font-family="sans-serif" font-size="14.00">_call_widget_constructed(widget)</text>
<text text-anchor="start" x="522" y="-1346.3" font-family="sans-serif" font-size="14.00">_comm_changed(change)</text>
<text text-anchor="start" x="522" y="-1331.3" font-family="sans-serif" font-size="14.00">_compare(a, b)</text>
<text text-anchor="start" x="522" y="-1316.3" font-family="sans-serif" font-size="14.00">_default_keys()</text>
<text text-anchor="start" x="522" y="-1301.3" font-family="sans-serif" font-size="14.00">_gen_repr_from_keys(keys)</text>
<text text-anchor="start" x="522" y="-1286.3" font-family="sans-serif" font-size="14.00">_get_embed_state(drop_defaults)</text>
<text text-anchor="start" x="522" y="-1271.3" font-family="sans-serif" font-size="14.00">_handle_custom_msg(content, buffers)</text>
<text text-anchor="start" x="522" y="-1256.3" font-family="sans-serif" font-size="14.00">_handle_displayed()</text>
<text text-anchor="start" x="522" y="-1241.3" font-family="sans-serif" font-size="14.00">_handle_msg(msg)</text>
<text text-anchor="start" x="522" y="-1226.3" font-family="sans-serif" font-size="14.00">_ipython_display_()</text>
<text text-anchor="start" x="522" y="-1211.3" font-family="sans-serif" font-size="14.00">_is_numpy(x)</text>
<text text-anchor="start" x="522" y="-1196.3" font-family="sans-serif" font-size="14.00">_lock_property()</text>
<text text-anchor="start" x="522" y="-1181.3" font-family="sans-serif" font-size="14.00">_repr_keys()</text>
<text text-anchor="start" x="522" y="-1166.3" font-family="sans-serif" font-size="14.00">_send(msg, buffers)</text>
<text text-anchor="start" x="522" y="-1151.3" font-family="sans-serif" font-size="14.00">_should_send_property(key, value)</text>
<text text-anchor="start" x="522" y="-1136.3" font-family="sans-serif" font-size="14.00">_trait_from_json(x)</text>
<text text-anchor="start" x="522" y="-1121.3" font-family="sans-serif" font-size="14.00">_trait_to_json(x)</text>
<text text-anchor="start" x="522" y="-1106.3" font-family="sans-serif" font-size="14.00">add_traits()</text>
<text text-anchor="start" x="522" y="-1091.3" font-family="sans-serif" font-size="14.00">close()</text>
<text text-anchor="start" x="522" y="-1076.3" font-family="sans-serif" font-size="14.00">close_all(cls)</text>
<text text-anchor="start" x="522" y="-1061.3" font-family="sans-serif" font-size="14.00">get_manager_state(drop_defaults, widgets)</text>
<text text-anchor="start" x="522" y="-1046.3" font-family="sans-serif" font-size="14.00">get_state(key, drop_defaults)</text>
<text text-anchor="start" x="522" y="-1031.3" font-family="sans-serif" font-size="14.00">get_view_spec()</text>
<text text-anchor="start" x="522" y="-1016.3" font-family="sans-serif" font-size="14.00">handle_comm_opened(comm, msg)</text>
<text text-anchor="start" x="522" y="-1001.3" font-family="sans-serif" font-size="14.00">hold_sync()</text>
<text text-anchor="start" x="522" y="-986.3" font-family="sans-serif" font-size="14.00">notify_change(change)</text>
<text text-anchor="start" x="522" y="-971.3" font-family="sans-serif" font-size="14.00">on_displayed(callback, remove)</text>
<text text-anchor="start" x="522" y="-956.3" font-family="sans-serif" font-size="14.00">on_msg(callback, remove)</text>
<text text-anchor="start" x="522" y="-941.3" font-family="sans-serif" font-size="14.00">on_widget_constructed(callback)</text>
<text text-anchor="start" x="522" y="-926.3" font-family="sans-serif" font-size="14.00">open()</text>
<text text-anchor="start" x="522" y="-911.3" font-family="sans-serif" font-size="14.00">send(content, buffers)</text>
<text text-anchor="start" x="522" y="-896.3" font-family="sans-serif" font-size="14.00">send_state(key)</text>
<text text-anchor="start" x="522" y="-881.3" font-family="sans-serif" font-size="14.00">set_state(sync_data)</text>
</g>
<!-- 6&#45;&gt;10 -->
<g id="edge3" class="edge">
<title>6&#45;&gt;10</title>
<path fill="none" stroke="black" d="M886.02,-836.53C873.72,-866.04 860.58,-897.57 847.11,-929.89"/>
<polygon fill="none" stroke="black" points="843.73,-928.91 843.11,-939.48 850.19,-931.6 843.73,-928.91"/>
</g>
<!-- 7 -->
<g id="node8" class="node">
<title>7</title>
<polygon fill="none" stroke="black" points="4284,-15.5 4284,-204.5 5121,-204.5 5121,-15.5 4284,-15.5"/>
<text text-anchor="middle" x="4702.5" y="-189.3" font-family="sans-serif" font-size="14.00">/home/runner/work/wxyz/wxyz/envs/_base/lib/python3.8/site&#45;packages/wxyz/datagrid/widget_stylegrid.py.StyleGrid</text>
<polyline fill="none" stroke="black" points="4284,-181.5 5121,-181.5 "/>
<text text-anchor="start" x="4292" y="-166.3" font-family="sans-serif" font-size="14.00">_model_name : Unicode</text>
<text text-anchor="start" x="4292" y="-151.3" font-family="sans-serif" font-size="14.00">_view_name : Unicode</text>
<text text-anchor="start" x="4292" y="-136.3" font-family="sans-serif" font-size="14.00">cell_renderers : TraitType</text>
<text text-anchor="start" x="4292" y="-121.3" font-family="sans-serif" font-size="14.00">column_header_size : Int</text>
<text text-anchor="start" x="4292" y="-106.3" font-family="sans-serif" font-size="14.00">column_size : Int</text>
<text text-anchor="start" x="4292" y="-91.3" font-family="sans-serif" font-size="14.00">grid_style</text>
<text text-anchor="start" x="4292" y="-76.3" font-family="sans-serif" font-size="14.00">header_visibility : Enum</text>
<text text-anchor="start" x="4292" y="-61.3" font-family="sans-serif" font-size="14.00">row_header_size : Int</text>
<text text-anchor="start" x="4292" y="-46.3" font-family="sans-serif" font-size="14.00">row_size : Int</text>
<polyline fill="none" stroke="black" points="4284,-38.5 5121,-38.5 "/>
<text text-anchor="middle" x="4702.5" y="-23.3" font-family="sans-serif" font-size="14.00"> </text>
</g>
<!-- 8 -->
<g id="node9" class="node">
<title>8</title>
<polygon fill="none" stroke="black" points="2533,-30.5 2533,-189.5 3400,-189.5 3400,-30.5 2533,-30.5"/>
<text text-anchor="middle" x="2966.5" y="-174.3" font-family="sans-serif" font-size="14.00">/home/runner/work/wxyz/wxyz/envs/_base/lib/python3.8/site&#45;packages/wxyz/datagrid/widget_stylegrid.py.TextRenderer</text>
<polyline fill="none" stroke="black" points="2533,-166.5 3400,-166.5 "/>
<text text-anchor="start" x="2541" y="-151.3" font-family="sans-serif" font-size="14.00">_model_name : Unicode</text>
<text text-anchor="start" x="2541" y="-136.3" font-family="sans-serif" font-size="14.00">background_color</text>
<text text-anchor="start" x="2541" y="-121.3" font-family="sans-serif" font-size="14.00">font : Unicode</text>
<text text-anchor="start" x="2541" y="-106.3" font-family="sans-serif" font-size="14.00">format_func : TraitType</text>
<text text-anchor="start" x="2541" y="-91.3" font-family="sans-serif" font-size="14.00">horizontal_alignment : Unicode</text>
<text text-anchor="start" x="2541" y="-76.3" font-family="sans-serif" font-size="14.00">text_color</text>
<text text-anchor="start" x="2541" y="-61.3" font-family="sans-serif" font-size="14.00">vertical_alignment : Unicode</text>
<polyline fill="none" stroke="black" points="2533,-53.5 3400,-53.5 "/>
<text text-anchor="middle" x="2966.5" y="-38.3" font-family="sans-serif" font-size="14.00"> </text>
</g>
<!-- 8&#45;&gt;3 -->
<g id="edge4" class="edge">
<title>8&#45;&gt;3</title>
<path fill="none" stroke="black" d="M2966.5,-189.7C2966.5,-210.2 2966.5,-232.43 2966.5,-253.43"/>
<polygon fill="none" stroke="black" points="2963,-253.63 2966.5,-263.63 2970,-253.63 2963,-253.63"/>
</g>
<!-- 9 -->
<g id="node10" class="node">
<title>9</title>
<polygon fill="none" stroke="black" points="512.5,-1834.5 512.5,-1903.5 844.5,-1903.5 844.5,-1834.5 512.5,-1834.5"/>
<text text-anchor="middle" x="678.5" y="-1888.3" font-family="sans-serif" font-size="14.00">ipywidgets.widgets.widget.LoggingHasTraits</text>
<polyline fill="none" stroke="black" points="512.5,-1880.5 844.5,-1880.5 "/>
<text text-anchor="start" x="520.5" y="-1865.3" font-family="sans-serif" font-size="14.00">log : Instance</text>
<polyline fill="none" stroke="black" points="512.5,-1857.5 844.5,-1857.5 "/>
<text text-anchor="start" x="520.5" y="-1842.3" font-family="sans-serif" font-size="14.00">_log_default()</text>
</g>
<!-- 12 -->
<g id="node13" class="node">
<title>12</title>
<polygon fill="none" stroke="black" points="520.5,-1940.5 520.5,-2519.5 836.5,-2519.5 836.5,-1940.5 520.5,-1940.5"/>
<text text-anchor="middle" x="678.5" y="-2504.3" font-family="sans-serif" font-size="14.00">traitlets.traitlets.HasTraits</text>
<polyline fill="none" stroke="black" points="520.5,-2496.5 836.5,-2496.5 "/>
<text text-anchor="start" x="528.5" y="-2481.3" font-family="sans-serif" font-size="14.00">__class__</text>
<text text-anchor="start" x="528.5" y="-2466.3" font-family="sans-serif" font-size="14.00">__dict__</text>
<text text-anchor="start" x="528.5" y="-2451.3" font-family="sans-serif" font-size="14.00">_cross_validation_lock : bool</text>
<text text-anchor="start" x="528.5" y="-2436.3" font-family="sans-serif" font-size="14.00">_trait_notifiers : dict</text>
<text text-anchor="start" x="528.5" y="-2421.3" font-family="sans-serif" font-size="14.00">cross_validation_lock</text>
<text text-anchor="start" x="528.5" y="-2406.3" font-family="sans-serif" font-size="14.00">notify_change</text>
<polyline fill="none" stroke="black" points="520.5,-2398.5 836.5,-2398.5 "/>
<text text-anchor="start" x="528.5" y="-2383.3" font-family="sans-serif" font-size="14.00">__getstate__()</text>
<text text-anchor="start" x="528.5" y="-2368.3" font-family="sans-serif" font-size="14.00">__init__()</text>
<text text-anchor="start" x="528.5" y="-2353.3" font-family="sans-serif" font-size="14.00">__setstate__(state)</text>
<text text-anchor="start" x="528.5" y="-2338.3" font-family="sans-serif" font-size="14.00">_add_notifiers(handler, name, type)</text>
<text text-anchor="start" x="528.5" y="-2323.3" font-family="sans-serif" font-size="14.00">_get_trait_default_generator(name)</text>
<text text-anchor="start" x="528.5" y="-2308.3" font-family="sans-serif" font-size="14.00">_notify_observers(event)</text>
<text text-anchor="start" x="528.5" y="-2293.3" font-family="sans-serif" font-size="14.00">_notify_trait(name, old_value, new_value)</text>
<text text-anchor="start" x="528.5" y="-2278.3" font-family="sans-serif" font-size="14.00">_register_validator(handler, names)</text>
<text text-anchor="start" x="528.5" y="-2263.3" font-family="sans-serif" font-size="14.00">_remove_notifiers(handler, name, type)</text>
<text text-anchor="start" x="528.5" y="-2248.3" font-family="sans-serif" font-size="14.00">add_traits()</text>
<text text-anchor="start" x="528.5" y="-2233.3" font-family="sans-serif" font-size="14.00">class_own_trait_events(cls, name)</text>
<text text-anchor="start" x="528.5" y="-2218.3" font-family="sans-serif" font-size="14.00">class_own_traits(cls)</text>
<text text-anchor="start" x="528.5" y="-2203.3" font-family="sans-serif" font-size="14.00">class_trait_names(cls)</text>
<text text-anchor="start" x="528.5" y="-2188.3" font-family="sans-serif" font-size="14.00">class_traits(cls)</text>
<text text-anchor="start" x="528.5" y="-2173.3" font-family="sans-serif" font-size="14.00">has_trait(name)</text>
<text text-anchor="start" x="528.5" y="-2158.3" font-family="sans-serif" font-size="14.00">hold_trait_notifications()</text>
<text text-anchor="start" x="528.5" y="-2143.3" font-family="sans-serif" font-size="14.00">notify_change(change)</text>
<text text-anchor="start" x="528.5" y="-2128.3" font-family="sans-serif" font-size="14.00">observe(handler, names, type)</text>
<text text-anchor="start" x="528.5" y="-2113.3" font-family="sans-serif" font-size="14.00">on_trait_change(handler, name, remove)</text>
<text text-anchor="start" x="528.5" y="-2098.3" font-family="sans-serif" font-size="14.00">set_trait(name, value)</text>
<text text-anchor="start" x="528.5" y="-2083.3" font-family="sans-serif" font-size="14.00">setup_instance()</text>
<text text-anchor="start" x="528.5" y="-2068.3" font-family="sans-serif" font-size="14.00">trait_defaults()</text>
<text text-anchor="start" x="528.5" y="-2053.3" font-family="sans-serif" font-size="14.00">trait_events(cls, name)</text>
<text text-anchor="start" x="528.5" y="-2038.3" font-family="sans-serif" font-size="14.00">trait_has_value(name)</text>
<text text-anchor="start" x="528.5" y="-2023.3" font-family="sans-serif" font-size="14.00">trait_metadata(traitname, key, default)</text>
<text text-anchor="start" x="528.5" y="-2008.3" font-family="sans-serif" font-size="14.00">trait_names()</text>
<text text-anchor="start" x="528.5" y="-1993.3" font-family="sans-serif" font-size="14.00">trait_values()</text>
<text text-anchor="start" x="528.5" y="-1978.3" font-family="sans-serif" font-size="14.00">traits()</text>
<text text-anchor="start" x="528.5" y="-1963.3" font-family="sans-serif" font-size="14.00">unobserve(handler, names, type)</text>
<text text-anchor="start" x="528.5" y="-1948.3" font-family="sans-serif" font-size="14.00">unobserve_all(name)</text>
</g>
<!-- 9&#45;&gt;12 -->
<g id="edge5" class="edge">
<title>9&#45;&gt;12</title>
<path fill="none" stroke="black" d="M678.5,-1903.77C678.5,-1911.56 678.5,-1920.46 678.5,-1930.23"/>
<polygon fill="none" stroke="black" points="675,-1930.27 678.5,-1940.27 682,-1930.27 675,-1930.27"/>
</g>
<!-- 10&#45;&gt;9 -->
<g id="edge6" class="edge">
<title>10&#45;&gt;9</title>
<path fill="none" stroke="black" d="M678.5,-1797.7C678.5,-1807.32 678.5,-1816.18 678.5,-1824.13"/>
<polygon fill="none" stroke="black" points="675,-1824.4 678.5,-1834.4 682,-1824.4 675,-1824.4"/>
</g>
<!-- 11 -->
<g id="node12" class="node">
<title>11</title>
<polygon fill="none" stroke="black" points="556.5,-2556.5 556.5,-2641.5 800.5,-2641.5 800.5,-2556.5 556.5,-2556.5"/>
<text text-anchor="middle" x="678.5" y="-2626.3" font-family="sans-serif" font-size="14.00">traitlets.traitlets.HasDescriptors</text>
<polyline fill="none" stroke="black" points="556.5,-2618.5 800.5,-2618.5 "/>
<polyline fill="none" stroke="black" points="556.5,-2594.5 800.5,-2594.5 "/>
<text text-anchor="start" x="564.5" y="-2579.3" font-family="sans-serif" font-size="14.00">__new__()</text>
<text text-anchor="start" x="564.5" y="-2564.3" font-family="sans-serif" font-size="14.00">setup_instance()</text>
</g>
<!-- 12&#45;&gt;11 -->
<g id="edge7" class="edge">
<title>12&#45;&gt;11</title>
<path fill="none" stroke="black" d="M678.5,-2519.72C678.5,-2529.16 678.5,-2538.03 678.5,-2546.18"/>
<polygon fill="none" stroke="black" points="675,-2546.45 678.5,-2556.45 682,-2546.45 675,-2546.45"/>
</g>
<!-- 14 -->
<g id="node15" class="node">
<title>14</title>
<polygon fill="none" stroke="black" points="263.5,-595 263.5,-709 525.5,-709 525.5,-595 263.5,-595"/>
<text text-anchor="middle" x="394.5" y="-693.8" font-family="sans-serif" font-size="14.00">wxyz.core.base.WXYZBase</text>
<polyline fill="none" stroke="black" points="263.5,-686 525.5,-686 "/>
<text text-anchor="start" x="271.5" y="-670.8" font-family="sans-serif" font-size="14.00">_model_module : Unicode</text>
<text text-anchor="start" x="271.5" y="-655.8" font-family="sans-serif" font-size="14.00">_model_module_version : Unicode</text>
<text text-anchor="start" x="271.5" y="-640.8" font-family="sans-serif" font-size="14.00">_view_module : Unicode</text>
<text text-anchor="start" x="271.5" y="-625.8" font-family="sans-serif" font-size="14.00">_view_module_version : Unicode</text>
<polyline fill="none" stroke="black" points="263.5,-618 525.5,-618 "/>
<text text-anchor="middle" x="394.5" y="-602.8" font-family="sans-serif" font-size="14.00"> </text>
</g>
<!-- 13&#45;&gt;14 -->
<g id="edge8" class="edge">
<title>13&#45;&gt;14</title>
<path fill="none" stroke="black" d="M394.5,-430.69C394.5,-479.48 394.5,-539.56 394.5,-584.65"/>
<polygon fill="none" stroke="black" points="391,-584.9 394.5,-594.9 398,-584.9 391,-584.9"/>
</g>
<!-- 14&#45;&gt;10 -->
<g id="edge9" class="edge">
<title>14&#45;&gt;10</title>
<path fill="none" stroke="black" d="M417.86,-709.06C439.42,-760.8 473.55,-842.7 510.1,-930.4"/>
<polygon fill="none" stroke="black" points="506.91,-931.85 513.99,-939.73 513.37,-929.15 506.91,-931.85"/>
</g>
</g>
</svg>
